<svg width="1000" height="1000" viewBox="0 0 1000 1000" fill="none" xmlns="http://www.w3.org/2000/svg">
<g filter="url(#filter0_d_397_1515)">
<mask id="path-1-outside-1_397_1515" maskUnits="userSpaceOnUse" x="459" y="85" width="80" height="53" fill="black">
<rect fill="white" x="459" y="85" width="80" height="53"/>
<path d="M493.304 131.024V137H460.04V131.024H474.872V95.024L464.792 100.208H464.504L463.208 96.104V95.816L476.456 86.888H481.208V131.024H493.304ZM537.952 130.952V137H504.688V132.176L522.688 112.952C525.472 109.976 527.368 107.624 528.376 105.896C529.384 104.12 529.888 102.344 529.888 100.568C529.888 97.784 528.952 95.648 527.08 94.16C525.208 92.624 522.568 91.856 519.16 91.856C514.552 91.856 510.256 93.2 506.272 95.888V89.552C510.256 87.2 514.648 86.024 519.448 86.024C522.856 86.024 525.832 86.6 528.376 87.752C530.968 88.856 532.96 90.44 534.352 92.504C535.744 94.568 536.44 96.968 536.44 99.704C536.44 102.248 535.816 104.816 534.568 107.408C533.368 110 531.568 112.52 529.168 114.968L513.688 130.952H537.952Z"/>
</mask>
<path d="M493.304 131.024V137H460.04V131.024H474.872V95.024L464.792 100.208H464.504L463.208 96.104V95.816L476.456 86.888H481.208V131.024H493.304ZM537.952 130.952V137H504.688V132.176L522.688 112.952C525.472 109.976 527.368 107.624 528.376 105.896C529.384 104.12 529.888 102.344 529.888 100.568C529.888 97.784 528.952 95.648 527.08 94.16C525.208 92.624 522.568 91.856 519.16 91.856C514.552 91.856 510.256 93.2 506.272 95.888V89.552C510.256 87.2 514.648 86.024 519.448 86.024C522.856 86.024 525.832 86.6 528.376 87.752C530.968 88.856 532.96 90.44 534.352 92.504C535.744 94.568 536.44 96.968 536.44 99.704C536.44 102.248 535.816 104.816 534.568 107.408C533.368 110 531.568 112.52 529.168 114.968L513.688 130.952H537.952Z" fill="black"/>
<path d="M493.304 131.024H494.304V130.024H493.304V131.024ZM493.304 137V138H494.304V137H493.304ZM460.04 137H459.04V138H460.04V137ZM460.04 131.024V130.024H459.04V131.024H460.04ZM474.872 131.024V132.024H475.872V131.024H474.872ZM474.872 95.024H475.872V93.3852L474.414 94.1347L474.872 95.024ZM464.792 100.208V101.208H465.034L465.249 101.097L464.792 100.208ZM464.504 100.208L463.55 100.509L463.771 101.208H464.504V100.208ZM463.208 96.104H462.208V96.2581L462.254 96.4051L463.208 96.104ZM463.208 95.816L462.649 94.9867L462.208 95.284V95.816H463.208ZM476.456 86.888V85.888H476.15L475.897 86.0587L476.456 86.888ZM481.208 86.888H482.208V85.888H481.208V86.888ZM481.208 131.024H480.208V132.024H481.208V131.024ZM493.304 131.024H492.304V137H493.304H494.304V131.024H493.304ZM493.304 137V136H460.04V137V138H493.304V137ZM460.04 137H461.04V131.024H460.04H459.04V137H460.04ZM460.04 131.024V132.024H474.872V131.024V130.024H460.04V131.024ZM474.872 131.024H475.872V95.024H474.872H473.872V131.024H474.872ZM474.872 95.024L474.414 94.1347L464.334 99.3187L464.792 100.208L465.249 101.097L475.329 95.9133L474.872 95.024ZM464.792 100.208V99.208H464.504V100.208V101.208H464.792V100.208ZM464.504 100.208L465.457 99.9069L464.161 95.8029L463.208 96.104L462.254 96.4051L463.55 100.509L464.504 100.208ZM463.208 96.104H464.208V95.816H463.208H462.208V96.104H463.208ZM463.208 95.816L463.766 96.6453L477.014 87.7173L476.456 86.888L475.897 86.0587L462.649 94.9867L463.208 95.816ZM476.456 86.888V87.888H481.208V86.888V85.888H476.456V86.888ZM481.208 86.888H480.208V131.024H481.208H482.208V86.888H481.208ZM481.208 131.024V132.024H493.304V131.024V130.024H481.208V131.024ZM537.952 130.952H538.952V129.952H537.952V130.952ZM537.952 137V138H538.952V137H537.952ZM504.688 137H503.688V138H504.688V137ZM504.688 132.176L503.958 131.493L503.688 131.781V132.176H504.688ZM522.688 112.952L523.418 113.635L523.418 113.635L522.688 112.952ZM528.376 105.896L529.24 106.4L529.246 106.39L528.376 105.896ZM527.08 94.16L526.446 94.9331L526.452 94.938L526.458 94.9428L527.08 94.16ZM506.272 95.888H505.272V97.769L506.831 96.717L506.272 95.888ZM506.272 89.552L505.764 88.6909L505.272 88.9811V89.552H506.272ZM528.376 87.752L527.963 88.663L527.974 88.6676L527.984 88.672L528.376 87.752ZM534.568 107.408L533.667 106.974L533.664 106.981L533.661 106.988L534.568 107.408ZM529.168 114.968L528.454 114.268L528.45 114.272L529.168 114.968ZM513.688 130.952L512.97 130.256L511.327 131.952H513.688V130.952ZM537.952 130.952H536.952V137H537.952H538.952V130.952H537.952ZM537.952 137V136H504.688V137V138H537.952V137ZM504.688 137H505.688V132.176H504.688H503.688V137H504.688ZM504.688 132.176L505.418 132.859L523.418 113.635L522.688 112.952L521.958 112.269L503.958 131.493L504.688 132.176ZM522.688 112.952L523.418 113.635C526.212 110.649 528.173 108.229 529.24 106.4L528.376 105.896L527.512 105.392C526.563 107.019 524.732 109.303 521.958 112.269L522.688 112.952ZM528.376 105.896L529.246 106.39C530.326 104.486 530.888 102.542 530.888 100.568H529.888H528.888C528.888 102.146 528.442 103.754 527.506 105.402L528.376 105.896ZM529.888 100.568H530.888C530.888 97.5353 529.854 95.0873 527.702 93.3772L527.08 94.16L526.458 94.9428C528.05 96.2087 528.888 98.0327 528.888 100.568H529.888ZM527.08 94.16L527.714 93.3869C525.603 91.6545 522.707 90.856 519.16 90.856V91.856V92.856C522.429 92.856 524.813 93.5935 526.446 94.9331L527.08 94.16ZM519.16 91.856V90.856C514.344 90.856 509.854 92.2646 505.713 95.059L506.272 95.888L506.831 96.717C510.658 94.1354 514.76 92.856 519.16 92.856V91.856ZM506.272 95.888H507.272V89.552H506.272H505.272V95.888H506.272ZM506.272 89.552L506.78 90.4131C510.604 88.1555 514.82 87.024 519.448 87.024V86.024V85.024C514.476 85.024 509.908 86.2445 505.764 88.6909L506.272 89.552ZM519.448 86.024V87.024C522.744 87.024 525.574 87.5811 527.963 88.663L528.376 87.752L528.789 86.841C526.09 85.6189 522.968 85.024 519.448 85.024V86.024ZM528.376 87.752L527.984 88.672C530.423 89.7107 532.253 91.1795 533.523 93.0631L534.352 92.504L535.181 91.9449C533.667 89.7005 531.513 88.0013 528.768 86.832L528.376 87.752ZM534.352 92.504L533.523 93.0631C534.793 94.9457 535.44 97.1467 535.44 99.704H536.44H537.44C537.44 96.7893 536.695 94.1903 535.181 91.9449L534.352 92.504ZM536.44 99.704H535.44C535.44 102.079 534.858 104.5 533.667 106.974L534.568 107.408L535.469 107.842C536.774 105.132 537.44 102.417 537.44 99.704H536.44ZM534.568 107.408L533.661 106.988C532.517 109.458 530.79 111.886 528.454 114.268L529.168 114.968L529.882 115.668C532.347 113.154 534.219 110.542 535.475 107.828L534.568 107.408ZM529.168 114.968L528.45 114.272L512.97 130.256L513.688 130.952L514.406 131.648L529.886 115.664L529.168 114.968ZM513.688 130.952V131.952H537.952V130.952V129.952H513.688V130.952Z" fill="black" mask="url(#path-1-outside-1_397_1515)"/>
</g>
<g filter="url(#filter1_d_397_1515)">
<mask id="path-3-outside-2_397_1515" maskUnits="userSpaceOnUse" x="667.479" y="132.153" width="58.5429" height="64.3993" fill="black">
<rect fill="white" x="667.479" y="132.153" width="58.5429" height="64.3993"/>
<path d="M701.388 189.575L698.4 194.751L669.593 178.119L672.581 172.943L685.425 180.359L703.425 149.182L692.104 148.632L691.855 148.488L692.784 144.286L692.928 144.036L708.865 142.928L712.981 145.304L690.913 183.527L701.388 189.575Z"/>
</mask>
<path d="M701.388 189.575L698.4 194.751L669.593 178.119L672.581 172.943L685.425 180.359L703.425 149.182L692.104 148.632L691.855 148.488L692.784 144.286L692.928 144.036L708.865 142.928L712.981 145.304L690.913 183.527L701.388 189.575Z" fill="black"/>
<path d="M701.388 189.575L702.254 190.075L702.754 189.209L701.888 188.709L701.388 189.575ZM698.4 194.751L697.9 195.617L698.766 196.117L699.266 195.251L698.4 194.751ZM669.593 178.119L668.727 177.619L668.227 178.485L669.093 178.985L669.593 178.119ZM672.581 172.943L673.081 172.077L672.215 171.577L671.715 172.443L672.581 172.943ZM685.425 180.359L684.925 181.225L685.792 181.725L686.292 180.859L685.425 180.359ZM703.425 149.182L704.292 149.682L705.111 148.263L703.474 148.183L703.425 149.182ZM692.104 148.632L691.604 149.498L691.814 149.619L692.055 149.631L692.104 148.632ZM691.855 148.488L690.878 148.272L690.72 148.987L691.355 149.354L691.855 148.488ZM692.784 144.286L691.918 143.786L691.841 143.919L691.808 144.07L692.784 144.286ZM692.928 144.036L692.859 143.039L692.328 143.075L692.062 143.536L692.928 144.036ZM708.865 142.928L709.365 142.062L709.101 141.91L708.796 141.931L708.865 142.928ZM712.981 145.304L713.847 145.804L714.347 144.938L713.481 144.438L712.981 145.304ZM690.913 183.527L690.047 183.027L689.547 183.893L690.413 184.393L690.913 183.527ZM701.388 189.575L700.522 189.075L697.534 194.251L698.4 194.751L699.266 195.251L702.254 190.075L701.388 189.575ZM698.4 194.751L698.9 193.885L670.093 177.253L669.593 178.119L669.093 178.985L697.9 195.617L698.4 194.751ZM669.593 178.119L670.459 178.619L673.447 173.443L672.581 172.943L671.715 172.443L668.727 177.619L669.593 178.119ZM672.581 172.943L672.081 173.809L684.925 181.225L685.425 180.359L685.925 179.493L673.081 172.077L672.581 172.943ZM685.425 180.359L686.292 180.859L704.292 149.682L703.425 149.182L702.559 148.682L684.559 179.859L685.425 180.359ZM703.425 149.182L703.474 148.183L692.153 147.633L692.104 148.632L692.055 149.631L703.377 150.181L703.425 149.182ZM692.104 148.632L692.604 147.766L692.355 147.622L691.855 148.488L691.355 149.354L691.604 149.498L692.104 148.632ZM691.855 148.488L692.831 148.704L693.761 144.502L692.784 144.286L691.808 144.07L690.878 148.272L691.855 148.488ZM692.784 144.286L693.65 144.786L693.794 144.536L692.928 144.036L692.062 143.536L691.918 143.786L692.784 144.286ZM692.928 144.036L692.998 145.034L708.935 143.926L708.865 142.928L708.796 141.931L692.859 143.039L692.928 144.036ZM708.865 142.928L708.365 143.794L712.481 146.17L712.981 145.304L713.481 144.438L709.365 142.062L708.865 142.928ZM712.981 145.304L712.115 144.804L690.047 183.027L690.913 183.527L691.779 184.027L713.847 145.804L712.981 145.304ZM690.913 183.527L690.413 184.393L700.888 190.441L701.388 189.575L701.888 188.709L691.413 182.661L690.913 183.527Z" fill="black" mask="url(#path-3-outside-2_397_1515)"/>
</g>
<g filter="url(#filter2_d_397_1515)">
<mask id="path-5-outside-3_397_1515" maskUnits="userSpaceOnUse" x="808.947" y="279.479" width="64.3993" height="58.5429" fill="black">
<rect fill="white" x="808.947" y="279.479" width="64.3993" height="58.5429"/>
<path d="M832.615 332.876L827.377 335.9L810.745 307.093L814.923 304.681L840.571 310.657C844.541 311.58 847.525 312.046 849.526 312.055C851.568 312.04 853.358 311.588 854.896 310.7C857.307 309.308 858.689 307.43 859.042 305.065C859.436 302.675 858.781 300.005 857.077 297.054C854.773 293.063 851.461 290.015 847.141 287.908L852.628 284.74C856.657 287.015 859.872 290.23 862.272 294.387C863.976 297.339 864.965 300.204 865.239 302.983C865.579 305.78 865.203 308.297 864.112 310.534C863.02 312.772 861.29 314.575 858.92 315.943C856.717 317.215 854.181 317.958 851.313 318.173C848.468 318.43 845.385 318.131 842.065 317.277L820.483 311.863L832.615 332.876Z"/>
</mask>
<path d="M832.615 332.876L827.377 335.9L810.745 307.093L814.923 304.681L840.571 310.657C844.541 311.58 847.525 312.046 849.526 312.055C851.568 312.04 853.358 311.588 854.896 310.7C857.307 309.308 858.689 307.43 859.042 305.065C859.436 302.675 858.781 300.005 857.077 297.054C854.773 293.063 851.461 290.015 847.141 287.908L852.628 284.74C856.657 287.015 859.872 290.23 862.272 294.387C863.976 297.339 864.965 300.204 865.239 302.983C865.579 305.78 865.203 308.297 864.112 310.534C863.02 312.772 861.29 314.575 858.92 315.943C856.717 317.215 854.181 317.958 851.313 318.173C848.468 318.43 845.385 318.131 842.065 317.277L820.483 311.863L832.615 332.876Z" fill="black"/>
<path d="M832.615 332.876L833.115 333.742L833.981 333.242L833.481 332.376L832.615 332.876ZM827.377 335.9L826.511 336.4L827.011 337.266L827.877 336.766L827.377 335.9ZM810.745 307.093L810.245 306.227L809.379 306.727L809.879 307.593L810.745 307.093ZM814.923 304.681L815.15 303.707L814.765 303.617L814.423 303.815L814.923 304.681ZM840.571 310.657L840.344 311.631L840.345 311.631L840.571 310.657ZM849.526 312.055L849.521 313.055L849.533 313.055L849.526 312.055ZM859.042 305.065L858.055 304.902L858.054 304.909L858.053 304.917L859.042 305.065ZM847.141 287.908L846.641 287.042L845.012 287.983L846.703 288.807L847.141 287.908ZM852.628 284.74L853.12 283.87L852.623 283.589L852.128 283.874L852.628 284.74ZM865.239 302.983L864.244 303.081L864.245 303.092L864.246 303.104L865.239 302.983ZM851.313 318.173L851.238 317.176L851.23 317.177L851.223 317.177L851.313 318.173ZM842.065 317.277L842.315 316.308L842.309 316.307L842.065 317.277ZM820.483 311.863L820.726 310.893L818.437 310.319L819.617 312.363L820.483 311.863ZM832.615 332.876L832.115 332.01L826.877 335.034L827.377 335.9L827.877 336.766L833.115 333.742L832.615 332.876ZM827.377 335.9L828.243 335.4L811.611 306.593L810.745 307.093L809.879 307.593L826.511 336.4L827.377 335.9ZM810.745 307.093L811.245 307.959L815.423 305.547L814.923 304.681L814.423 303.815L810.245 306.227L810.745 307.093ZM814.923 304.681L814.696 305.654L840.344 311.631L840.571 310.657L840.798 309.683L815.15 303.707L814.923 304.681ZM840.571 310.657L840.345 311.631C844.328 312.557 847.404 313.046 849.521 313.055L849.526 312.055L849.53 311.055C847.647 311.047 844.753 310.603 840.798 309.683L840.571 310.657ZM849.526 312.055L849.533 313.055C851.722 313.039 853.687 312.553 855.396 311.566L854.896 310.7L854.396 309.834C853.029 310.624 851.414 311.041 849.519 311.055L849.526 312.055ZM854.896 310.7L855.396 311.566C858.023 310.05 859.625 307.93 860.031 305.212L859.042 305.065L858.053 304.917C857.753 306.929 856.592 308.567 854.396 309.834L854.896 310.7ZM859.042 305.065L860.028 305.227C860.473 302.533 859.716 299.625 857.943 296.554L857.077 297.054L856.211 297.554C857.846 300.385 858.399 302.818 858.055 304.902L859.042 305.065ZM857.077 297.054L857.943 296.554C855.535 292.383 852.07 289.199 847.579 287.01L847.141 287.908L846.703 288.807C850.852 290.83 854.011 293.743 856.211 297.554L857.077 297.054ZM847.141 287.908L847.641 288.774L853.128 285.606L852.628 284.74L852.128 283.874L846.641 287.042L847.141 287.908ZM852.628 284.74L852.137 285.611C856.004 287.794 859.091 290.879 861.406 294.887L862.272 294.387L863.138 293.887C860.652 289.581 857.31 286.235 853.12 283.87L852.628 284.74ZM862.272 294.387L861.406 294.887C863.054 297.742 863.986 300.471 864.244 303.081L865.239 302.983L866.234 302.885C865.943 299.936 864.897 296.935 863.138 293.887L862.272 294.387ZM865.239 302.983L864.246 303.104C864.566 305.735 864.209 308.054 863.213 310.096L864.112 310.534L865.011 310.973C866.197 308.54 866.592 305.825 866.232 302.862L865.239 302.983ZM864.112 310.534L863.213 310.096C862.217 312.137 860.635 313.798 858.42 315.077L858.92 315.943L859.42 316.809C861.945 315.351 863.823 313.407 865.011 310.973L864.112 310.534ZM858.92 315.943L858.42 315.077C856.363 316.264 853.976 316.971 851.238 317.176L851.313 318.173L851.387 319.171C854.386 318.946 857.071 318.165 859.42 316.809L858.92 315.943ZM851.313 318.173L851.223 317.177C848.512 317.422 845.546 317.14 842.315 316.308L842.065 317.277L841.816 318.245C845.225 319.123 848.424 319.438 851.402 319.169L851.313 318.173ZM842.065 317.277L842.309 316.307L820.726 310.893L820.483 311.863L820.24 312.833L841.822 318.247L842.065 317.277ZM820.483 311.863L819.617 312.363L831.749 333.376L832.615 332.876L833.481 332.376L821.349 311.363L820.483 311.863Z" fill="black" mask="url(#path-5-outside-3_397_1515)"/>
</g>
<g filter="url(#filter3_d_397_1515)">
<mask id="path-7-outside-4_397_1515" maskUnits="userSpaceOnUse" x="866.5" y="487.5" width="54" height="37" fill="black">
<rect fill="white" x="866.5" y="487.5" width="54" height="37"/>
<path d="M894.636 513.268C893.484 516.196 891.804 518.476 889.596 520.108C887.436 521.788 884.916 522.628 882.036 522.628C879.252 522.628 876.756 521.836 874.548 520.252C872.388 518.668 870.684 516.436 869.436 513.556C868.236 510.724 867.636 507.484 867.636 503.836C867.636 501.244 867.972 498.772 868.644 496.42C869.316 494.116 870.348 491.764 871.74 489.364H878.364V489.652C876.684 492.1 875.436 494.452 874.62 496.708C873.852 499.012 873.468 501.364 873.468 503.764C873.468 507.412 874.308 510.364 875.988 512.62C877.668 514.876 879.852 516.004 882.54 516.004C885.372 516.004 887.604 514.732 889.236 512.188C890.916 509.692 891.756 506.308 891.756 502.036V498.868H897.444V502.036C897.444 506.164 898.14 509.356 899.532 511.612C900.972 513.868 902.964 514.996 905.508 514.996C908.004 514.996 909.972 513.988 911.412 511.972C912.852 510.004 913.572 507.316 913.572 503.908C913.572 501.844 913.26 499.804 912.636 497.788C912.06 495.82 911.076 493.612 909.684 491.164V490.876H915.948C918.3 495.148 919.476 499.636 919.476 504.34C919.476 507.748 918.924 510.748 917.82 513.34C916.764 515.932 915.252 517.924 913.284 519.316C911.316 520.756 909.036 521.476 906.444 521.476C903.804 521.476 901.452 520.732 899.388 519.244C897.324 517.804 895.74 515.812 894.636 513.268Z"/>
</mask>
<path d="M894.636 513.268C893.484 516.196 891.804 518.476 889.596 520.108C887.436 521.788 884.916 522.628 882.036 522.628C879.252 522.628 876.756 521.836 874.548 520.252C872.388 518.668 870.684 516.436 869.436 513.556C868.236 510.724 867.636 507.484 867.636 503.836C867.636 501.244 867.972 498.772 868.644 496.42C869.316 494.116 870.348 491.764 871.74 489.364H878.364V489.652C876.684 492.1 875.436 494.452 874.62 496.708C873.852 499.012 873.468 501.364 873.468 503.764C873.468 507.412 874.308 510.364 875.988 512.62C877.668 514.876 879.852 516.004 882.54 516.004C885.372 516.004 887.604 514.732 889.236 512.188C890.916 509.692 891.756 506.308 891.756 502.036V498.868H897.444V502.036C897.444 506.164 898.14 509.356 899.532 511.612C900.972 513.868 902.964 514.996 905.508 514.996C908.004 514.996 909.972 513.988 911.412 511.972C912.852 510.004 913.572 507.316 913.572 503.908C913.572 501.844 913.26 499.804 912.636 497.788C912.06 495.82 911.076 493.612 909.684 491.164V490.876H915.948C918.3 495.148 919.476 499.636 919.476 504.34C919.476 507.748 918.924 510.748 917.82 513.34C916.764 515.932 915.252 517.924 913.284 519.316C911.316 520.756 909.036 521.476 906.444 521.476C903.804 521.476 901.452 520.732 899.388 519.244C897.324 517.804 895.74 515.812 894.636 513.268Z" fill="black"/>
<path d="M894.636 513.268L895.553 512.87L894.591 510.652L893.705 512.902L894.636 513.268ZM889.596 520.108L889.002 519.304L888.992 519.311L888.982 519.318L889.596 520.108ZM874.548 520.252L873.957 521.058L873.965 521.064L874.548 520.252ZM869.436 513.556L868.515 513.946L868.518 513.953L869.436 513.556ZM868.644 496.42L867.684 496.14L867.682 496.145L868.644 496.42ZM871.74 489.364V488.364H871.164L870.875 488.862L871.74 489.364ZM878.364 489.364H879.364V488.364H878.364V489.364ZM878.364 489.652L879.189 490.218L879.364 489.962V489.652H878.364ZM874.62 496.708L873.68 496.368L873.675 496.38L873.671 496.392L874.62 496.708ZM875.988 512.62L876.79 512.023L876.79 512.023L875.988 512.62ZM889.236 512.188L888.406 511.629L888.4 511.639L888.394 511.648L889.236 512.188ZM891.756 498.868V497.868H890.756V498.868H891.756ZM897.444 498.868H898.444V497.868H897.444V498.868ZM899.532 511.612L898.681 512.137L898.685 512.143L898.689 512.15L899.532 511.612ZM911.412 511.972L910.605 511.381L910.598 511.391L911.412 511.972ZM912.636 497.788L911.676 498.069L911.678 498.076L911.681 498.083L912.636 497.788ZM909.684 491.164H908.684V491.428L908.815 491.658L909.684 491.164ZM909.684 490.876V489.876H908.684V490.876H909.684ZM915.948 490.876L916.824 490.393L916.539 489.876H915.948V490.876ZM917.82 513.34L916.9 512.948L916.897 512.955L916.894 512.962L917.82 513.34ZM913.284 519.316L912.707 518.499L912.7 518.504L912.693 518.509L913.284 519.316ZM899.388 519.244L899.973 518.433L899.967 518.428L899.96 518.424L899.388 519.244ZM894.636 513.268L893.705 512.902C892.612 515.681 891.038 517.799 889.002 519.304L889.596 520.108L890.19 520.912C892.57 519.153 894.356 516.711 895.567 513.634L894.636 513.268ZM889.596 520.108L888.982 519.318C887.007 520.854 884.706 521.628 882.036 521.628V522.628V523.628C885.126 523.628 887.865 522.721 890.21 520.897L889.596 520.108ZM882.036 522.628V521.628C879.456 521.628 877.165 520.898 875.131 519.439L874.548 520.252L873.965 521.064C876.347 522.773 879.048 523.628 882.036 523.628V522.628ZM874.548 520.252L875.139 519.445C873.145 517.983 871.543 515.904 870.354 513.158L869.436 513.556L868.518 513.953C869.825 516.968 871.631 519.352 873.957 521.058L874.548 520.252ZM869.436 513.556L870.357 513.166C869.218 510.478 868.636 507.374 868.636 503.836H867.636H866.636C866.636 507.593 867.254 510.97 868.515 513.946L869.436 513.556ZM867.636 503.836H868.636C868.636 501.331 868.961 498.952 869.606 496.695L868.644 496.42L867.682 496.145C866.983 498.592 866.636 501.156 866.636 503.836H867.636ZM868.644 496.42L869.604 496.7C870.25 494.484 871.247 492.206 872.605 489.865L871.74 489.364L870.875 488.862C869.449 491.321 868.382 493.747 867.684 496.14L868.644 496.42ZM871.74 489.364V490.364H878.364V489.364V488.364H871.74V489.364ZM878.364 489.364H877.364V489.652H878.364H879.364V489.364H878.364ZM878.364 489.652L877.539 489.086C875.822 491.588 874.53 494.016 873.68 496.368L874.62 496.708L875.56 497.048C876.342 494.888 877.546 492.611 879.189 490.218L878.364 489.652ZM874.62 496.708L873.671 496.392C872.87 498.796 872.468 501.255 872.468 503.764H873.468H874.468C874.468 501.473 874.834 499.227 875.569 497.024L874.62 496.708ZM873.468 503.764H872.468C872.468 507.563 873.344 510.743 875.186 513.217L875.988 512.62L876.79 512.023C875.272 509.984 874.468 507.261 874.468 503.764H873.468ZM875.988 512.62L875.186 513.217C877.044 515.713 879.519 517.004 882.54 517.004V516.004V515.004C880.185 515.004 878.292 514.039 876.79 512.023L875.988 512.62ZM882.54 516.004V517.004C885.739 517.004 888.277 515.535 890.078 512.728L889.236 512.188L888.394 511.648C886.931 513.928 885.005 515.004 882.54 515.004V516.004ZM889.236 512.188L890.066 512.746C891.894 510.029 892.756 506.427 892.756 502.036H891.756H890.756C890.756 506.189 889.938 509.354 888.406 511.629L889.236 512.188ZM891.756 502.036H892.756V498.868H891.756H890.756V502.036H891.756ZM891.756 498.868V499.868H897.444V498.868V497.868H891.756V498.868ZM897.444 498.868H896.444V502.036H897.444H898.444V498.868H897.444ZM897.444 502.036H896.444C896.444 506.254 897.152 509.658 898.681 512.137L899.532 511.612L900.383 511.087C899.128 509.053 898.444 506.073 898.444 502.036H897.444ZM899.532 511.612L898.689 512.15C900.301 514.676 902.602 515.996 905.508 515.996V514.996V513.996C903.326 513.996 901.643 513.06 900.375 511.074L899.532 511.612ZM905.508 514.996V515.996C908.324 515.996 910.596 514.834 912.226 512.553L911.412 511.972L910.598 511.391C909.348 513.141 907.684 513.996 905.508 513.996V514.996ZM911.412 511.972L912.219 512.562C913.826 510.367 914.572 507.446 914.572 503.908H913.572H912.572C912.572 507.186 911.878 509.641 910.605 511.381L911.412 511.972ZM913.572 503.908H914.572C914.572 501.741 914.244 499.602 913.591 497.492L912.636 497.788L911.681 498.083C912.276 500.006 912.572 501.946 912.572 503.908H913.572ZM912.636 497.788L913.596 497.507C912.992 495.443 911.97 493.162 910.553 490.669L909.684 491.164L908.815 491.658C910.182 494.062 911.128 496.197 911.676 498.069L912.636 497.788ZM909.684 491.164H910.684V490.876H909.684H908.684V491.164H909.684ZM909.684 490.876V491.876H915.948V490.876V489.876H909.684V490.876ZM915.948 490.876L915.072 491.358C917.346 495.488 918.476 499.811 918.476 504.34H919.476H920.476C920.476 499.461 919.254 494.808 916.824 490.393L915.948 490.876ZM919.476 504.34H918.476C918.476 507.641 917.941 510.503 916.9 512.948L917.82 513.34L918.74 513.732C919.907 510.993 920.476 507.855 920.476 504.34H919.476ZM917.82 513.34L916.894 512.962C915.898 515.407 914.495 517.234 912.707 518.499L913.284 519.316L913.861 520.132C916.009 518.613 917.63 516.457 918.746 513.717L917.82 513.34ZM913.284 519.316L912.693 518.509C910.908 519.815 908.838 520.476 906.444 520.476V521.476V522.476C909.234 522.476 911.724 521.696 913.875 520.123L913.284 519.316ZM906.444 521.476V520.476C904.006 520.476 901.86 519.793 899.973 518.433L899.388 519.244L898.803 520.055C901.044 521.671 903.602 522.476 906.444 522.476V521.476ZM899.388 519.244L899.96 518.424C898.063 517.1 896.591 515.262 895.553 512.87L894.636 513.268L893.719 513.666C894.889 516.362 896.585 518.507 898.816 520.064L899.388 519.244Z" fill="black" mask="url(#path-7-outside-4_397_1515)"/>
</g>
<g filter="url(#filter4_d_397_1515)">
<mask id="path-9-outside-5_397_1515" maskUnits="userSpaceOnUse" x="807.447" y="672.246" width="66.8993" height="62.8731" fill="black">
<rect fill="white" x="807.447" y="672.246" width="66.8993" height="62.8731"/>
<path d="M819.329 713.512L823.289 706.653L813.125 700.785L816.293 695.298L826.457 701.166L838.337 680.589L842.515 683.001L842.361 683.411L842.702 683.109L859.692 720.354L856.524 725.841L828.277 709.533L824.317 716.392L819.329 713.512ZM831.445 704.046L852.271 716.07L839.761 689.642L831.445 704.046Z"/>
</mask>
<path d="M819.329 713.512L823.289 706.653L813.125 700.785L816.293 695.298L826.457 701.166L838.337 680.589L842.515 683.001L842.361 683.411L842.702 683.109L859.692 720.354L856.524 725.841L828.277 709.533L824.317 716.392L819.329 713.512ZM831.445 704.046L852.271 716.07L839.761 689.642L831.445 704.046Z" fill="black"/>
<path d="M819.329 713.512L818.463 713.012L817.963 713.878L818.829 714.378L819.329 713.512ZM823.289 706.653L824.155 707.153L824.655 706.287L823.789 705.787L823.289 706.653ZM813.125 700.785L812.259 700.285L811.759 701.151L812.625 701.651L813.125 700.785ZM816.293 695.298L816.793 694.432L815.927 693.932L815.427 694.798L816.293 695.298ZM826.457 701.166L825.957 702.032L826.823 702.532L827.323 701.666L826.457 701.166ZM838.337 680.589L838.837 679.723L837.971 679.223L837.471 680.089L838.337 680.589ZM842.515 683.001L843.451 683.352L843.748 682.558L843.015 682.135L842.515 683.001ZM842.361 683.411L841.425 683.06L843.025 684.159L842.361 683.411ZM842.702 683.109L843.612 682.694L843.05 681.463L842.038 682.361L842.702 683.109ZM859.692 720.354L860.558 720.854L860.815 720.407L860.601 719.939L859.692 720.354ZM856.524 725.841L856.024 726.707L856.89 727.207L857.39 726.341L856.524 725.841ZM828.277 709.533L828.777 708.667L827.911 708.167L827.411 709.033L828.277 709.533ZM824.317 716.392L823.817 717.258L824.683 717.758L825.183 716.892L824.317 716.392ZM831.445 704.046L830.579 703.546L830.079 704.412L830.945 704.912L831.445 704.046ZM852.271 716.07L851.771 716.936L854.546 718.538L853.175 715.642L852.271 716.07ZM839.761 689.642L840.665 689.214L839.849 687.49L838.895 689.142L839.761 689.642ZM819.329 713.512L820.195 714.012L824.155 707.153L823.289 706.653L822.423 706.153L818.463 713.012L819.329 713.512ZM823.289 706.653L823.789 705.787L813.625 699.919L813.125 700.785L812.625 701.651L822.789 707.519L823.289 706.653ZM813.125 700.785L813.991 701.285L817.159 695.798L816.293 695.298L815.427 694.798L812.259 700.285L813.125 700.785ZM816.293 695.298L815.793 696.164L825.957 702.032L826.457 701.166L826.957 700.3L816.793 694.432L816.293 695.298ZM826.457 701.166L827.323 701.666L839.203 681.089L838.337 680.589L837.471 680.089L825.591 700.666L826.457 701.166ZM838.337 680.589L837.837 681.455L842.015 683.867L842.515 683.001L843.015 682.135L838.837 679.723L838.337 680.589ZM842.515 683.001L841.578 682.65L841.425 683.06L842.361 683.411L843.297 683.762L843.451 683.352L842.515 683.001ZM842.361 683.411L843.025 684.159L843.365 683.857L842.702 683.109L842.038 682.361L841.698 682.663L842.361 683.411ZM842.702 683.109L841.792 683.524L858.782 720.769L859.692 720.354L860.601 719.939L843.612 682.694L842.702 683.109ZM859.692 720.354L858.826 719.854L855.658 725.341L856.524 725.841L857.39 726.341L860.558 720.854L859.692 720.354ZM856.524 725.841L857.024 724.975L828.777 708.667L828.277 709.533L827.777 710.399L856.024 726.707L856.524 725.841ZM828.277 709.533L827.411 709.033L823.451 715.892L824.317 716.392L825.183 716.892L829.143 710.033L828.277 709.533ZM824.317 716.392L824.817 715.526L819.829 712.646L819.329 713.512L818.829 714.378L823.817 717.258L824.317 716.392ZM831.445 704.046L830.945 704.912L851.771 716.936L852.271 716.07L852.771 715.204L831.945 703.18L831.445 704.046ZM852.271 716.07L853.175 715.642L840.665 689.214L839.761 689.642L838.857 690.07L851.368 716.497L852.271 716.07ZM839.761 689.642L838.895 689.142L830.579 703.546L831.445 704.046L832.311 704.546L840.627 690.142L839.761 689.642Z" fill="black" mask="url(#path-9-outside-5_397_1515)"/>
</g>
<g filter="url(#filter5_d_397_1515)">
<mask id="path-11-outside-6_397_1515" maskUnits="userSpaceOnUse" x="666.979" y="814.581" width="59.0429" height="65.2654" fill="black">
<rect fill="white" x="666.979" y="814.581" width="59.0429" height="65.2654"/>
<path d="M698.738 853.386C696.161 854.874 693.506 855.603 690.773 855.574C688.04 855.544 685.488 854.773 683.118 853.259C680.73 851.811 678.78 849.778 677.268 847.159C675.66 844.374 674.888 841.549 674.953 838.685C675.042 835.863 675.935 833.185 677.632 830.653C679.329 828.121 681.737 825.955 684.855 824.155C687.266 822.763 689.806 821.74 692.477 821.085C695.171 820.472 697.784 820.293 700.315 820.55L703.735 826.474L703.486 826.618C700.942 826.147 698.242 826.126 695.386 826.556C692.488 827.009 689.959 827.86 687.797 829.108C684.846 830.812 682.915 833.035 682.004 835.778C681.117 838.562 681.466 841.326 683.05 844.07C684.538 846.647 686.582 848.266 689.18 848.928C691.761 849.654 694.362 849.262 696.98 847.75C700.015 845.998 702.247 843.24 703.677 839.477L703.927 839.333L708.952 838.676L709.132 838.988L719.348 863.02L696.714 876.088L693.762 870.975L712.031 860.427L705.948 846.147C704.01 849.317 701.606 851.73 698.738 853.386Z"/>
</mask>
<path d="M698.738 853.386C696.161 854.874 693.506 855.603 690.773 855.574C688.04 855.544 685.488 854.773 683.118 853.259C680.73 851.811 678.78 849.778 677.268 847.159C675.66 844.374 674.888 841.549 674.953 838.685C675.042 835.863 675.935 833.185 677.632 830.653C679.329 828.121 681.737 825.955 684.855 824.155C687.266 822.763 689.806 821.74 692.477 821.085C695.171 820.472 697.784 820.293 700.315 820.55L703.735 826.474L703.486 826.618C700.942 826.147 698.242 826.126 695.386 826.556C692.488 827.009 689.959 827.86 687.797 829.108C684.846 830.812 682.915 833.035 682.004 835.778C681.117 838.562 681.466 841.326 683.05 844.07C684.538 846.647 686.582 848.266 689.18 848.928C691.761 849.654 694.362 849.262 696.98 847.75C700.015 845.998 702.247 843.24 703.677 839.477L703.927 839.333L708.952 838.676L709.132 838.988L719.348 863.02L696.714 876.088L693.762 870.975L712.031 860.427L705.948 846.147C704.01 849.317 701.606 851.73 698.738 853.386Z" fill="black"/>
<path d="M690.773 855.574L690.762 856.574L690.762 856.574L690.773 855.574ZM683.118 853.259L683.656 852.416L683.646 852.41L683.636 852.404L683.118 853.259ZM674.953 838.685L673.953 838.654L673.953 838.662L674.953 838.685ZM677.632 830.653L678.463 831.21L677.632 830.653ZM692.477 821.085L692.255 820.11L692.247 820.112L692.239 820.114L692.477 821.085ZM700.315 820.55L701.181 820.05L700.926 819.607L700.416 819.555L700.315 820.55ZM703.735 826.474L704.235 827.34L705.101 826.84L704.601 825.974L703.735 826.474ZM703.486 826.618L703.304 827.601L703.667 827.668L703.986 827.484L703.486 826.618ZM695.386 826.556L695.237 825.567L695.231 825.568L695.386 826.556ZM682.004 835.778L681.055 835.463L681.051 835.474L682.004 835.778ZM689.18 848.928L689.451 847.965L689.439 847.962L689.427 847.958L689.18 848.928ZM703.677 839.477L703.177 838.611L702.869 838.789L702.742 839.122L703.677 839.477ZM703.927 839.333L703.797 838.341L703.599 838.367L703.427 838.467L703.927 839.333ZM708.952 838.676L709.818 838.176L709.484 837.598L708.822 837.685L708.952 838.676ZM709.132 838.988L710.052 838.597L710.028 838.541L709.998 838.488L709.132 838.988ZM719.348 863.02L719.848 863.886L720.615 863.443L720.268 862.628L719.348 863.02ZM696.714 876.088L695.848 876.588L696.348 877.454L697.214 876.954L696.714 876.088ZM693.762 870.975L693.262 870.109L692.396 870.609L692.896 871.475L693.762 870.975ZM712.031 860.427L712.531 861.293L713.298 860.85L712.951 860.035L712.031 860.427ZM705.948 846.147L706.868 845.755L706.108 843.969L705.095 845.625L705.948 846.147ZM698.738 853.386L698.238 852.52C695.802 853.927 693.321 854.601 690.784 854.574L690.773 855.574L690.762 856.574C693.69 856.605 696.52 855.821 699.238 854.252L698.738 853.386ZM690.773 855.574L690.784 854.574C688.243 854.546 685.874 853.832 683.656 852.416L683.118 853.259L682.58 854.102C685.103 855.713 687.836 856.542 690.762 856.574L690.773 855.574ZM683.118 853.259L683.636 852.404C681.404 851.05 679.569 849.144 678.134 846.659L677.268 847.159L676.402 847.659C677.991 850.411 680.056 852.572 682.599 854.114L683.118 853.259ZM677.268 847.159L678.134 846.659C676.606 844.012 675.893 841.367 675.953 838.708L674.953 838.685L673.953 838.662C673.884 841.731 674.714 844.735 676.402 847.659L677.268 847.159ZM674.953 838.685L675.952 838.716C676.035 836.096 676.861 833.599 678.463 831.21L677.632 830.653L676.801 830.097C675.008 832.771 674.048 835.629 673.953 838.654L674.953 838.685ZM677.632 830.653L678.463 831.21C680.061 828.826 682.346 826.759 685.355 825.021L684.855 824.155L684.355 823.289C681.128 825.152 678.598 827.417 676.801 830.097L677.632 830.653ZM684.855 824.155L685.355 825.021C687.685 823.676 690.138 822.688 692.715 822.056L692.477 821.085L692.239 820.114C689.475 820.792 686.847 821.851 684.355 823.289L684.855 824.155ZM692.477 821.085L692.699 822.06C695.296 821.469 697.8 821.3 700.215 821.545L700.315 820.55L700.416 819.555C697.768 819.287 695.046 819.475 692.255 820.11L692.477 821.085ZM700.315 820.55L699.449 821.05L702.869 826.974L703.735 826.474L704.601 825.974L701.181 820.05L700.315 820.55ZM703.735 826.474L703.235 825.608L702.986 825.752L703.486 826.618L703.986 827.484L704.235 827.34L703.735 826.474ZM703.486 826.618L703.668 825.634C701.003 825.141 698.19 825.123 695.237 825.567L695.386 826.556L695.534 827.544C698.293 827.13 700.881 827.152 703.304 827.601L703.486 826.618ZM695.386 826.556L695.231 825.568C692.233 826.037 689.582 826.922 687.297 828.242L687.797 829.108L688.297 829.974C690.335 828.797 692.744 827.981 695.54 827.544L695.386 826.556ZM687.797 829.108L687.297 828.242C684.174 830.045 682.056 832.447 681.055 835.463L682.004 835.778L682.953 836.093C683.773 833.623 685.518 831.579 688.297 829.974L687.797 829.108ZM682.004 835.778L681.051 835.474C680.071 838.551 680.473 841.606 682.184 844.57L683.05 844.07L683.916 843.57C682.46 841.047 682.163 838.573 682.957 836.081L682.004 835.778ZM683.05 844.07L682.184 844.57C683.791 847.352 686.044 849.161 688.934 849.897L689.18 848.928L689.427 847.958C687.119 847.371 685.286 845.942 683.916 843.57L683.05 844.07ZM689.18 848.928L688.909 849.89C691.784 850.7 694.661 850.244 697.48 848.616L696.98 847.75L696.48 846.884C694.062 848.28 691.739 848.609 689.451 847.965L689.18 848.928ZM696.98 847.75L697.48 848.616C700.744 846.732 703.113 843.777 704.612 839.832L703.677 839.477L702.742 839.122C701.381 842.703 699.286 845.264 696.48 846.884L696.98 847.75ZM703.677 839.477L704.177 840.343L704.427 840.199L703.927 839.333L703.427 838.467L703.177 838.611L703.677 839.477ZM703.927 839.333L704.056 840.324L709.081 839.668L708.952 838.676L708.822 837.685L703.797 838.341L703.927 839.333ZM708.952 838.676L708.086 839.176L708.266 839.488L709.132 838.988L709.998 838.488L709.818 838.176L708.952 838.676ZM709.132 838.988L708.211 839.379L718.428 863.411L719.348 863.02L720.268 862.628L710.052 838.597L709.132 838.988ZM719.348 863.02L718.848 862.154L696.214 875.222L696.714 876.088L697.214 876.954L719.848 863.886L719.348 863.02ZM696.714 876.088L697.58 875.588L694.628 870.475L693.762 870.975L692.896 871.475L695.848 876.588L696.714 876.088ZM693.762 870.975L694.262 871.841L712.531 861.293L712.031 860.427L711.531 859.561L693.262 870.109L693.762 870.975ZM712.031 860.427L712.951 860.035L706.868 845.755L705.948 846.147L705.028 846.539L711.111 860.818L712.031 860.427ZM705.948 846.147L705.095 845.625C703.233 848.67 700.945 850.957 698.238 852.52L698.738 853.386L699.238 854.252C702.268 852.503 704.787 849.963 706.802 846.669L705.948 846.147Z" fill="black" mask="url(#path-11-outside-6_397_1515)"/>
</g>
<g filter="url(#filter6_d_397_1515)">
<mask id="path-13-outside-7_397_1515" maskUnits="userSpaceOnUse" x="480" y="873" width="39" height="54" fill="black">
<rect fill="white" x="480" y="873" width="39" height="54"/>
<path d="M497.992 905.888C494.68 905.888 491.776 905.24 489.28 903.944C486.736 902.696 484.768 900.92 483.376 898.616C481.984 896.312 481.288 893.648 481.288 890.624C481.288 887.408 482.056 884.552 483.592 882.056C485.08 879.56 487.168 877.616 489.856 876.224C492.544 874.832 495.592 874.136 499 874.136C504.952 874.136 509.56 876.296 512.824 880.616C516.088 884.936 517.72 890.984 517.72 898.76C517.72 904.376 516.88 909.224 515.2 913.304C513.52 917.384 511.096 920.504 507.928 922.664C504.76 924.872 501.04 925.976 496.768 925.976C494.464 925.976 492.208 925.664 490 925.04C487.744 924.416 485.632 923.528 483.664 922.376V916.04H483.952C485.92 917.432 487.96 918.488 490.072 919.208C492.184 919.928 494.272 920.288 496.336 920.288C500.704 920.288 504.136 918.632 506.632 915.32C509.128 912.008 510.52 907.28 510.808 901.136C508.84 902.768 506.848 903.968 504.832 904.736C502.768 905.504 500.488 905.888 497.992 905.888ZM499.144 879.824C497.08 879.824 495.208 880.28 493.528 881.192C491.8 882.104 490.456 883.376 489.496 885.008C488.536 886.64 488.056 888.464 488.056 890.48C488.056 893.408 489.04 895.736 491.008 897.464C492.928 899.24 495.472 900.128 498.64 900.128C502.576 900.128 506.632 898.664 510.808 895.736C510.472 890.552 509.32 886.592 507.352 883.856C505.384 881.168 502.648 879.824 499.144 879.824Z"/>
</mask>
<path d="M497.992 905.888C494.68 905.888 491.776 905.24 489.28 903.944C486.736 902.696 484.768 900.92 483.376 898.616C481.984 896.312 481.288 893.648 481.288 890.624C481.288 887.408 482.056 884.552 483.592 882.056C485.08 879.56 487.168 877.616 489.856 876.224C492.544 874.832 495.592 874.136 499 874.136C504.952 874.136 509.56 876.296 512.824 880.616C516.088 884.936 517.72 890.984 517.72 898.76C517.72 904.376 516.88 909.224 515.2 913.304C513.52 917.384 511.096 920.504 507.928 922.664C504.76 924.872 501.04 925.976 496.768 925.976C494.464 925.976 492.208 925.664 490 925.04C487.744 924.416 485.632 923.528 483.664 922.376V916.04H483.952C485.92 917.432 487.96 918.488 490.072 919.208C492.184 919.928 494.272 920.288 496.336 920.288C500.704 920.288 504.136 918.632 506.632 915.32C509.128 912.008 510.52 907.28 510.808 901.136C508.84 902.768 506.848 903.968 504.832 904.736C502.768 905.504 500.488 905.888 497.992 905.888ZM499.144 879.824C497.08 879.824 495.208 880.28 493.528 881.192C491.8 882.104 490.456 883.376 489.496 885.008C488.536 886.64 488.056 888.464 488.056 890.48C488.056 893.408 489.04 895.736 491.008 897.464C492.928 899.24 495.472 900.128 498.64 900.128C502.576 900.128 506.632 898.664 510.808 895.736C510.472 890.552 509.32 886.592 507.352 883.856C505.384 881.168 502.648 879.824 499.144 879.824Z" fill="black"/>
<path d="M489.28 903.944L489.741 903.057L489.731 903.051L489.721 903.046L489.28 903.944ZM483.376 898.616L482.52 899.133L482.52 899.133L483.376 898.616ZM483.592 882.056L484.444 882.58L484.451 882.568L483.592 882.056ZM489.856 876.224L489.396 875.336L489.396 875.336L489.856 876.224ZM512.824 880.616L513.622 880.013L513.622 880.013L512.824 880.616ZM515.2 913.304L514.276 912.923L514.276 912.923L515.2 913.304ZM507.928 922.664L507.365 921.838L507.356 921.844L507.928 922.664ZM490 925.04L490.272 924.078L490.267 924.076L490 925.04ZM483.664 922.376H482.664V922.949L483.159 923.239L483.664 922.376ZM483.664 916.04V915.04H482.664V916.04H483.664ZM483.952 916.04L484.53 915.224L484.27 915.04H483.952V916.04ZM506.632 915.32L505.834 914.718L505.834 914.718L506.632 915.32ZM510.808 901.136L511.807 901.183L511.913 898.921L510.17 900.366L510.808 901.136ZM504.832 904.736L505.181 905.673L505.188 905.67L504.832 904.736ZM493.528 881.192L493.995 882.076L494.005 882.071L493.528 881.192ZM489.496 885.008L488.634 884.501L488.634 884.501L489.496 885.008ZM491.008 897.464L491.687 896.73L491.678 896.721L491.668 896.713L491.008 897.464ZM510.808 895.736L511.382 896.555L511.842 896.232L511.806 895.671L510.808 895.736ZM507.352 883.856L508.164 883.272L508.159 883.265L507.352 883.856ZM497.992 905.888V904.888C494.812 904.888 492.071 904.267 489.741 903.057L489.28 903.944L488.819 904.831C491.481 906.213 494.548 906.888 497.992 906.888V905.888ZM489.28 903.944L489.721 903.046C487.339 901.878 485.52 900.23 484.232 898.099L483.376 898.616L482.52 899.133C484.017 901.61 486.133 903.514 488.84 904.842L489.28 903.944ZM483.376 898.616L484.232 898.099C482.946 895.97 482.288 893.489 482.288 890.624H481.288H480.288C480.288 893.807 481.023 896.654 482.52 899.133L483.376 898.616ZM481.288 890.624H482.288C482.288 887.574 483.014 884.903 484.444 882.58L483.592 882.056L482.741 881.532C481.098 884.201 480.288 887.242 480.288 890.624H481.288ZM483.592 882.056L484.451 882.568C485.84 880.239 487.786 878.422 490.316 877.112L489.856 876.224L489.396 875.336C486.55 876.81 484.321 878.881 482.733 881.544L483.592 882.056ZM489.856 876.224L490.316 877.112C492.845 875.802 495.732 875.136 499 875.136V874.136V873.136C495.453 873.136 492.244 873.862 489.396 875.336L489.856 876.224ZM499 874.136V875.136C504.675 875.136 508.972 877.176 512.026 881.219L512.824 880.616L513.622 880.013C510.148 875.416 505.23 873.136 499 873.136V874.136ZM512.824 880.616L512.026 881.219C515.113 885.304 516.72 891.11 516.72 898.76H517.72H518.72C518.72 890.858 517.064 884.568 513.622 880.013L512.824 880.616ZM517.72 898.76H516.72C516.72 904.28 515.894 908.992 514.276 912.923L515.2 913.304L516.125 913.685C517.866 909.456 518.72 904.472 518.72 898.76H517.72ZM515.2 913.304L514.276 912.923C512.658 916.851 510.348 919.804 507.365 921.838L507.928 922.664L508.492 923.49C511.844 921.204 514.382 917.917 516.125 913.685L515.2 913.304ZM507.928 922.664L507.356 921.844C504.374 923.922 500.858 924.976 496.768 924.976V925.976V926.976C501.222 926.976 505.147 925.822 508.5 923.484L507.928 922.664ZM496.768 925.976V924.976C494.556 924.976 492.391 924.677 490.272 924.078L490 925.04L489.728 926.002C492.025 926.651 494.373 926.976 496.768 926.976V925.976ZM490 925.04L490.267 924.076C488.092 923.475 486.061 922.62 484.169 921.513L483.664 922.376L483.159 923.239C485.204 924.436 487.396 925.357 489.734 926.004L490 925.04ZM483.664 922.376H484.664V916.04H483.664H482.664V922.376H483.664ZM483.664 916.04V917.04H483.952V916.04V915.04H483.664V916.04ZM483.952 916.04L483.375 916.856C485.415 918.299 487.54 919.401 489.75 920.155L490.072 919.208L490.395 918.261C488.381 917.575 486.426 916.565 484.53 915.224L483.952 916.04ZM490.072 919.208L489.75 920.155C491.957 920.907 494.154 921.288 496.336 921.288V920.288V919.288C494.391 919.288 492.411 918.949 490.395 918.261L490.072 919.208ZM496.336 920.288V921.288C500.999 921.288 504.734 919.5 507.431 915.922L506.632 915.32L505.834 914.718C503.538 917.764 500.41 919.288 496.336 919.288V920.288ZM506.632 915.32L507.431 915.922C510.093 912.389 511.514 907.436 511.807 901.183L510.808 901.136L509.809 901.089C509.526 907.124 508.163 911.627 505.834 914.718L506.632 915.32ZM510.808 901.136L510.17 900.366C508.271 901.941 506.373 903.079 504.476 903.802L504.832 904.736L505.188 905.67C507.324 904.857 509.409 903.595 511.447 901.906L510.808 901.136ZM504.832 904.736L504.483 903.799C502.545 904.52 500.385 904.888 497.992 904.888V905.888V906.888C500.592 906.888 502.992 906.488 505.181 905.673L504.832 904.736ZM499.144 879.824V878.824C496.927 878.824 494.889 879.315 493.051 880.313L493.528 881.192L494.005 882.071C495.527 881.245 497.233 880.824 499.144 880.824V879.824ZM493.528 881.192L493.061 880.308C491.175 881.303 489.692 882.704 488.634 884.501L489.496 885.008L490.358 885.515C491.221 884.048 492.426 882.905 493.995 882.076L493.528 881.192ZM489.496 885.008L488.634 884.501C487.578 886.297 487.056 888.298 487.056 890.48H488.056H489.056C489.056 888.63 489.494 886.983 490.358 885.515L489.496 885.008ZM488.056 890.48H487.056C487.056 893.658 488.137 896.274 490.348 898.215L491.008 897.464L491.668 896.713C489.943 895.198 489.056 893.158 489.056 890.48H488.056ZM491.008 897.464L490.329 898.198C492.471 900.18 495.277 901.128 498.64 901.128V900.128V899.128C495.668 899.128 493.385 898.3 491.687 896.73L491.008 897.464ZM498.64 900.128V901.128C502.835 901.128 507.088 899.566 511.382 896.555L510.808 895.736L510.234 894.917C506.177 897.762 502.318 899.128 498.64 899.128V900.128ZM510.808 895.736L511.806 895.671C511.464 890.394 510.286 886.222 508.164 883.272L507.352 883.856L506.54 884.44C508.355 886.962 509.48 890.71 509.81 895.801L510.808 895.736ZM507.352 883.856L508.159 883.265C505.992 880.305 502.948 878.824 499.144 878.824V879.824V880.824C502.349 880.824 504.777 882.031 506.545 884.447L507.352 883.856Z" fill="black" mask="url(#path-13-outside-7_397_1515)"/>
</g>
<g filter="url(#filter7_d_397_1515)">
<mask id="path-15-outside-8_397_1515" maskUnits="userSpaceOnUse" x="272.113" y="814.947" width="59.409" height="64.8993" fill="black">
<rect fill="white" x="272.113" y="814.947" width="59.409" height="64.8993"/>
<path d="M274.172 859.856L276.584 855.678L318.308 827.474L324.606 831.11L324.462 831.359L283.172 858.235L307.303 872.167L304.351 877.28L274.172 859.856Z"/>
</mask>
<path d="M274.172 859.856L276.584 855.678L318.308 827.474L324.606 831.11L324.462 831.359L283.172 858.235L307.303 872.167L304.351 877.28L274.172 859.856Z" fill="black"/>
<path d="M274.172 859.856L273.306 859.356L272.806 860.222L273.672 860.722L274.172 859.856ZM276.584 855.678L276.024 854.85L275.833 854.979L275.718 855.178L276.584 855.678ZM318.308 827.474L318.808 826.608L318.267 826.295L317.748 826.645L318.308 827.474ZM324.606 831.11L325.472 831.61L325.972 830.744L325.106 830.244L324.606 831.11ZM324.462 831.359L325.008 832.197L325.208 832.066L325.328 831.859L324.462 831.359ZM283.172 858.235L282.627 857.397L281.261 858.286L282.672 859.101L283.172 858.235ZM307.303 872.167L308.169 872.667L308.669 871.801L307.803 871.301L307.303 872.167ZM304.351 877.28L303.851 878.146L304.717 878.646L305.217 877.78L304.351 877.28ZM274.172 859.856L275.038 860.356L277.45 856.178L276.584 855.678L275.718 855.178L273.306 859.356L274.172 859.856ZM276.584 855.678L277.144 856.507L318.868 828.302L318.308 827.474L317.748 826.645L276.024 854.85L276.584 855.678ZM318.308 827.474L317.808 828.34L324.106 831.976L324.606 831.11L325.106 830.244L318.808 826.608L318.308 827.474ZM324.606 831.11L323.74 830.61L323.596 830.859L324.462 831.359L325.328 831.859L325.472 831.61L324.606 831.11ZM324.462 831.359L323.917 830.521L282.627 857.397L283.172 858.235L283.718 859.073L325.008 832.197L324.462 831.359ZM283.172 858.235L282.672 859.101L306.803 873.033L307.303 872.167L307.803 871.301L283.672 857.369L283.172 858.235ZM307.303 872.167L306.437 871.667L303.485 876.78L304.351 877.28L305.217 877.78L308.169 872.667L307.303 872.167ZM304.351 877.28L304.851 876.414L274.672 858.99L274.172 859.856L273.672 860.722L303.851 878.146L304.351 877.28Z" fill="black" mask="url(#path-15-outside-8_397_1515)"/>
</g>
<g filter="url(#filter8_d_397_1515)">
<mask id="path-17-outside-9_397_1515" maskUnits="userSpaceOnUse" x="125.153" y="672.613" width="66.2654" height="60.775" fill="black">
<rect fill="white" x="125.153" y="672.613" width="66.2654" height="60.775"/>
<path d="M180.651 690.009C182.403 693.044 183.434 696.079 183.746 699.114C184.057 702.149 183.652 704.904 182.532 707.38C181.346 709.838 179.548 711.763 177.137 713.155C174.684 714.571 172.139 715.154 169.5 714.904C166.862 714.654 164.556 713.685 162.584 711.997C163.023 714.293 162.664 716.551 161.507 718.771C160.308 721.015 158.566 722.797 156.279 724.117C153.91 725.485 151.459 726.04 148.928 725.784C146.397 725.527 144.005 724.552 141.753 722.86C139.435 721.149 137.448 718.86 135.792 715.992C134.136 713.123 133.159 710.279 132.861 707.458C132.497 704.62 132.837 702.04 133.88 699.72C134.923 697.399 136.63 695.555 138.999 694.187C141.244 692.891 143.638 692.285 146.18 692.369C148.657 692.435 150.825 693.262 152.684 694.849C152.154 692.107 152.485 689.56 153.677 687.209C154.804 684.84 156.552 682.972 158.921 681.604C161.374 680.188 163.952 679.614 166.656 679.882C169.336 680.108 171.913 681.115 174.386 682.902C176.834 684.647 178.923 687.016 180.651 690.009ZM154.961 704.841C153.257 701.89 151.314 699.964 149.131 699.062C146.906 698.185 144.65 698.407 142.364 699.727C140.078 701.047 138.779 702.877 138.468 705.218C138.157 707.56 138.865 710.227 140.593 713.22C142.321 716.213 144.277 718.16 146.46 719.061C148.643 719.962 150.878 719.753 153.164 718.433C155.45 717.113 156.77 715.27 157.123 712.905C157.41 710.522 156.689 707.834 154.961 704.841ZM175.859 692.942C173.987 689.7 171.882 687.589 169.544 686.612C167.164 685.658 164.727 685.901 162.233 687.341C159.697 688.805 158.248 690.806 157.884 693.344C157.52 695.881 158.262 698.751 160.11 701.952C161.958 705.153 164.072 707.23 166.452 708.184C168.832 709.138 171.289 708.883 173.825 707.419C176.319 705.979 177.76 704.01 178.148 701.514C178.47 699 177.707 696.143 175.859 692.942Z"/>
</mask>
<path d="M180.651 690.009C182.403 693.044 183.434 696.079 183.746 699.114C184.057 702.149 183.652 704.904 182.532 707.38C181.346 709.838 179.548 711.763 177.137 713.155C174.684 714.571 172.139 715.154 169.5 714.904C166.862 714.654 164.556 713.685 162.584 711.997C163.023 714.293 162.664 716.551 161.507 718.771C160.308 721.015 158.566 722.797 156.279 724.117C153.91 725.485 151.459 726.04 148.928 725.784C146.397 725.527 144.005 724.552 141.753 722.86C139.435 721.149 137.448 718.86 135.792 715.992C134.136 713.123 133.159 710.279 132.861 707.458C132.497 704.62 132.837 702.04 133.88 699.72C134.923 697.399 136.63 695.555 138.999 694.187C141.244 692.891 143.638 692.285 146.18 692.369C148.657 692.435 150.825 693.262 152.684 694.849C152.154 692.107 152.485 689.56 153.677 687.209C154.804 684.84 156.552 682.972 158.921 681.604C161.374 680.188 163.952 679.614 166.656 679.882C169.336 680.108 171.913 681.115 174.386 682.902C176.834 684.647 178.923 687.016 180.651 690.009ZM154.961 704.841C153.257 701.89 151.314 699.964 149.131 699.062C146.906 698.185 144.65 698.407 142.364 699.727C140.078 701.047 138.779 702.877 138.468 705.218C138.157 707.56 138.865 710.227 140.593 713.22C142.321 716.213 144.277 718.16 146.46 719.061C148.643 719.962 150.878 719.753 153.164 718.433C155.45 717.113 156.77 715.27 157.123 712.905C157.41 710.522 156.689 707.834 154.961 704.841ZM175.859 692.942C173.987 689.7 171.882 687.589 169.544 686.612C167.164 685.658 164.727 685.901 162.233 687.341C159.697 688.805 158.248 690.806 157.884 693.344C157.52 695.881 158.262 698.751 160.11 701.952C161.958 705.153 164.072 707.23 166.452 708.184C168.832 709.138 171.289 708.883 173.825 707.419C176.319 705.979 177.76 704.01 178.148 701.514C178.47 699 177.707 696.143 175.859 692.942Z" fill="black"/>
<path d="M183.746 699.114L184.74 699.012L184.74 699.012L183.746 699.114ZM182.532 707.38L183.433 707.814L183.438 707.803L183.443 707.792L182.532 707.38ZM169.5 714.904L169.406 715.899L169.406 715.899L169.5 714.904ZM162.584 711.997L163.234 711.237L161.066 709.381L161.602 712.184L162.584 711.997ZM161.507 718.771L162.389 719.242L162.394 719.233L161.507 718.771ZM148.928 725.784L149.029 724.789L149.029 724.789L148.928 725.784ZM141.753 722.86L142.353 722.06L142.346 722.055L141.753 722.86ZM132.861 707.458L133.855 707.353L133.854 707.342L133.853 707.331L132.861 707.458ZM133.88 699.72L132.968 699.31L132.968 699.31L133.88 699.72ZM146.18 692.369L146.147 693.368L146.154 693.368L146.18 692.369ZM152.684 694.849L152.035 695.61L154.208 697.466L153.666 694.659L152.684 694.849ZM153.677 687.209L154.569 687.661L154.575 687.65L154.58 687.639L153.677 687.209ZM166.656 679.882L166.558 680.877L166.565 680.878L166.572 680.878L166.656 679.882ZM174.386 682.902L173.8 683.712L173.805 683.716L174.386 682.902ZM149.131 699.062L149.512 698.138L149.505 698.135L149.497 698.132L149.131 699.062ZM138.468 705.218L139.459 705.35L139.459 705.35L138.468 705.218ZM146.46 719.061L146.842 718.137L146.842 718.137L146.46 719.061ZM157.123 712.905L158.112 713.052L158.114 713.039L158.115 713.025L157.123 712.905ZM169.544 686.612L169.93 685.689L169.923 685.686L169.916 685.683L169.544 686.612ZM157.884 693.344L156.894 693.202L156.894 693.202L157.884 693.344ZM166.452 708.184L166.08 709.112L166.08 709.112L166.452 708.184ZM178.148 701.514L179.136 701.668L179.138 701.654L179.14 701.641L178.148 701.514ZM180.651 690.009L179.785 690.509C181.477 693.44 182.456 696.34 182.751 699.216L183.746 699.114L184.74 699.012C184.413 695.817 183.329 692.648 181.517 689.509L180.651 690.009ZM183.746 699.114L182.751 699.216C183.046 702.097 182.66 704.672 181.621 706.968L182.532 707.38L183.443 707.792C184.645 705.136 185.067 702.2 184.74 699.012L183.746 699.114ZM182.532 707.38L181.632 706.945C180.535 709.219 178.878 710.995 176.637 712.289L177.137 713.155L177.637 714.021C180.218 712.531 182.158 710.457 183.433 707.814L182.532 707.38ZM177.137 713.155L176.637 712.289C174.351 713.609 172.012 714.138 169.595 713.908L169.5 714.904L169.406 715.899C172.266 716.171 175.018 715.534 177.637 714.021L177.137 713.155ZM169.5 714.904L169.595 713.908C167.157 713.677 165.046 712.788 163.234 711.237L162.584 711.997L161.934 712.756C164.066 714.581 166.567 715.63 169.406 715.899L169.5 714.904ZM162.584 711.997L161.602 712.184C161.995 714.243 161.681 716.273 160.62 718.308L161.507 718.771L162.394 719.233C163.647 716.828 164.05 714.342 163.566 711.809L162.584 711.997ZM161.507 718.771L160.625 718.3C159.517 720.372 157.91 722.02 155.779 723.251L156.279 724.117L156.779 724.983C159.221 723.573 161.099 721.657 162.389 719.242L161.507 718.771ZM156.279 724.117L155.779 723.251C153.577 724.522 151.335 725.023 149.029 724.789L148.928 725.784L148.827 726.779C151.583 727.058 154.243 726.447 156.779 724.983L156.279 724.117ZM148.928 725.784L149.029 724.789C146.698 724.552 144.476 723.655 142.353 722.06L141.753 722.86L141.152 723.659C143.534 725.449 146.095 726.502 148.827 726.779L148.928 725.784ZM141.753 722.86L142.346 722.055C140.155 720.438 138.256 718.259 136.658 715.492L135.792 715.992L134.926 716.492C136.641 719.461 138.715 721.861 141.159 723.664L141.753 722.86ZM135.792 715.992L136.658 715.492C135.061 712.724 134.136 710.013 133.855 707.353L132.861 707.458L131.866 707.563C132.181 710.545 133.212 713.522 134.926 716.492L135.792 715.992ZM132.861 707.458L133.853 707.331C133.509 704.652 133.833 702.262 134.792 700.13L133.88 699.72L132.968 699.31C131.84 701.819 131.484 704.587 131.869 707.585L132.861 707.458ZM133.88 699.72L134.792 700.13C135.743 698.015 137.297 696.324 139.499 695.053L138.999 694.187L138.499 693.321C135.963 694.785 134.104 696.783 132.968 699.31L133.88 699.72ZM138.999 694.187L139.499 695.053C141.586 693.848 143.795 693.29 146.147 693.368L146.18 692.369L146.213 691.369C143.48 691.279 140.903 691.933 138.499 693.321L138.999 694.187ZM146.18 692.369L146.154 693.368C148.405 693.429 150.353 694.173 152.035 695.61L152.684 694.849L153.333 694.089C151.298 692.351 148.91 691.441 146.207 691.369L146.18 692.369ZM152.684 694.849L153.666 694.659C153.175 692.121 153.483 689.802 154.569 687.661L153.677 687.209L152.785 686.757C151.486 689.318 151.133 692.093 151.702 695.039L152.684 694.849ZM153.677 687.209L154.58 687.639C155.616 685.461 157.219 683.742 159.421 682.47L158.921 681.604L158.421 680.738C155.884 682.203 153.991 684.22 152.774 686.78L153.677 687.209ZM158.921 681.604L159.421 682.47C161.701 681.154 164.071 680.631 166.558 680.877L166.656 679.882L166.755 678.887C163.833 678.597 161.047 679.222 158.421 680.738L158.921 681.604ZM166.656 679.882L166.572 680.878C169.048 681.087 171.454 682.017 173.8 683.712L174.386 682.902L174.971 682.091C172.372 680.212 169.625 679.129 166.74 678.885L166.656 679.882ZM174.386 682.902L173.805 683.716C176.121 685.367 178.118 687.622 179.785 690.509L180.651 690.009L181.517 689.509C179.728 686.411 177.548 683.927 174.966 682.087L174.386 682.902ZM154.961 704.841L155.827 704.341C154.06 701.281 151.972 699.154 149.512 698.138L149.131 699.062L148.749 699.987C150.655 700.774 152.454 702.499 154.095 705.341L154.961 704.841ZM149.131 699.062L149.497 698.132C146.957 697.13 144.383 697.406 141.864 698.861L142.364 699.727L142.864 700.593C144.918 699.407 146.855 699.24 148.764 699.993L149.131 699.062ZM142.364 699.727L141.864 698.861C139.345 700.315 137.834 702.399 137.477 705.087L138.468 705.218L139.459 705.35C139.724 703.356 140.81 701.778 142.864 700.593L142.364 699.727ZM138.468 705.218L137.477 705.087C137.126 707.727 137.938 710.621 139.727 713.72L140.593 713.22L141.459 712.72C139.793 709.833 139.188 707.392 139.459 705.35L138.468 705.218ZM140.593 713.22L139.727 713.72C141.516 716.818 143.616 718.969 146.078 719.985L146.46 719.061L146.842 718.137C144.938 717.351 143.126 715.607 141.459 712.72L140.593 713.22ZM146.46 719.061L146.078 719.985C148.585 721.02 151.145 720.753 153.664 719.299L153.164 718.433L152.664 717.567C150.61 718.752 148.701 718.904 146.842 718.137L146.46 719.061ZM153.164 718.433L153.664 719.299C156.183 717.844 157.709 715.753 158.112 713.052L157.123 712.905L156.133 712.757C155.831 714.787 154.718 716.381 152.664 717.567L153.164 718.433ZM157.123 712.905L158.115 713.025C158.437 710.351 157.617 707.442 155.827 704.341L154.961 704.841L154.095 705.341C155.761 708.227 156.382 710.694 156.13 712.785L157.123 712.905ZM175.859 692.942L176.725 692.442C174.794 689.097 172.546 686.783 169.93 685.689L169.544 686.612L169.158 687.534C171.218 688.396 173.181 690.303 174.993 693.442L175.859 692.942ZM169.544 686.612L169.916 685.683C167.214 684.6 164.456 684.903 161.733 686.475L162.233 687.341L162.733 688.207C164.999 686.899 167.115 686.715 169.172 687.54L169.544 686.612ZM162.233 687.341L161.733 686.475C158.974 688.067 157.308 690.314 156.894 693.202L157.884 693.344L158.874 693.485C159.187 691.297 160.42 689.542 162.733 688.207L162.233 687.341ZM157.884 693.344L156.894 693.202C156.487 696.041 157.332 699.14 159.244 702.452L160.11 701.952L160.976 701.452C159.192 698.362 158.553 695.722 158.874 693.485L157.884 693.344ZM160.11 701.952L159.244 702.452C161.156 705.763 163.418 708.045 166.08 709.112L166.452 708.184L166.824 707.256C164.726 706.415 162.76 704.542 160.976 701.452L160.11 701.952ZM166.452 708.184L166.08 709.112C168.787 710.197 171.566 709.877 174.325 708.285L173.825 707.419L173.325 706.553C171.012 707.888 168.876 708.078 166.824 707.256L166.452 708.184ZM173.825 707.419L174.325 708.285C177.04 706.717 178.695 704.507 179.136 701.668L178.148 701.514L177.16 701.361C176.825 703.514 175.598 705.24 173.325 706.553L173.825 707.419ZM178.148 701.514L179.14 701.641C179.5 698.831 178.635 695.749 176.725 692.442L175.859 692.942L174.993 693.442C176.78 696.537 177.44 699.17 177.156 701.387L178.148 701.514Z" fill="black" mask="url(#path-17-outside-9_397_1515)"/>
</g>
<g filter="url(#filter9_d_397_1515)">
<mask id="path-19-outside-10_397_1515" maskUnits="userSpaceOnUse" x="78.5" y="486.5" width="54" height="39" fill="black">
<rect fill="white" x="78.5" y="486.5" width="54" height="39"/>
<path d="M79.524 506.364C79.524 500.22 81.612 495.588 85.788 492.468C89.964 489.348 96.108 487.788 104.22 487.788C113.1 487.788 119.844 489.612 124.452 493.26C129.06 496.86 131.364 502.164 131.364 509.172C131.364 511.62 131.076 513.828 130.5 515.796C129.876 517.764 128.868 519.78 127.476 521.844H120.996V521.556C123.972 517.62 125.46 513.324 125.46 508.668C125.46 504.156 123.972 500.772 120.996 498.516C117.972 496.212 113.292 494.94 106.956 494.7C109.836 498.348 111.276 502.62 111.276 507.516C111.276 512.7 109.932 516.78 107.244 519.756C104.508 522.732 100.764 524.22 96.012 524.22C92.7 524.22 89.796 523.5 87.3 522.06C84.804 520.572 82.884 518.484 81.54 515.796C80.196 513.06 79.524 509.916 79.524 506.364ZM95.724 517.452C98.796 517.452 101.196 516.492 102.924 514.572C104.652 512.652 105.516 510.012 105.516 506.652C105.516 502.572 104.076 498.588 101.196 494.7C95.724 494.988 91.716 496.068 89.172 497.94C86.628 499.812 85.356 502.596 85.356 506.292C85.356 509.652 86.316 512.364 88.236 514.428C90.108 516.444 92.604 517.452 95.724 517.452Z"/>
</mask>
<path d="M79.524 506.364C79.524 500.22 81.612 495.588 85.788 492.468C89.964 489.348 96.108 487.788 104.22 487.788C113.1 487.788 119.844 489.612 124.452 493.26C129.06 496.86 131.364 502.164 131.364 509.172C131.364 511.62 131.076 513.828 130.5 515.796C129.876 517.764 128.868 519.78 127.476 521.844H120.996V521.556C123.972 517.62 125.46 513.324 125.46 508.668C125.46 504.156 123.972 500.772 120.996 498.516C117.972 496.212 113.292 494.94 106.956 494.7C109.836 498.348 111.276 502.62 111.276 507.516C111.276 512.7 109.932 516.78 107.244 519.756C104.508 522.732 100.764 524.22 96.012 524.22C92.7 524.22 89.796 523.5 87.3 522.06C84.804 520.572 82.884 518.484 81.54 515.796C80.196 513.06 79.524 509.916 79.524 506.364ZM95.724 517.452C98.796 517.452 101.196 516.492 102.924 514.572C104.652 512.652 105.516 510.012 105.516 506.652C105.516 502.572 104.076 498.588 101.196 494.7C95.724 494.988 91.716 496.068 89.172 497.94C86.628 499.812 85.356 502.596 85.356 506.292C85.356 509.652 86.316 512.364 88.236 514.428C90.108 516.444 92.604 517.452 95.724 517.452Z" fill="black"/>
<path d="M85.788 492.468L85.1895 491.667L85.1895 491.667L85.788 492.468ZM124.452 493.26L123.831 494.044L123.836 494.048L124.452 493.26ZM130.5 515.796L131.453 516.098L131.457 516.088L131.46 516.077L130.5 515.796ZM127.476 521.844V522.844H128.008L128.305 522.403L127.476 521.844ZM120.996 521.844H119.996V522.844H120.996V521.844ZM120.996 521.556L120.198 520.953L119.996 521.221V521.556H120.996ZM120.996 498.516L120.39 499.312L120.392 499.313L120.996 498.516ZM106.956 494.7L106.994 493.701L104.828 493.619L106.171 495.32L106.956 494.7ZM107.244 519.756L107.98 520.433L107.986 520.427L107.244 519.756ZM87.3 522.06L86.7879 522.919L86.7941 522.923L86.8003 522.926L87.3 522.06ZM81.54 515.796L80.6424 516.237L80.6456 516.243L81.54 515.796ZM102.924 514.572L102.181 513.903L102.181 513.903L102.924 514.572ZM101.196 494.7L102 494.105L101.68 493.673L101.143 493.702L101.196 494.7ZM89.172 497.94L89.7647 498.746L89.7647 498.746L89.172 497.94ZM88.236 514.428L88.9688 513.748L88.9682 513.747L88.236 514.428ZM79.524 506.364H80.524C80.524 500.472 82.5102 496.165 86.3865 493.269L85.788 492.468L85.1895 491.667C80.7138 495.011 78.524 499.969 78.524 506.364H79.524ZM85.788 492.468L86.3865 493.269C90.3173 490.333 96.2114 488.788 104.22 488.788V487.788V486.788C96.0046 486.788 89.6107 488.364 85.1895 491.667L85.788 492.468ZM104.22 487.788V488.788C112.985 488.788 119.47 490.592 123.831 494.044L124.452 493.26L125.073 492.476C120.218 488.633 113.215 486.788 104.22 486.788V487.788ZM124.452 493.26L123.836 494.048C128.153 497.42 130.364 502.404 130.364 509.172H131.364H132.364C132.364 501.925 129.967 496.3 125.068 492.472L124.452 493.26ZM131.364 509.172H130.364C130.364 511.543 130.085 513.654 129.54 515.515L130.5 515.796L131.46 516.077C132.067 514.002 132.364 511.697 132.364 509.172H131.364ZM130.5 515.796L129.547 515.494C128.957 517.354 127.996 519.285 126.647 521.285L127.476 521.844L128.305 522.403C129.74 520.276 130.795 518.174 131.453 516.098L130.5 515.796ZM127.476 521.844V520.844H120.996V521.844V522.844H127.476V521.844ZM120.996 521.844H121.996V521.556H120.996H119.996V521.844H120.996ZM120.996 521.556L121.794 522.159C124.893 518.061 126.46 513.555 126.46 508.668H125.46H124.46C124.46 513.093 123.051 517.18 120.198 520.953L120.996 521.556ZM125.46 508.668H126.46C126.46 503.916 124.878 500.204 121.6 497.719L120.996 498.516L120.392 499.313C123.066 501.34 124.46 504.396 124.46 508.668H125.46ZM120.996 498.516L121.602 497.721C118.337 495.233 113.412 493.944 106.994 493.701L106.956 494.7L106.918 495.7C113.172 495.936 117.607 497.191 120.39 499.312L120.996 498.516ZM106.956 494.7L106.171 495.32C108.904 498.782 110.276 502.832 110.276 507.516H111.276H112.276C112.276 502.408 110.768 497.915 107.741 494.081L106.956 494.7ZM111.276 507.516H110.276C110.276 512.527 108.98 516.342 106.502 519.086L107.244 519.756L107.986 520.427C110.884 517.218 112.276 512.873 112.276 507.516H111.276ZM107.244 519.756L106.508 519.079C103.995 521.813 100.538 523.22 96.012 523.22V524.22V525.22C100.99 525.22 105.021 523.651 107.98 520.433L107.244 519.756ZM96.012 524.22V523.22C92.8489 523.22 90.1223 522.534 87.7997 521.194L87.3 522.06L86.8003 522.926C89.4697 524.466 92.5511 525.22 96.012 525.22V524.22ZM87.3 522.06L87.8121 521.201C85.4861 519.815 83.696 517.872 82.4344 515.349L81.54 515.796L80.6456 516.243C82.072 519.096 84.1219 521.33 86.7879 522.919L87.3 522.06ZM81.54 515.796L82.4376 515.355C81.1712 512.777 80.524 509.789 80.524 506.364H79.524H78.524C78.524 510.044 79.2208 513.343 80.6424 516.237L81.54 515.796ZM95.724 517.452V518.452C99.0209 518.452 101.714 517.412 103.667 515.241L102.924 514.572L102.181 513.903C100.678 515.573 98.5711 516.452 95.724 516.452V517.452ZM102.924 514.572L103.667 515.241C105.605 513.088 106.516 510.183 106.516 506.652H105.516H104.516C104.516 509.841 103.699 512.217 102.181 513.903L102.924 514.572ZM105.516 506.652H106.516C106.516 502.32 104.983 498.132 102 494.105L101.196 494.7L100.392 495.295C103.169 499.044 104.516 502.824 104.516 506.652H105.516ZM101.196 494.7L101.143 493.702C95.6028 493.993 91.3585 495.09 88.5793 497.135L89.172 497.94L89.7647 498.746C92.0735 497.047 95.8452 495.983 101.249 495.699L101.196 494.7ZM89.172 497.94L88.5793 497.135C85.7334 499.229 84.356 502.34 84.356 506.292H85.356H86.356C86.356 502.853 87.5226 500.395 89.7647 498.746L89.172 497.94ZM85.356 506.292H84.356C84.356 509.853 85.3796 512.826 87.5038 515.109L88.236 514.428L88.9682 513.747C87.2524 511.903 86.356 509.451 86.356 506.292H85.356ZM88.236 514.428L87.5032 515.109C89.5907 517.357 92.367 518.452 95.724 518.452V517.452V516.452C92.841 516.452 90.6253 515.532 88.9688 513.748L88.236 514.428Z" fill="black" mask="url(#path-19-outside-10_397_1515)"/>
</g>
<g filter="url(#filter10_d_397_1515)">
<mask id="path-21-outside-11_397_1515" maskUnits="userSpaceOnUse" x="114.653" y="259.56" width="87.7654" height="98.0141" fill="black">
<rect fill="white" x="114.653" y="259.56" width="87.7654" height="98.0141"/>
<path d="M171.663 323.878L176.838 326.866L160.206 355.674L155.031 352.686L162.447 339.841L131.27 321.841L130.72 333.162L130.576 333.412L126.373 332.482L126.124 332.338L125.016 316.401L127.392 312.286L165.615 334.354L171.663 323.878ZM191.595 303.035C188.475 308.439 184.134 311.254 178.572 311.479C172.993 311.639 166.815 309.763 160.039 305.851C153.264 301.939 148.571 297.539 145.961 292.651C143.334 287.698 143.58 282.519 146.7 277.115C149.82 271.711 154.17 268.929 159.749 268.77C165.311 268.544 171.48 270.388 178.255 274.3C185.031 278.212 189.733 282.644 192.36 287.598C194.97 292.485 194.715 297.631 191.595 303.035ZM186.606 300.155C188.766 296.414 188.716 292.949 186.456 289.759C184.155 286.546 180.281 283.367 174.835 280.223C169.39 277.079 164.721 275.326 160.829 274.963C156.895 274.577 153.848 276.254 151.688 279.995C149.528 283.737 149.599 287.214 151.901 290.427C154.161 293.617 158.014 296.783 163.459 299.927C168.905 303.071 173.595 304.837 177.528 305.223C181.42 305.586 184.446 303.897 186.606 300.155Z"/>
</mask>
<path d="M171.663 323.878L176.838 326.866L160.206 355.674L155.031 352.686L162.447 339.841L131.27 321.841L130.72 333.162L130.576 333.412L126.373 332.482L126.124 332.338L125.016 316.401L127.392 312.286L165.615 334.354L171.663 323.878ZM191.595 303.035C188.475 308.439 184.134 311.254 178.572 311.479C172.993 311.639 166.815 309.763 160.039 305.851C153.264 301.939 148.571 297.539 145.961 292.651C143.334 287.698 143.58 282.519 146.7 277.115C149.82 271.711 154.17 268.929 159.749 268.77C165.311 268.544 171.48 270.388 178.255 274.3C185.031 278.212 189.733 282.644 192.36 287.598C194.97 292.485 194.715 297.631 191.595 303.035ZM186.606 300.155C188.766 296.414 188.716 292.949 186.456 289.759C184.155 286.546 180.281 283.367 174.835 280.223C169.39 277.079 164.721 275.326 160.829 274.963C156.895 274.577 153.848 276.254 151.688 279.995C149.528 283.737 149.599 287.214 151.901 290.427C154.161 293.617 158.014 296.783 163.459 299.927C168.905 303.071 173.595 304.837 177.528 305.223C181.42 305.586 184.446 303.897 186.606 300.155Z" fill="black"/>
<path d="M171.663 323.878L172.163 323.012L171.297 322.512L170.797 323.378L171.663 323.878ZM176.838 326.866L177.704 327.366L178.204 326.5L177.338 326L176.838 326.866ZM160.206 355.674L159.706 356.54L160.572 357.04L161.072 356.174L160.206 355.674ZM155.031 352.686L154.165 352.186L153.665 353.052L154.531 353.552L155.031 352.686ZM162.447 339.841L163.313 340.341L163.813 339.475L162.947 338.975L162.447 339.841ZM131.27 321.841L131.77 320.975L130.351 320.155L130.271 321.792L131.27 321.841ZM130.72 333.162L131.586 333.662L131.707 333.453L131.718 333.211L130.72 333.162ZM130.576 333.412L130.36 334.388L131.075 334.547L131.442 333.912L130.576 333.412ZM126.373 332.482L125.873 333.348L126.007 333.425L126.157 333.459L126.373 332.482ZM126.124 332.338L125.126 332.408L125.163 332.938L125.624 333.204L126.124 332.338ZM125.016 316.401L124.15 315.901L123.997 316.166L124.018 316.47L125.016 316.401ZM127.392 312.286L127.892 311.42L127.026 310.92L126.526 311.786L127.392 312.286ZM165.615 334.354L165.115 335.22L165.981 335.72L166.481 334.854L165.615 334.354ZM171.663 323.878L171.163 324.744L176.338 327.732L176.838 326.866L177.338 326L172.163 323.012L171.663 323.878ZM176.838 326.866L175.972 326.366L159.34 355.174L160.206 355.674L161.072 356.174L177.704 327.366L176.838 326.866ZM160.206 355.674L160.706 354.808L155.531 351.82L155.031 352.686L154.531 353.552L159.706 356.54L160.206 355.674ZM155.031 352.686L155.897 353.186L163.313 340.341L162.447 339.841L161.581 339.341L154.165 352.186L155.031 352.686ZM162.447 339.841L162.947 338.975L131.77 320.975L131.27 321.841L130.77 322.707L161.947 340.707L162.447 339.841ZM131.27 321.841L130.271 321.792L129.721 333.114L130.72 333.162L131.718 333.211L132.269 321.889L131.27 321.841ZM130.72 333.162L129.853 332.662L129.709 332.912L130.576 333.412L131.442 333.912L131.586 333.662L130.72 333.162ZM130.576 333.412L130.792 332.435L126.589 331.506L126.373 332.482L126.157 333.459L130.36 334.388L130.576 333.412ZM126.373 332.482L126.873 331.616L126.624 331.472L126.124 332.338L125.624 333.204L125.873 333.348L126.373 332.482ZM126.124 332.338L127.122 332.269L126.014 316.332L125.016 316.401L124.018 316.47L125.126 332.408L126.124 332.338ZM125.016 316.401L125.882 316.901L128.258 312.786L127.392 312.286L126.526 311.786L124.15 315.901L125.016 316.401ZM127.392 312.286L126.892 313.152L165.115 335.22L165.615 334.354L166.115 333.488L127.892 311.42L127.392 312.286ZM165.615 334.354L166.481 334.854L172.529 324.378L171.663 323.878L170.797 323.378L164.749 333.854L165.615 334.354ZM178.572 311.479L178.601 312.479L178.613 312.478L178.572 311.479ZM145.961 292.651L145.078 293.12L145.079 293.122L145.961 292.651ZM159.749 268.77L159.778 269.769L159.79 269.769L159.749 268.77ZM192.36 287.598L191.477 288.066L191.478 288.069L192.36 287.598ZM186.456 289.759L187.272 289.181L187.269 289.177L186.456 289.759ZM160.829 274.963L160.731 275.959L160.736 275.959L160.829 274.963ZM151.901 290.427L152.717 289.849L152.714 289.845L151.901 290.427ZM177.528 305.223L177.43 306.218L177.436 306.219L177.528 305.223ZM191.595 303.035L190.729 302.535C187.756 307.685 183.704 310.271 178.532 310.48L178.572 311.479L178.613 312.478C184.563 312.237 189.194 309.194 192.461 303.535L191.595 303.035ZM178.572 311.479L178.543 310.48C173.209 310.632 167.216 308.84 160.539 304.985L160.039 305.851L159.539 306.717C166.414 310.686 172.776 312.646 178.601 312.479L178.572 311.479ZM160.039 305.851L160.539 304.985C153.862 301.13 149.336 296.849 146.843 292.18L145.961 292.651L145.079 293.122C147.806 298.229 152.665 302.748 159.539 306.717L160.039 305.851ZM145.961 292.651L146.844 292.183C144.399 287.572 144.595 282.761 147.566 277.615L146.7 277.115L145.834 276.615C142.565 282.278 142.268 287.824 145.078 293.12L145.961 292.651ZM146.7 277.115L147.566 277.615C150.537 272.47 154.591 269.918 159.778 269.769L159.749 268.77L159.72 267.77C153.748 267.941 149.103 270.953 145.834 276.615L146.7 277.115ZM159.749 268.77L159.79 269.769C165.1 269.554 171.08 271.312 177.755 275.166L178.255 274.3L178.755 273.434C171.879 269.464 165.521 267.535 159.709 267.771L159.749 268.77ZM178.255 274.3L177.755 275.166C184.43 279.02 188.966 283.332 191.477 288.066L192.36 287.598L193.244 287.129C190.5 281.957 185.632 277.404 178.755 273.434L178.255 274.3ZM192.36 287.598L191.478 288.069C193.902 292.609 193.702 297.386 190.729 302.535L191.595 303.035L192.461 303.535C195.728 297.877 196.038 292.362 193.242 287.127L192.36 287.598ZM186.606 300.155L187.473 300.655C188.621 298.667 189.217 296.689 189.189 294.736C189.161 292.776 188.504 290.919 187.272 289.181L186.456 289.759L185.64 290.338C186.669 291.789 187.167 293.26 187.189 294.765C187.211 296.278 186.752 297.903 185.74 299.655L186.606 300.155ZM186.456 289.759L187.269 289.177C184.85 285.8 180.84 282.535 175.335 279.357L174.835 280.223L174.335 281.089C179.722 284.2 183.459 287.293 185.643 290.342L186.456 289.759ZM174.835 280.223L175.335 279.357C169.832 276.18 165.018 274.349 160.922 273.968L160.829 274.963L160.736 275.959C164.424 276.303 168.947 277.979 174.335 281.089L174.835 280.223ZM160.829 274.963L160.927 273.968C158.787 273.758 156.835 274.106 155.111 275.055C153.393 276.001 151.972 277.505 150.822 279.495L151.688 279.995L152.554 280.495C153.565 278.745 154.747 277.539 156.076 276.807C157.399 276.079 158.937 275.782 160.731 275.959L160.829 274.963ZM151.688 279.995L150.822 279.495C149.673 281.486 149.082 283.469 149.122 285.43C149.162 287.397 149.836 289.262 151.088 291.01L151.901 290.427L152.714 289.845C151.664 288.379 151.152 286.899 151.121 285.389C151.09 283.872 151.544 282.246 152.554 280.495L151.688 279.995ZM151.901 290.427L151.085 291.005C153.464 294.362 157.456 297.616 162.959 300.793L163.459 299.927L163.959 299.061C158.571 295.95 154.858 292.871 152.717 289.849L151.901 290.427ZM163.459 299.927L162.959 300.793C168.464 303.971 173.296 305.812 177.43 306.218L177.528 305.223L177.626 304.228C173.893 303.861 169.346 302.171 163.959 299.061L163.459 299.927ZM177.528 305.223L177.436 306.219C179.556 306.417 181.493 306.057 183.204 305.101C184.909 304.15 186.324 302.644 187.473 300.655L186.606 300.155L185.74 299.655C184.729 301.408 183.55 302.618 182.229 303.355C180.915 304.089 179.393 304.393 177.621 304.228L177.528 305.223Z" fill="black" mask="url(#path-21-outside-11_397_1515)"/>
</g>
<g filter="url(#filter11_d_397_1515)">
<mask id="path-23-outside-12_397_1515" maskUnits="userSpaceOnUse" x="253.926" y="121.653" width="95.782" height="85.8993" fill="black">
<rect fill="white" x="253.926" y="121.653" width="95.782" height="85.8993"/>
<path d="M306.646 184.36L309.634 189.535L280.826 206.167L277.838 200.992L290.683 193.576L272.683 162.399L266.546 171.928L266.296 172.072L263.122 169.166L262.978 168.916L269.987 154.561L274.102 152.185L296.17 190.408L306.646 184.36ZM345.312 162.035L348.3 167.211L319.493 183.843L316.505 178.667L329.35 171.251L311.35 140.074L305.212 149.604L304.963 149.748L301.788 146.842L301.644 146.592L308.654 132.236L312.769 129.86L334.837 168.083L345.312 162.035Z"/>
</mask>
<path d="M306.646 184.36L309.634 189.535L280.826 206.167L277.838 200.992L290.683 193.576L272.683 162.399L266.546 171.928L266.296 172.072L263.122 169.166L262.978 168.916L269.987 154.561L274.102 152.185L296.17 190.408L306.646 184.36ZM345.312 162.035L348.3 167.211L319.493 183.843L316.505 178.667L329.35 171.251L311.35 140.074L305.212 149.604L304.963 149.748L301.788 146.842L301.644 146.592L308.654 132.236L312.769 129.86L334.837 168.083L345.312 162.035Z" fill="black"/>
<path d="M306.646 184.36L307.512 183.86L307.012 182.993L306.146 183.493L306.646 184.36ZM309.634 189.535L310.134 190.401L311 189.901L310.5 189.035L309.634 189.535ZM280.826 206.167L279.96 206.667L280.46 207.533L281.326 207.033L280.826 206.167ZM277.838 200.992L277.338 200.125L276.472 200.625L276.972 201.492L277.838 200.992ZM290.683 193.576L291.183 194.442L292.049 193.942L291.549 193.076L290.683 193.576ZM272.683 162.399L273.549 161.899L272.73 160.479L271.842 161.857L272.683 162.399ZM266.546 171.928L267.046 172.794L267.255 172.673L267.386 172.47L266.546 171.928ZM266.296 172.072L265.621 172.81L266.161 173.305L266.796 172.938L266.296 172.072ZM263.122 169.166L262.256 169.666L262.333 169.799L262.447 169.903L263.122 169.166ZM262.978 168.916L262.079 168.478L261.846 168.956L262.112 169.416L262.978 168.916ZM269.987 154.561L269.487 153.695L269.222 153.847L269.088 154.122L269.987 154.561ZM274.102 152.185L274.968 151.685L274.468 150.819L273.602 151.319L274.102 152.185ZM296.17 190.408L295.304 190.908L295.804 191.774L296.67 191.274L296.17 190.408ZM306.646 184.36L305.78 184.86L308.768 190.035L309.634 189.535L310.5 189.035L307.512 183.86L306.646 184.36ZM309.634 189.535L309.134 188.669L280.326 205.301L280.826 206.167L281.326 207.033L310.134 190.401L309.634 189.535ZM280.826 206.167L281.692 205.667L278.704 200.492L277.838 200.992L276.972 201.492L279.96 206.667L280.826 206.167ZM277.838 200.992L278.338 201.858L291.183 194.442L290.683 193.576L290.183 192.709L277.338 200.125L277.838 200.992ZM290.683 193.576L291.549 193.076L273.549 161.899L272.683 162.399L271.817 162.899L289.817 194.076L290.683 193.576ZM272.683 162.399L271.842 161.857L265.705 171.387L266.546 171.928L267.386 172.47L273.524 162.94L272.683 162.399ZM266.546 171.928L266.046 171.062L265.796 171.206L266.296 172.072L266.796 172.938L267.046 172.794L266.546 171.928ZM266.296 172.072L266.971 171.334L263.797 168.428L263.122 169.166L262.447 169.903L265.621 172.81L266.296 172.072ZM263.122 169.166L263.988 168.666L263.844 168.416L262.978 168.916L262.112 169.416L262.256 169.666L263.122 169.166ZM262.978 168.916L263.876 169.355L270.886 154.999L269.987 154.561L269.088 154.122L262.079 168.478L262.978 168.916ZM269.987 154.561L270.487 155.427L274.602 153.051L274.102 152.185L273.602 151.319L269.487 153.695L269.987 154.561ZM274.102 152.185L273.236 152.685L295.304 190.908L296.17 190.408L297.036 189.908L274.968 151.685L274.102 152.185ZM296.17 190.408L296.67 191.274L307.146 185.226L306.646 184.36L306.146 183.493L295.67 189.541L296.17 190.408ZM345.312 162.035L346.178 161.535L345.678 160.669L344.812 161.169L345.312 162.035ZM348.3 167.211L348.8 168.077L349.666 167.577L349.166 166.711L348.3 167.211ZM319.493 183.843L318.627 184.343L319.127 185.209L319.993 184.709L319.493 183.843ZM316.505 178.667L316.005 177.801L315.139 178.301L315.639 179.167L316.505 178.667ZM329.35 171.251L329.85 172.117L330.716 171.617L330.216 170.751L329.35 171.251ZM311.35 140.074L312.216 139.574L311.396 138.155L310.509 139.533L311.35 140.074ZM305.212 149.604L305.712 150.47L305.922 150.349L306.053 150.145L305.212 149.604ZM304.963 149.748L304.288 150.485L304.828 150.98L305.463 150.614L304.963 149.748ZM301.788 146.842L300.922 147.342L301 147.475L301.113 147.579L301.788 146.842ZM301.644 146.592L300.746 146.154L300.512 146.632L300.778 147.092L301.644 146.592ZM308.654 132.236L308.154 131.37L307.889 131.523L307.755 131.798L308.654 132.236ZM312.769 129.86L313.635 129.36L313.135 128.494L312.269 128.994L312.769 129.86ZM334.837 168.083L333.971 168.583L334.471 169.449L335.337 168.949L334.837 168.083ZM345.312 162.035L344.446 162.535L347.434 167.711L348.3 167.211L349.166 166.711L346.178 161.535L345.312 162.035ZM348.3 167.211L347.8 166.345L318.993 182.977L319.493 183.843L319.993 184.709L348.8 168.077L348.3 167.211ZM319.493 183.843L320.359 183.343L317.371 178.167L316.505 178.667L315.639 179.167L318.627 184.343L319.493 183.843ZM316.505 178.667L317.005 179.533L329.85 172.117L329.35 171.251L328.85 170.385L316.005 177.801L316.505 178.667ZM329.35 171.251L330.216 170.751L312.216 139.574L311.35 140.074L310.484 140.574L328.484 171.751L329.35 171.251ZM311.35 140.074L310.509 139.533L304.372 149.062L305.212 149.604L306.053 150.145L312.191 140.616L311.35 140.074ZM305.212 149.604L304.712 148.738L304.463 148.882L304.963 149.748L305.463 150.614L305.712 150.47L305.212 149.604ZM304.963 149.748L305.638 149.01L302.464 146.104L301.788 146.842L301.113 147.579L304.288 150.485L304.963 149.748ZM301.788 146.842L302.655 146.342L302.511 146.092L301.644 146.592L300.778 147.092L300.922 147.342L301.788 146.842ZM301.644 146.592L302.543 147.031L309.552 132.675L308.654 132.236L307.755 131.798L300.746 146.154L301.644 146.592ZM308.654 132.236L309.154 133.102L313.269 130.726L312.769 129.86L312.269 128.994L308.154 131.37L308.654 132.236ZM312.769 129.86L311.903 130.36L333.971 168.583L334.837 168.083L335.703 167.583L313.635 129.36L312.769 129.86ZM334.837 168.083L335.337 168.949L345.812 162.901L345.312 162.035L344.812 161.169L334.337 167.217L334.837 168.083Z" fill="black" mask="url(#path-23-outside-12_397_1515)"/>
</g>
<defs>
<filter id="filter0_d_397_1515" x="455.04" y="85.024" width="87.9125" height="60.976" filterUnits="userSpaceOnUse" color-interpolation-filters="sRGB">
<feFlood flood-opacity="0" result="BackgroundImageFix"/>
<feColorMatrix in="SourceAlpha" type="matrix" values="0 0 0 0 0 0 0 0 0 0 0 0 0 0 0 0 0 0 127 0" result="hardAlpha"/>
<feOffset dy="4"/>
<feGaussianBlur stdDeviation="2"/>
<feComposite in2="hardAlpha" operator="out"/>
<feColorMatrix type="matrix" values="0 0 0 0 0 0 0 0 0 0 0 0 0 0 0 0 0 0 0.25 0"/>
<feBlend mode="normal" in2="BackgroundImageFix" result="effect1_dropShadow_397_1515"/>
<feBlend mode="normal" in="SourceGraphic" in2="effect1_dropShadow_397_1515" result="shape"/>
</filter>
<filter id="filter1_d_397_1515" x="664.227" y="141.909" width="54.1201" height="62.2071" filterUnits="userSpaceOnUse" color-interpolation-filters="sRGB">
<feFlood flood-opacity="0" result="BackgroundImageFix"/>
<feColorMatrix in="SourceAlpha" type="matrix" values="0 0 0 0 0 0 0 0 0 0 0 0 0 0 0 0 0 0 127 0" result="hardAlpha"/>
<feOffset dy="4"/>
<feGaussianBlur stdDeviation="2"/>
<feComposite in2="hardAlpha" operator="out"/>
<feColorMatrix type="matrix" values="0 0 0 0 0 0 0 0 0 0 0 0 0 0 0 0 0 0 0.25 0"/>
<feBlend mode="normal" in2="BackgroundImageFix" result="effect1_dropShadow_397_1515"/>
<feBlend mode="normal" in="SourceGraphic" in2="effect1_dropShadow_397_1515" result="shape"/>
</filter>
<filter id="filter2_d_397_1515" x="805.379" y="283.589" width="64.981" height="61.6772" filterUnits="userSpaceOnUse" color-interpolation-filters="sRGB">
<feFlood flood-opacity="0" result="BackgroundImageFix"/>
<feColorMatrix in="SourceAlpha" type="matrix" values="0 0 0 0 0 0 0 0 0 0 0 0 0 0 0 0 0 0 127 0" result="hardAlpha"/>
<feOffset dy="4"/>
<feGaussianBlur stdDeviation="2"/>
<feComposite in2="hardAlpha" operator="out"/>
<feColorMatrix type="matrix" values="0 0 0 0 0 0 0 0 0 0 0 0 0 0 0 0 0 0 0.25 0"/>
<feBlend mode="normal" in2="BackgroundImageFix" result="effect1_dropShadow_397_1515"/>
<feBlend mode="normal" in="SourceGraphic" in2="effect1_dropShadow_397_1515" result="shape"/>
</filter>
<filter id="filter3_d_397_1515" x="862.636" y="488.364" width="61.8401" height="43.264" filterUnits="userSpaceOnUse" color-interpolation-filters="sRGB">
<feFlood flood-opacity="0" result="BackgroundImageFix"/>
<feColorMatrix in="SourceAlpha" type="matrix" values="0 0 0 0 0 0 0 0 0 0 0 0 0 0 0 0 0 0 127 0" result="hardAlpha"/>
<feOffset dy="4"/>
<feGaussianBlur stdDeviation="2"/>
<feComposite in2="hardAlpha" operator="out"/>
<feColorMatrix type="matrix" values="0 0 0 0 0 0 0 0 0 0 0 0 0 0 0 0 0 0 0.25 0"/>
<feBlend mode="normal" in2="BackgroundImageFix" result="effect1_dropShadow_397_1515"/>
<feBlend mode="normal" in="SourceGraphic" in2="effect1_dropShadow_397_1515" result="shape"/>
</filter>
<filter id="filter4_d_397_1515" x="807.759" y="679.223" width="57.0559" height="55.9839" filterUnits="userSpaceOnUse" color-interpolation-filters="sRGB">
<feFlood flood-opacity="0" result="BackgroundImageFix"/>
<feColorMatrix in="SourceAlpha" type="matrix" values="0 0 0 0 0 0 0 0 0 0 0 0 0 0 0 0 0 0 127 0" result="hardAlpha"/>
<feOffset dy="4"/>
<feGaussianBlur stdDeviation="2"/>
<feComposite in2="hardAlpha" operator="out"/>
<feColorMatrix type="matrix" values="0 0 0 0 0 0 0 0 0 0 0 0 0 0 0 0 0 0 0.25 0"/>
<feBlend mode="normal" in2="BackgroundImageFix" result="effect1_dropShadow_397_1515"/>
<feBlend mode="normal" in="SourceGraphic" in2="effect1_dropShadow_397_1515" result="shape"/>
</filter>
<filter id="filter5_d_397_1515" x="669.949" y="819.437" width="54.6655" height="66.0171" filterUnits="userSpaceOnUse" color-interpolation-filters="sRGB">
<feFlood flood-opacity="0" result="BackgroundImageFix"/>
<feColorMatrix in="SourceAlpha" type="matrix" values="0 0 0 0 0 0 0 0 0 0 0 0 0 0 0 0 0 0 127 0" result="hardAlpha"/>
<feOffset dy="4"/>
<feGaussianBlur stdDeviation="2"/>
<feComposite in2="hardAlpha" operator="out"/>
<feColorMatrix type="matrix" values="0 0 0 0 0 0 0 0 0 0 0 0 0 0 0 0 0 0 0.25 0"/>
<feBlend mode="normal" in2="BackgroundImageFix" result="effect1_dropShadow_397_1515"/>
<feBlend mode="normal" in="SourceGraphic" in2="effect1_dropShadow_397_1515" result="shape"/>
</filter>
<filter id="filter6_d_397_1515" x="476.288" y="873.136" width="46.432" height="61.84" filterUnits="userSpaceOnUse" color-interpolation-filters="sRGB">
<feFlood flood-opacity="0" result="BackgroundImageFix"/>
<feColorMatrix in="SourceAlpha" type="matrix" values="0 0 0 0 0 0 0 0 0 0 0 0 0 0 0 0 0 0 127 0" result="hardAlpha"/>
<feOffset dy="4"/>
<feGaussianBlur stdDeviation="2"/>
<feComposite in2="hardAlpha" operator="out"/>
<feColorMatrix type="matrix" values="0 0 0 0 0 0 0 0 0 0 0 0 0 0 0 0 0 0 0.25 0"/>
<feBlend mode="normal" in2="BackgroundImageFix" result="effect1_dropShadow_397_1515"/>
<feBlend mode="normal" in="SourceGraphic" in2="effect1_dropShadow_397_1515" result="shape"/>
</filter>
<filter id="filter7_d_397_1515" x="268.806" y="826.295" width="61.166" height="60.3511" filterUnits="userSpaceOnUse" color-interpolation-filters="sRGB">
<feFlood flood-opacity="0" result="BackgroundImageFix"/>
<feColorMatrix in="SourceAlpha" type="matrix" values="0 0 0 0 0 0 0 0 0 0 0 0 0 0 0 0 0 0 127 0" result="hardAlpha"/>
<feOffset dy="4"/>
<feGaussianBlur stdDeviation="2"/>
<feComposite in2="hardAlpha" operator="out"/>
<feColorMatrix type="matrix" values="0 0 0 0 0 0 0 0 0 0 0 0 0 0 0 0 0 0 0.25 0"/>
<feBlend mode="normal" in2="BackgroundImageFix" result="effect1_dropShadow_397_1515"/>
<feBlend mode="normal" in="SourceGraphic" in2="effect1_dropShadow_397_1515" result="shape"/>
</filter>
<filter id="filter8_d_397_1515" x="127.719" y="678.818" width="61.1277" height="56.0265" filterUnits="userSpaceOnUse" color-interpolation-filters="sRGB">
<feFlood flood-opacity="0" result="BackgroundImageFix"/>
<feColorMatrix in="SourceAlpha" type="matrix" values="0 0 0 0 0 0 0 0 0 0 0 0 0 0 0 0 0 0 127 0" result="hardAlpha"/>
<feOffset dy="4"/>
<feGaussianBlur stdDeviation="2"/>
<feComposite in2="hardAlpha" operator="out"/>
<feColorMatrix type="matrix" values="0 0 0 0 0 0 0 0 0 0 0 0 0 0 0 0 0 0 0.25 0"/>
<feBlend mode="normal" in2="BackgroundImageFix" result="effect1_dropShadow_397_1515"/>
<feBlend mode="normal" in="SourceGraphic" in2="effect1_dropShadow_397_1515" result="shape"/>
</filter>
<filter id="filter9_d_397_1515" x="74.524" y="486.788" width="61.84" height="46.432" filterUnits="userSpaceOnUse" color-interpolation-filters="sRGB">
<feFlood flood-opacity="0" result="BackgroundImageFix"/>
<feColorMatrix in="SourceAlpha" type="matrix" values="0 0 0 0 0 0 0 0 0 0 0 0 0 0 0 0 0 0 127 0" result="hardAlpha"/>
<feOffset dy="4"/>
<feGaussianBlur stdDeviation="2"/>
<feComposite in2="hardAlpha" operator="out"/>
<feColorMatrix type="matrix" values="0 0 0 0 0 0 0 0 0 0 0 0 0 0 0 0 0 0 0.25 0"/>
<feBlend mode="normal" in2="BackgroundImageFix" result="effect1_dropShadow_397_1515"/>
<feBlend mode="normal" in="SourceGraphic" in2="effect1_dropShadow_397_1515" result="shape"/>
</filter>
<filter id="filter10_d_397_1515" x="119.997" y="267.751" width="79.146" height="97.2885" filterUnits="userSpaceOnUse" color-interpolation-filters="sRGB">
<feFlood flood-opacity="0" result="BackgroundImageFix"/>
<feColorMatrix in="SourceAlpha" type="matrix" values="0 0 0 0 0 0 0 0 0 0 0 0 0 0 0 0 0 0 127 0" result="hardAlpha"/>
<feOffset dy="4"/>
<feGaussianBlur stdDeviation="2"/>
<feComposite in2="hardAlpha" operator="out"/>
<feColorMatrix type="matrix" values="0 0 0 0 0 0 0 0 0 0 0 0 0 0 0 0 0 0 0.25 0"/>
<feBlend mode="normal" in2="BackgroundImageFix" result="effect1_dropShadow_397_1515"/>
<feBlend mode="normal" in="SourceGraphic" in2="effect1_dropShadow_397_1515" result="shape"/>
</filter>
<filter id="filter11_d_397_1515" x="257.846" y="128.494" width="95.8206" height="87.0385" filterUnits="userSpaceOnUse" color-interpolation-filters="sRGB">
<feFlood flood-opacity="0" result="BackgroundImageFix"/>
<feColorMatrix in="SourceAlpha" type="matrix" values="0 0 0 0 0 0 0 0 0 0 0 0 0 0 0 0 0 0 127 0" result="hardAlpha"/>
<feOffset dy="4"/>
<feGaussianBlur stdDeviation="2"/>
<feComposite in2="hardAlpha" operator="out"/>
<feColorMatrix type="matrix" values="0 0 0 0 0 0 0 0 0 0 0 0 0 0 0 0 0 0 0.25 0"/>
<feBlend mode="normal" in2="BackgroundImageFix" result="effect1_dropShadow_397_1515"/>
<feBlend mode="normal" in="SourceGraphic" in2="effect1_dropShadow_397_1515" result="shape"/>
</filter>
</defs>
</svg>
