<svg width="1000" height="1000" viewBox="0 0 1000 1000" fill="none" xmlns="http://www.w3.org/2000/svg">
<path d="M847.805 494.146C846.829 492.845 845.528 491.707 844.228 490.732C847.48 487.48 849.106 483.577 849.106 478.862C849.106 475.61 848.13 472.52 846.341 469.593C844.553 466.667 841.951 464.39 838.862 462.602C835.772 460.976 832.195 460.163 828.618 460.163C823.577 460.163 819.024 461.789 815.285 464.878C811.545 467.967 809.106 472.52 807.805 478.049L806.829 482.114H819.512L820.325 480C821.463 477.236 822.602 475.122 824.065 474.146C825.366 473.171 826.829 472.683 828.618 472.683C830.894 472.683 832.846 473.333 834.146 474.634C835.447 475.935 836.097 477.236 836.097 478.862C836.097 480 835.772 480.976 835.122 481.789C834.472 482.764 833.333 483.577 831.707 484.228C829.919 485.041 827.805 485.366 825.528 485.366H822.114V497.398L825.366 497.561C830.569 497.886 833.171 498.537 834.309 499.187C835.935 500 837.236 500.976 838.211 502.602C839.187 504.065 839.675 505.691 839.675 507.317C839.675 509.919 838.699 512.032 836.748 514.146C834.797 516.098 832.195 517.073 828.618 517.073C825.691 517.073 823.252 516.26 821.463 514.634C820 513.333 818.862 511.057 818.049 507.805L817.398 505.366H804.878L805.528 509.268C806.667 515.772 809.431 520.813 813.333 524.228C817.398 527.642 822.439 529.431 828.455 529.431C832.846 529.431 836.911 528.455 840.488 526.504C844.065 524.553 846.992 521.789 849.106 518.049C851.219 514.471 852.195 510.569 852.195 506.667C852.52 502.114 850.894 497.886 847.805 494.146Z" fill="#272727"/>
<path d="M501.789 814.797L515.61 793.821L505.041 786.992L485.041 816.748C482.276 820.813 480.488 824.228 479.35 827.155C478.211 830.244 477.724 833.171 477.724 835.935C477.724 839.837 478.699 843.415 480.488 846.829C482.439 850.244 485.041 852.846 488.293 854.797C491.545 856.585 495.284 857.561 499.024 857.561C502.927 857.561 506.667 856.585 510.081 854.634C513.496 852.683 516.26 850.081 518.211 846.829C520.163 843.577 521.138 839.837 521.138 835.772C521.138 829.919 519.187 824.878 515.284 820.813C511.707 817.073 507.155 815.122 501.789 814.797ZM499.512 845.203C496.911 845.203 494.797 844.39 493.008 842.439C491.22 840.65 490.244 838.537 490.244 835.935C490.244 833.333 491.057 831.22 493.008 829.431C494.797 827.642 496.911 826.667 499.512 826.667C502.114 826.667 504.228 827.48 506.016 829.431C507.805 831.22 508.78 833.333 508.78 835.935C508.78 838.537 507.967 840.65 506.016 842.439C504.228 844.39 502.114 845.203 499.512 845.203Z" fill="#272727"/>
<path d="M182.602 474.35C175.935 470.61 167.48 470.61 160.65 474.35C157.236 476.301 154.472 478.902 152.52 482.154C150.569 485.407 149.593 489.146 149.593 493.211C149.593 499.065 151.545 504.106 155.447 508.171C159.187 512.073 163.74 514.187 169.106 514.35L155.285 535.325L165.854 542.154L185.854 512.398C188.618 508.333 190.406 504.919 191.545 501.992C192.683 498.902 193.171 495.976 193.171 493.049C193.171 489.309 192.195 485.569 190.407 482.317C188.618 478.902 186.016 476.301 182.602 474.35ZM171.545 502.48C168.943 502.48 166.829 501.667 165.041 499.715C163.252 497.927 162.276 495.813 162.276 493.211C162.276 490.61 163.089 488.496 165.041 486.707C166.829 484.919 168.943 483.943 171.545 483.943C174.146 483.943 176.26 484.756 178.049 486.707C179.837 488.496 180.813 490.61 180.813 493.211C180.813 495.813 180 497.927 178.211 499.715C176.26 501.504 174.146 502.48 171.545 502.48Z" fill="#272727"/>
<path d="M698.374 190.244L671.545 175.61L630.894 260.163L639.024 265.854L698.374 190.244Z" fill="#272727"/>
<path d="M307.317 193.496L334.146 178.862L374.797 263.415L366.667 269.106L307.317 193.496Z" fill="#272727"/>
<path d="M828.913 331.545L812.47 305.786L736.078 360.247L740.455 369.153L828.913 331.545Z" fill="#272727"/>
<path d="M181.042 336.423L197.486 310.664L273.877 365.125L269.5 374.031L181.042 336.423Z" fill="#272727"/>
<path d="M193.762 698.87L178.412 672.443L261.843 629.537L267.75 637.511L193.762 698.87Z" fill="#272727"/>
<path d="M811.14 693.876L826.489 667.45L743.059 624.543L737.152 632.517L811.14 693.876Z" fill="#272727"/>
<path d="M330.287 823.698L305.455 805.884L363.971 732.552L372.628 737.405L330.287 823.698Z" fill="#272727"/>
<path d="M671.363 820.446L696.195 802.632L637.679 729.3L629.022 734.153L671.363 820.446Z" fill="#272727"/>
<path d="M479.675 212.52V146.016H462.602L454.959 158.537H466.992V212.52H479.675Z" fill="#272727"/>
<path d="M528.13 189.593C533.008 184.228 536.26 180.163 538.049 176.911C540 173.496 540.813 169.756 540.813 165.854C540.813 160.163 538.862 155.122 534.797 151.057C530.732 146.829 525.528 144.715 519.024 144.715C512.52 144.715 507.155 146.992 502.602 151.382C498.211 155.772 495.935 161.463 495.772 168.13L495.61 171.545H507.967L508.13 168.455C508.455 164.715 509.594 161.789 511.545 159.837C513.496 157.886 515.772 157.073 518.699 157.073C521.464 157.073 523.74 157.886 525.528 159.837C527.317 161.626 528.293 163.74 528.293 166.179C528.293 168.293 527.805 170.244 526.667 172.033C525.854 173.496 523.577 176.585 518.049 182.439L490.081 212.683H541.626V200.163H518.374L528.13 189.593Z" fill="#272727"/>
</svg>
