<svg width="1000" height="1000" viewBox="0 0 1000 1000" fill="none" xmlns="http://www.w3.org/2000/svg">
<path d="M501.858 81.3636V125H496.574V86.9034H496.318L485.665 93.9773V88.608L496.574 81.3636H501.858ZM514.408 125V121.165L528.811 105.398C530.501 103.551 531.893 101.946 532.987 100.582C534.081 99.2045 534.891 97.9119 535.416 96.7045C535.956 95.483 536.226 94.2045 536.226 92.8693C536.226 91.3352 535.857 90.0071 535.118 88.8849C534.393 87.7628 533.399 86.8963 532.135 86.2855C530.871 85.6747 529.45 85.3693 527.874 85.3693C526.197 85.3693 524.734 85.7173 523.484 86.4134C522.249 87.0952 521.29 88.054 520.608 89.2898C519.94 90.5256 519.607 91.9744 519.607 93.6364H514.578C514.578 91.0795 515.168 88.8352 516.347 86.9034C517.526 84.9716 519.131 83.4659 521.162 82.3864C523.207 81.3068 525.501 80.767 528.044 80.767C530.601 80.767 532.866 81.3068 534.841 82.3864C536.815 83.4659 538.364 84.9219 539.486 86.7543C540.608 88.5866 541.169 90.625 541.169 92.8693C541.169 94.4744 540.878 96.044 540.295 97.5781C539.727 99.098 538.733 100.795 537.312 102.67C535.906 104.531 533.953 106.804 531.453 109.489L521.652 119.972V120.312H541.936V125H514.408Z" fill="black"/>
<path d="M710.061 137.879L688.243 175.669L683.667 173.027L702.715 140.035L702.494 139.907L689.731 140.706L692.415 136.056L705.485 135.237L710.061 137.879Z" fill="black"/>
<path d="M817.518 299.957L820.84 298.04L841.696 302.63C844.14 303.171 846.226 303.574 847.954 303.839C849.694 304.097 851.219 304.152 852.527 304.004C853.855 303.86 855.097 303.455 856.253 302.787C857.582 302.02 858.547 301.036 859.15 299.835C859.759 298.647 860.013 297.353 859.91 295.952C859.806 294.552 859.361 293.169 858.572 291.804C857.734 290.352 856.701 289.259 855.474 288.525C854.265 287.795 852.955 287.444 851.544 287.472C850.14 287.512 848.719 287.947 847.279 288.778L844.765 284.423C846.979 283.145 849.218 282.533 851.48 282.588C853.743 282.643 855.849 283.281 857.8 284.5C859.757 285.732 861.372 287.448 862.643 289.65C863.922 291.865 864.587 294.097 864.639 296.346C864.692 298.596 864.205 300.665 863.179 302.553C862.153 304.441 860.668 305.946 858.725 307.068C857.335 307.871 855.83 308.403 854.21 308.666C852.61 308.934 850.643 308.921 848.309 308.629C845.994 308.341 843.049 307.786 839.474 306.964L825.495 303.717L825.2 303.887L835.342 321.454L831.282 323.798L817.518 299.957Z" fill="black"/>
<path d="M896.761 522.097C893.949 522.097 891.442 521.614 889.24 520.648C887.053 519.682 885.313 518.339 884.02 516.621C882.741 514.888 882.045 512.878 881.932 510.591H887.301C887.415 511.997 887.898 513.212 888.75 514.234C889.602 515.243 890.717 516.024 892.095 516.578C893.473 517.132 895 517.409 896.676 517.409C898.551 517.409 900.213 517.082 901.662 516.429C903.111 515.776 904.247 514.866 905.071 513.702C905.895 512.537 906.307 511.188 906.307 509.653C906.307 508.048 905.909 506.635 905.114 505.413C904.318 504.178 903.153 503.212 901.619 502.516C900.085 501.82 898.21 501.472 895.994 501.472H892.5V496.784H895.994C897.727 496.784 899.247 496.472 900.554 495.847C901.875 495.222 902.905 494.341 903.643 493.205C904.396 492.068 904.773 490.733 904.773 489.199C904.773 487.722 904.446 486.436 903.793 485.342C903.139 484.249 902.216 483.396 901.023 482.786C899.844 482.175 898.452 481.869 896.847 481.869C895.341 481.869 893.92 482.146 892.585 482.7C891.264 483.24 890.185 484.028 889.347 485.065C888.509 486.088 888.054 487.324 887.983 488.773H882.869C882.955 486.486 883.643 484.483 884.936 482.764C886.229 481.031 887.919 479.682 890.007 478.716C892.109 477.75 894.418 477.267 896.932 477.267C899.631 477.267 901.946 477.814 903.878 478.908C905.81 479.987 907.294 481.415 908.331 483.19C909.368 484.966 909.886 486.884 909.886 488.943C909.886 491.401 909.24 493.496 907.947 495.229C906.669 496.962 904.929 498.162 902.727 498.83V499.17C905.483 499.625 907.635 500.797 909.183 502.686C910.732 504.561 911.506 506.884 911.506 509.653C911.506 512.026 910.859 514.156 909.567 516.045C908.288 517.92 906.541 519.398 904.325 520.477C902.109 521.557 899.588 522.097 896.761 522.097Z" fill="black"/>
<path d="M827.873 710.801V706.455L847.05 676.114H850.203V682.847H848.072L833.584 705.773V706.114H859.408V710.801H827.873ZM848.413 719.75V709.48V707.456V676.114H853.442V719.75H848.413Z" fill="black"/>
<path d="M697.403 865.476C694.903 865.476 692.652 864.979 690.649 863.984C688.646 862.99 687.041 861.626 685.834 859.893C684.626 858.16 683.966 856.186 683.852 853.97H688.966C689.165 855.944 690.06 857.578 691.651 858.871C693.256 860.149 695.173 860.788 697.403 860.788C699.193 860.788 700.784 860.369 702.176 859.531C703.582 858.693 704.683 857.542 705.479 856.079C706.288 854.602 706.693 852.933 706.693 851.072C706.693 849.169 706.274 847.471 705.436 845.98C704.612 844.474 703.476 843.288 702.027 842.422C700.578 841.555 698.923 841.115 697.062 841.101C695.727 841.086 694.357 841.292 692.95 841.719C691.544 842.131 690.386 842.663 689.477 843.317L684.534 842.72L687.176 821.243H709.847V825.93H691.608L690.074 838.8H690.33C691.224 838.089 692.347 837.5 693.696 837.031C695.045 836.562 696.452 836.328 697.915 836.328C700.585 836.328 702.964 836.967 705.053 838.246C707.155 839.51 708.803 841.243 709.996 843.444C711.203 845.646 711.807 848.16 711.807 850.987C711.807 853.771 711.182 856.257 709.932 858.444C708.696 860.618 706.991 862.336 704.818 863.601C702.645 864.851 700.173 865.476 697.403 865.476Z" fill="black"/>
<path d="M502.006 918.597C500.216 918.568 498.426 918.227 496.636 917.574C494.847 916.92 493.213 915.82 491.736 914.271C490.259 912.709 489.072 910.599 488.178 907.943C487.283 905.273 486.835 901.92 486.835 897.886C486.835 894.023 487.197 890.599 487.922 887.616C488.646 884.619 489.697 882.098 491.075 880.053C492.453 877.993 494.115 876.43 496.061 875.365C498.021 874.3 500.23 873.767 502.688 873.767C505.131 873.767 507.304 874.257 509.207 875.237C511.125 876.203 512.688 877.553 513.895 879.286C515.102 881.018 515.884 883.014 516.239 885.273H511.04C510.557 883.312 509.619 881.686 508.227 880.393C506.835 879.101 504.989 878.455 502.688 878.455C499.307 878.455 496.643 879.925 494.697 882.865C492.766 885.805 491.793 889.932 491.778 895.244H492.119C492.915 894.037 493.859 893.007 494.953 892.155C496.061 891.288 497.283 890.621 498.618 890.152C499.953 889.683 501.366 889.449 502.858 889.449C505.358 889.449 507.645 890.074 509.719 891.324C511.793 892.56 513.455 894.271 514.705 896.459C515.955 898.632 516.58 901.125 516.58 903.938C516.58 906.636 515.976 909.108 514.768 911.352C513.561 913.582 511.864 915.358 509.676 916.679C507.503 917.986 504.946 918.625 502.006 918.597ZM502.006 913.909C503.795 913.909 505.401 913.462 506.821 912.567C508.256 911.672 509.385 910.472 510.209 908.966C511.047 907.46 511.466 905.784 511.466 903.938C511.466 902.134 511.061 900.493 510.251 899.016C509.456 897.524 508.355 896.338 506.949 895.457C505.557 894.577 503.966 894.136 502.176 894.136C500.827 894.136 499.57 894.406 498.405 894.946C497.24 895.472 496.217 896.196 495.337 897.119C494.47 898.043 493.788 899.101 493.291 900.294C492.794 901.473 492.545 902.716 492.545 904.023C492.545 905.756 492.95 907.375 493.76 908.881C494.584 910.386 495.706 911.601 497.126 912.524C498.561 913.447 500.188 913.909 502.006 913.909Z" fill="black"/>
<path d="M288.631 864.879L308.148 826.271V825.93H285.648V821.243H313.602V826.186L294.17 864.879H288.631Z" fill="black"/>
<path d="M156.115 720.347C153.189 720.347 150.604 719.828 148.36 718.791C146.129 717.74 144.389 716.298 143.139 714.466C141.889 712.619 141.271 710.517 141.286 708.159C141.271 706.312 141.634 704.608 142.372 703.045C143.111 701.469 144.119 700.155 145.398 699.104C146.691 698.038 148.132 697.364 149.723 697.08V696.824C147.635 696.284 145.973 695.112 144.737 693.308C143.502 691.49 142.891 689.423 142.905 687.108C142.891 684.892 143.452 682.911 144.588 681.163C145.725 679.416 147.287 678.038 149.276 677.03C151.279 676.021 153.558 675.517 156.115 675.517C158.644 675.517 160.902 676.021 162.891 677.03C164.879 678.038 166.442 679.416 167.578 681.163C168.729 682.911 169.311 684.892 169.325 687.108C169.311 689.423 168.679 691.49 167.429 693.308C166.193 695.112 164.553 696.284 162.507 696.824V697.08C164.084 697.364 165.504 698.038 166.769 699.104C168.033 700.155 169.041 701.469 169.794 703.045C170.547 704.608 170.931 706.312 170.945 708.159C170.931 710.517 170.291 712.619 169.027 714.466C167.777 716.298 166.037 717.74 163.807 718.791C161.591 719.828 159.027 720.347 156.115 720.347ZM156.115 715.659C158.09 715.659 159.794 715.339 161.229 714.7C162.664 714.061 163.771 713.159 164.553 711.994C165.334 710.83 165.732 709.466 165.746 707.903C165.732 706.256 165.306 704.8 164.468 703.536C163.629 702.271 162.486 701.277 161.037 700.553C159.602 699.828 157.962 699.466 156.115 699.466C154.254 699.466 152.593 699.828 151.129 700.553C149.681 701.277 148.537 702.271 147.699 703.536C146.875 704.8 146.47 706.256 146.485 707.903C146.47 709.466 146.847 710.83 147.614 711.994C148.395 713.159 149.51 714.061 150.959 714.7C152.408 715.339 154.127 715.659 156.115 715.659ZM156.115 694.949C157.678 694.949 159.063 694.636 160.27 694.011C161.492 693.386 162.45 692.513 163.146 691.391C163.843 690.268 164.198 688.955 164.212 687.449C164.198 685.972 163.85 684.686 163.168 683.592C162.486 682.484 161.541 681.632 160.334 681.036C159.127 680.425 157.72 680.119 156.115 680.119C154.482 680.119 153.054 680.425 151.833 681.036C150.611 681.632 149.666 682.484 148.999 683.592C148.331 684.686 148.004 685.972 148.019 687.449C148.004 688.955 148.338 690.268 149.02 691.391C149.716 692.513 150.675 693.386 151.896 694.011C153.118 694.636 154.524 694.949 156.115 694.949Z" fill="black"/>
<path d="M102.409 477.767C104.199 477.781 105.989 478.122 107.778 478.79C109.568 479.457 111.202 480.565 112.679 482.114C114.156 483.648 115.342 485.743 116.237 488.399C117.132 491.055 117.58 494.386 117.58 498.392C117.58 502.27 117.21 505.714 116.472 508.726C115.747 511.723 114.696 514.251 113.318 516.311C111.955 518.371 110.293 519.933 108.332 520.999C106.386 522.064 104.185 522.597 101.727 522.597C99.2841 522.597 97.1037 522.114 95.1861 521.148C93.2827 520.168 91.7202 518.811 90.4986 517.078C89.2912 515.331 88.517 513.307 88.1761 511.006H93.375C93.8438 513.009 94.7741 514.663 96.1662 515.97C97.5724 517.263 99.4261 517.909 101.727 517.909C105.094 517.909 107.75 516.439 109.696 513.499C111.656 510.558 112.636 506.403 112.636 501.034H112.295C111.5 502.227 110.555 503.257 109.462 504.124C108.368 504.99 107.153 505.658 105.818 506.126C104.483 506.595 103.063 506.83 101.557 506.83C99.0568 506.83 96.7628 506.212 94.6747 504.976C92.6009 503.726 90.9389 502.014 89.6889 499.841C88.4531 497.653 87.8352 495.153 87.8352 492.341C87.8352 489.67 88.4318 487.227 89.625 485.011C90.8324 482.781 92.5227 481.006 94.696 479.685C96.8835 478.364 99.4545 477.724 102.409 477.767ZM102.409 482.455C100.619 482.455 99.0071 482.902 97.5724 483.797C96.152 484.678 95.0227 485.871 94.1847 487.376C93.3608 488.868 92.9489 490.523 92.9489 492.341C92.9489 494.159 93.3466 495.814 94.142 497.305C94.9517 498.783 96.0526 499.962 97.4446 500.842C98.8509 501.709 100.449 502.142 102.239 502.142C103.588 502.142 104.845 501.879 106.01 501.354C107.175 500.814 108.19 500.082 109.057 499.159C109.938 498.222 110.626 497.163 111.124 495.984C111.621 494.791 111.869 493.548 111.869 492.256C111.869 490.551 111.457 488.953 110.634 487.462C109.824 485.97 108.702 484.763 107.267 483.839C105.847 482.916 104.227 482.455 102.409 482.455Z" fill="black"/>
<path d="M130.368 303.564L168.158 325.383L165.516 329.959L132.524 310.911L132.396 311.132L133.195 323.895L128.545 321.21L127.726 308.141L130.368 303.564ZM182.066 302.486C180.461 305.267 178.338 307.198 175.695 308.28C173.041 309.355 169.97 309.575 166.482 308.94C162.982 308.297 159.178 306.789 155.069 304.417C150.985 302.059 147.796 299.529 145.502 296.827C143.202 294.105 141.855 291.326 141.459 288.489C141.057 285.633 141.652 282.827 143.243 280.072C144.834 277.316 146.963 275.404 149.63 274.336C152.291 273.249 155.372 273.026 158.872 273.669C162.366 274.292 166.156 275.783 170.24 278.141C174.349 280.513 177.556 283.054 179.863 285.764C182.157 288.466 183.502 291.235 183.898 294.072C184.282 296.902 183.672 299.706 182.066 302.486ZM178.007 300.143C179.598 297.387 179.505 294.48 177.729 291.42C175.952 288.361 172.604 285.411 167.683 282.57C164.411 280.68 161.422 279.422 158.717 278.795C156.019 278.156 153.691 278.141 151.732 278.748C149.781 279.344 148.28 280.552 147.229 282.373C145.652 285.104 145.767 288.016 147.573 291.109C149.367 294.195 152.718 297.155 157.626 299.989C160.898 301.878 163.877 303.138 166.563 303.771C169.249 304.403 171.561 304.417 173.5 303.815C175.447 303.2 176.949 301.976 178.007 300.143Z" fill="black"/>
<path d="M291.425 137.021L313.243 174.811L308.667 177.454L289.619 144.461L289.397 144.589L283.708 156.042L281.023 151.392L286.849 139.663L291.425 137.021ZM315.579 123.076L337.397 160.866L332.821 163.508L313.773 130.516L313.551 130.643L307.862 142.096L305.177 137.446L311.003 125.718L315.579 123.076Z" fill="black"/>
</svg>
