<svg xmlns="http://www.w3.org/2000/svg" width="69.226" height="450.331" viewBox="0 0 18.316 119.15"><path fill="#333" d="M6.431 118.827c-1.57-.51-2.763-1.305-4.046-2.696-1.778-1.93-2.257-3.244-2.257-6.197 0-2.254.08-2.67.776-4.045 1.194-2.36 3.586-4.306 5.904-4.807.86-.185.86-.186.86-1.853 0-1.416-.076-1.688-.502-1.8-.276-.072-.71-.449-.966-.838-.446-.68-.443-.734.081-1.443.516-.698.525-.817.166-2.301-.22-.915-.498-4.419-.667-8.429-.47-11.168.309-22.249 1.85-26.307.444-1.167.46-1.382.124-1.66-1.242-1.032-1.67-4.277-.795-6.031.372-.747.39-.968.101-1.317-.19-.231-.626-1.253-.969-2.272-.978-2.91-1.673-4.064-3.961-6.58-1.174-1.29-2.133-2.48-2.131-2.645.002-.165.663-1.12 1.47-2.121 2.23-2.771 3.43-4.657 3.894-6.116 1.128-3.55 2.164-11.315 2.578-19.315.158-3.056.37-6.569.47-7.805.177-2.174.205-2.25.845-2.25.625 0 .665.087.72 1.588.638 16.943 1.977 26.812 4.086 30.098.46.717 1.65 2.327 2.646 3.577 2.072 2.604 2.15 2.057-.763 5.316-2.05 2.292-2.841 3.647-3.757 6.43-.32.972-.744 1.902-.943 2.067-.303.252-.28.48.142 1.41.864 1.903.611 4.371-.578 5.64-.527.563-.527.569-.006 2.154 1.285 3.914 1.893 10.39 1.893 20.169 0 7.191-.318 12.552-.87 14.706-.3 1.165-.285 1.35.135 1.764.743.732.6 1.737-.322 2.261-.747.425-.792.545-.794 2.105-.001 1.147.1 1.653.33 1.653.802.001 3.602 1.627 4.616 2.681 1.707 1.775 2.532 3.828 2.524 6.283-.012 3.819-1.93 6.882-5.283 8.438-1.811.84-4.826 1.063-6.6.487z"/></svg>