<svg xmlns="http://www.w3.org/2000/svg" width="47.694" height="707.376" viewBox="0 0 12.619 187.16"><g fill="#333" stroke-width=".265"><path d="M7.55 165.433c2.005-.838 2.127-3.834.198-4.861-2.612-1.391-5.305 1.733-3.487 4.044.94 1.195 1.846 1.42 3.289.817z"/><path d="M.72 187.073c-.459-.076-.727-.286-.726-.567 0-.245.119-4.255.261-8.912.34-11.142.911-33.447 1.713-66.94.359-14.989.72-29.93.804-33.205C3.304 56.59 4.49 5.163 4.49 2.932V.25l.926-.174C5.925-.02 6.743-.023 7.232.069l.891.167.177 5.732c.097 3.153.708 28.413 1.357 56.135 1.23 52.537 1.932 81.024 2.67 108.42.24 8.918.351 16.3.247 16.404-.21.21-10.694.338-11.855.145z"/></g></svg>