<svg xmlns="http://www.w3.org/2000/svg" width="92.312" height="670.869" viewBox="0 0 24.424 177.501"><path d="M53.37 201.809a5.382 5.382 0 1 1 0-10.764 5.382 5.382 0 0 1 0 10.764zM50.717 98.995c-2.655.106-5.203-.637-6.265-4.354-1.062-3.716 2.442-5.415 5.415-4.969 1.565.236 2.736 1.183 3.505 2.033.77-.85 1.94-1.797 3.504-2.033 2.973-.446 6.478 1.253 5.416 4.97-1.062 3.716-3.61 4.46-6.265 4.353 0 0 .773 6.821-2.655 8.936-3.429-2.115-2.655-8.936-2.655-8.936zm-1.38-14.404c1.546.18 2.985-1.465 4.035-3.146 1.05 1.681 2.489 3.325 4.035 3.146 2.453-.284-.485 3.354-4.035 4.637-3.55-1.283-6.488-4.92-4.035-4.637zm5.726 99.743c.228-3.03.727-8.998 1.6-16.314 1.275-10.672-.477-23.096-1.274-30.105-.796-7.009 0-28.407 0-28.407 4.142-1.805 2.39-8.23 2.39-8.23 4.407-.318 7.168-4.938 6.85-8.76-.32-3.823-4.302-5.098-4.302-5.098 2.39-1.593 1.753-7.805 0-6.212-1.752 1.593-5.256-.478-5.256-3.186V36.29c0-3.505-1.7-5.15-1.7-5.15s-1.698 1.645-1.698 5.15v41.733c0 2.708-3.505 4.779-5.257 3.186-1.752-1.593-2.389 4.62 0 6.212 0 0-3.982 1.275-4.3 5.097-.32 3.823 2.442 8.443 6.849 8.761 0 0-1.752 6.425 2.39 8.23 0 0 .795 21.398 0 28.407-.797 7.009-2.55 19.433-1.275 30.105a383.314 383.314 0 0 1 1.6 16.314c-5.943.824-10.52 5.923-10.52 12.093 0 6.744 5.467 12.212 12.212 12.212 6.744 0 12.212-5.468 12.212-12.212 0-6.17-4.577-11.269-10.52-12.093" style="fill:#393536;fill-opacity:1;fill-rule:nonzero;stroke:none;stroke-width:.0352778" transform="translate(-41.159 -31.138)"/></svg>