<svg xmlns="http://www.w3.org/2000/svg" width="58.613" height="835.956" viewBox="0 0 15.508 221.18"><path fill="#333" d="M4.76 220.78c-1.705-.624-3.777-2.788-4.365-4.56-.575-1.732-.456-4.727.243-6.109.64-1.262 2.188-2.848 3.387-3.467l.992-.512v-20.04l-.69-.174c-1.177-.295-3.402-2.76-3.932-4.358-.67-2.016-.465-4.846.465-6.434.684-1.167 2.427-2.935 3.123-3.166.304-.102.31-.42.033-1.953C.867 152.54.852 139.003 3.943 104.94 6.028 81.957 6.39 72.514 5.642 60.577c-.152-2.414-.196-2.568-.79-2.717-.347-.087-1.154-.662-1.794-1.278C.882 54.49.811 52.025 2.731 45.276c2.233-7.85 2.857-15.026 2.837-32.625L5.554.002l2.198.163-.056 6.482c-.095 11.003.631 23.39 1.84 31.39.289 1.914 1.014 5.069 1.611 7.012 1.406 4.577 1.648 7.65.751 9.557-.59 1.257-1.936 2.648-3.052 3.157-.332.151-.672.588-.756.971-.083.383-.229 4.269-.324 8.634-.243 11.208.145 18.35 2.278 41.936 1.816 20.09 1.966 22.81 1.966 35.72 0 10.358-.07 12.41-.584 17.065-.32 2.91-.745 6.212-.943 7.337-.352 2.001-.348 2.049.196 2.216.919.283 2.536 1.581 3.353 2.692.982 1.335 1.67 3.955 1.428 5.435-.416 2.548-2.227 5.139-4.232 6.052-.367.167-.739.59-.826.94-.116.46.031 19.11.154 19.58.01.036.187.066.393.066.648 0 3.264 2.61 3.87 3.86.425.879.581 1.7.59 3.1.02 3.095-1.303 5.4-4.017 7.003-1.497.884-4.782 1.087-6.632.41z"/></svg>