<svg xmlns="http://www.w3.org/2000/svg" width="58.599" height="451.728" viewBox="0 0 15.504 119.52"><path d="M48.92 191.094a3.416 3.416 0 1 1 0-6.832 3.416 3.416 0 0 1 0 6.832zm2.065-10.881c.17-3.361 3.033-5.119 3.033-5.119v-2.548h-2.973c3.185-4.036 2.548-14.018.85-19.965-1.7-5.946-1.063-17.203-1.063-17.203s4.46-.85 2.973-1.911c-3.185-2.337-2.76-10.407-2.76-10.407h3.822v-2.761h-3.822c2.123-5.735.637-16.141 0-18.902-.638-2.761 0-15.505 0-19.965 0-4.46-2.124-5.522-2.124-5.522s-2.124 1.062-2.124 5.522.637 17.204 0 19.965c-.637 2.76-2.124 13.167 0 18.902h-3.823v2.76h3.823s.425 8.071-2.761 10.408c-1.487 1.062 2.973 1.911 2.973 1.911s.637 11.257-1.062 17.203c-1.699 5.947-2.336 15.93.85 19.965h-2.974v2.548s2.863 1.758 3.033 5.119c-3.278.905-5.687 3.9-5.687 7.465a7.752 7.752 0 1 0 15.504 0c0-3.565-2.41-6.56-5.688-7.465" style="fill:#393536;fill-opacity:1;fill-rule:nonzero;stroke:none;stroke-width:.0352778" transform="translate(-41.169 -75.91)"/></svg>