<svg xmlns="http://www.w3.org/2000/svg" width="83.189" height="623.711" viewBox="0 0 22.01 165.023"><path d="M53.179 133.42c-3.027 1.036-3.504 2.788-3.504 2.788 1.751-.637 4.3 1.115 4.3 1.115-3.508 3.012 0 7.964 0 7.964-4.512.848-10.672-1.592-10.194-9.557.478-7.964 7.645-10.832 7.645-10.832s-2.548-2.708-1.751-3.504c0 0 .955-1.274 4.3 1.752 3.345 3.027 2.23 9.239-.796 10.274zm-3.504 34.168a4.142 4.142 0 1 1 0-8.283 4.142 4.142 0 0 1 0 8.283zm-3.346-66.902c1.115-3.663 8.756-5.136 11.15 2.868 2.395 8.004-2.708 14.176-7.804 13.54 0 0 1.91-1.753 1.751-4.142-.159-2.39-2.051-3.823.01-5.735 0 0-6.875-.722-5.107-6.53zm.797-12.265c.478-1.752 1.274-4.141 1.115-6.371-.16-2.23 2.056-3.345 2.056-3.345s2.216 1.115 2.057 3.345c-.16 2.23.637 4.62 1.115 6.371.478 1.752.028 4.62-3.172 4.779-3.2-.16-3.649-3.027-3.171-4.779zm9.557 45.08c4.62-7.488-.478-10.992-.318-11.948.477-1.752 4.937-1.752 4.937-1.752-1.274-2.708-4.3-2.867-4.3-2.867s4.46-4.62 3.345-12.425c-1.115-7.805-7.316-9.716-7.316-9.716 5.109-2.07 1.263-13.221-.011-19.593-1.275-6.371 1.751-67.38-1.753-67.38-3.504 0-2.549 28.832-2.708 38.39-.16 9.557-.318 27.397-3.186 37.751-2.867 10.354 2.416 10.832 2.416 10.832-7.939 4.3-2.734 11.787-2.734 11.787-3.664 1.593-2.867 5.097-2.867 5.097.796-.955 4.46-2.867 5.416.956.955 3.823-1.912 10.513-5.735 15.929-3.823 5.416-3.026 11.787 0 15.292 3.027 3.504 0 4.141 0 4.141 2.708 3.823 5.735 3.027 5.735 3.027v3.258a9.398 9.398 0 1 0 5.894.581v-3.999c2.548-1.274 5.575-.318 5.575-.318-1.275-3.504-3.346-3.664-3.346-3.664 9.239-6.212.956-13.38.956-13.38" style="fill:#393536;fill-opacity:1;fill-rule:nonzero;stroke:none;stroke-width:.0352778" transform="translate(-39.292 -7.82)"/></svg>