<svg xmlns="http://www.w3.org/2000/svg" width="51.122" height="601.02" viewBox="0 0 13.526 159.02"><g fill="#333" stroke-width=".265"><path d="M7.848 142.595c.862-.678.91-1.704.122-2.543-1.112-1.184-2.953-.412-2.953 1.24 0 .592.195 1.034.603 1.363.78.633 1.367.617 2.228-.06z"/><path d="M4.808 157.465c-1.76-1.81-3.374-4.907-4.232-8.119-.43-1.61-.564-2.908-.575-5.542-.014-3.588.107-4.488 1.433-10.583 1.878-8.638 1.996-12.176.698-20.956l-.852-5.767.002-11.245c0-8.3.12-12.7.457-16.801a741.768 741.768 0 0 0 1.497-22.754c.76-15.53 2.671-52.1 2.81-53.777.15-1.808.196-1.919.798-1.919.57 0 .639.116.639 1.063 0 .585.59 12.342 1.313 26.128s1.443 27.744 1.602 31.018c.16 3.274.577 9.882.928 14.684 1.605 21.988 1.552 29.232-.3 41.143-.318 2.044-.47 4.475-.462 7.408.012 4.553.225 6.03 2.061 14.288 1.88 8.454.8 15.746-3.085 20.833-.954 1.25-2.425 2.451-3.001 2.451-.122 0-.9-.699-1.73-1.553z"/></g></svg>