<svg xmlns="http://www.w3.org/2000/svg" width="84.801" height="485.844" viewBox="0 0 22.437 128.546"><path d="M77.376 128.002s-2.568-2.992-5.609-2.932c-3.037-.06-5.609 2.932-5.609 2.932-5.61-7.01 0-9.345 0-9.345.057-4.74 3.616-5.953 5.61-6.263 1.992.31 5.552 1.522 5.608 6.263 0 0 5.61 2.336 0 9.345zm-5.609 70.396a3.814 3.814 0 1 1 0-7.627 3.814 3.814 0 0 1 0 7.627zm7.81-80.803c.428-5.522-3.82-6.584-5.309-7.646-1.485-1.062 0-29.097 0-32.07 0-2.974-2.5-3.186-2.5-3.186s-2.502.212-2.502 3.186c0 2.973 1.489 31.008 0 32.07-1.485 1.062-5.733 2.124-5.31 7.646 0 0-3.608 2.124-3.396 4.46.211 2.336 3.608 6.584 3.608 6.584l-2.547.85s4.671 1.699 5.521 5.097c.787 3.139 2.79 39.98-.151 52.782a8.654 8.654 0 0 0 4.777 15.871 8.656 8.656 0 0 0 8.656-8.654 8.642 8.642 0 0 0-3.88-7.217c-2.939-12.803-.935-49.643-.152-52.782.85-3.398 5.525-5.097 5.525-5.097l-2.55-.85s3.4-4.248 3.612-6.584c.211-2.336-3.401-4.46-3.401-4.46" style="fill:#393536;fill-opacity:1;fill-rule:nonzero;stroke:none;stroke-width:.0352778" transform="translate(-60.55 -74.693)"/></svg>