<svg xmlns="http://www.w3.org/2000/svg" width="59.32" height="450.709" viewBox="0 0 15.695 119.25"><path fill="#333" d="M5.552 118.837c-1.764-.63-3.52-2.31-4.293-4.106-.715-1.66-.619-4.228.219-5.868.656-1.286 2.677-3.212 3.618-3.448l.677-.17v-58.58l-1.298-.332C2.568 45.844 1.09 44.78.434 43.424-.07 42.384-.1 42.102.158 40.72c.158-.849.891-2.927 1.63-4.619 2.95-6.76 3.934-13.12 4.165-26.908L6.108 0H9.08l.044 5.226c.05 5.801.386 10.34 1.16 15.628 1.08 7.38 2.116 11.31 4.126 15.659 1.13 2.445 1.284 2.99 1.284 4.544 0 1.38-.122 1.93-.555 2.514-.752 1.013-2.358 2.095-3.877 2.611l-1.257.427v58.59l.903.326c1.201.434 2.99 2.204 3.612 3.572.772 1.7.696 4.466-.17 6.204-1.606 3.223-5.403 4.75-8.8 3.538z"/></svg>