<svg xmlns="http://www.w3.org/2000/svg" width="114.079" height="522.769" viewBox="0 0 30.184 138.316"><path d="M82.33 151.727c-2.23 0-3.267 1.672-2.388 2.708.875 1.035 1.513 2.628.794 3.345-.717.717-5.652-1.752-3.821-9.478.956-4.22 9.077-6.61 9.476-.557.134 1.993-1.831 3.982-4.06 3.982zm-7.966 75.042a3.814 3.814 0 1 1 0-7.627 3.814 3.814 0 0 1 0 7.627zm-6.37-68.99c-.717-.716-.078-2.309.797-3.344.874-1.036-.16-2.708-2.389-2.708-2.23 0-4.194-1.99-4.064-3.982.399-6.053 8.523-3.664 9.48.557 1.83 7.726-3.109 10.195-3.825 9.478zm20.76-12.663c-2.335-5.522-7.645-3.398-10.174-2.76-2.526.636-.233-4.036-.021-5.735.215-1.7-1.274-2.973-1.909-4.885-.638-1.911 0-29.734 0-33.982 0-4.247-2.286-4.46-2.286-4.46s-2.282.213-2.282 4.46c0 4.248.638 32.07 0 33.982-.635 1.912-2.124 3.186-1.912 4.885.215 1.699 2.508 6.371-.021 5.734-2.526-.637-7.836-2.76-10.173 2.761-2.336 5.522 1.593 8.39 5.311 8.602 1.274.425-.85 3.398.847 5.31 1.7 1.91 4.674.318 5.313-.531 0 0 .74 5.203-1.171 8.601-1.909 3.398 1.277 37.699 1.17 40.035-.108 2.336-2.232 2.655-2.232 4.672 0 1.083.61 2.437 1.178 3.462a8.654 8.654 0 0 0 3.972 16.343c4.78 0 8.658-3.875 8.658-8.655a8.652 8.652 0 0 0-4.682-7.688c.565-1.025 1.175-2.38 1.175-3.462 0-2.017-2.124-2.336-2.23-4.672-.105-2.336 3.08-36.637 1.168-40.035-1.912-3.398-1.168-8.601-1.168-8.601.639.85 3.613 2.442 5.31.53 1.7-1.911-.424-4.884.85-5.31 3.718-.211 7.645-3.079 5.31-8.6" style="fill:#393536;fill-opacity:1;fill-rule:nonzero;stroke:none;stroke-width:.0352778" transform="translate(-59.273 -93.294)"/></svg>