<svg xmlns="http://www.w3.org/2000/svg" width="65.314" height="450.633" viewBox="0 0 17.281 119.23"><path fill="#333" d="M6.287 118.96c-2.645-.867-4.256-2.244-5.574-4.764-.602-1.151-.708-1.684-.713-3.6-.005-1.88.107-2.489.68-3.705 1.095-2.321 2.537-3.569 5.69-4.92.545-.235.527-.332-1.125-5.926l-1.679-5.687L4.759 65.22c.655-13.825 1.608-33.846 2.116-44.492.508-10.645.924-19.664.924-20.042 0-.583.117-.688.771-.688.767 0 .772.01.923 1.919.084 1.055.274 4.656.423 8.003.15 3.347.335 7.276.412 8.731.078 1.456.551 11.456 1.052 22.225l1.607 34.528.696 14.95-1.759 5.668c-1.796 5.792-1.83 6.085-.686 6.104.755.012 3.116 1.568 4.068 2.68 1.49 1.741 2.092 3.642 1.956 6.185-.085 1.598-.28 2.443-.795 3.45-.824 1.608-2.722 3.419-4.33 4.13-1.53.677-4.39.866-5.85.387z"/></svg>