<svg xmlns="http://www.w3.org/2000/svg" width="61.928" height="450.595" viewBox="0 0 16.385 119.22"><path fill="#333" d="M5.99 118.973c-1.803-.598-2.664-1.162-3.932-2.572-4.03-4.483-1.88-11.415 4.13-13.316.436-.137.464-1.349.464-20.529 0-21.658-.022-22.117-1.339-28.193C4.4 50.141 2.81 46.15 1.177 43.976l-.653-.87.83-1.293c2.754-4.291 4.968-16.82 5.824-32.95C7.63.324 7.669-.001 8.235-.001c.427 0 .5.327.643 2.845 1.182 20.888 2.77 31.81 5.474 37.633.438.943.967 1.904 1.176 2.134.332.368.294.53-.312 1.327-1.976 2.598-3.7 7.577-4.745 13.705l-.648 3.801.068 20.783.068 20.783 1.174.391c1.752.584 4.031 2.946 4.772 4.945 1.452 3.918-.52 8.515-4.386 10.226-1.497.662-4.16.855-5.529.401z"/></svg>