<svg xmlns="http://www.w3.org/2000/svg" width="177.466" height="953.627" viewBox="0 0 46.954 252.314"><path d="M66.612 94.941c-1.911 5.098-6.371 9.08-13.22 7.009 0 0 2.07-4.3.158-5.575-1.91-1.275-3.822-2.07-4.619-3.823-.37-.816-1.398-1.042-2.39-1.053-.991.01-2.018.237-2.389 1.053-.796 1.752-2.707 2.548-4.619 3.823-1.911 1.274.16 5.575.16 5.575-6.85 2.07-11.31-1.911-13.222-7.009-1.911-5.097 3.823-8.92 3.823-8.92 1.275 5.734 7.328 3.186 7.328 3.186 3.026 2.867 7.646-2.23 6.45-3.186-1.194-.956-.875-3.664-.875-3.664 2.708-3.823-3.823-6.371-3.823-6.371 2.209-3.65 5.164-4.514 7.168-4.63 2.004.116 4.959.98 7.168 4.63 0 0-6.531 2.548-3.823 6.371 0 0 .318 2.708-.876 3.664-1.195.956 3.424 6.053 6.451 3.186 0 0 6.053 2.548 7.327-3.186 0 0 5.735 3.823 3.823 8.92zm-20.07 16.526c-2.424-3.074-6.69-6.65-6.69-6.65 1.33-.665 4.737-3.947 6.69-5.885 1.953 1.938 5.36 5.22 6.69 5.885 0 0-4.266 3.576-6.69 6.65zm6.598 105.649a6.598 6.598 0 1 1-13.196 0 6.598 6.598 0 0 1 13.196 0zM62.311 81.56c-3.026-.319-3.982-.16-4.141-4.46-.16-4.301-7.327-7.646-8.442-9.239-1.115-1.593 1.593-36.477 1.593-44.123 0-10.842-4.78-18.159-4.78-18.159s-4.778 7.317-4.778 18.16c0 7.645 2.708 42.53 1.593 44.122-1.115 1.593-8.283 4.938-8.442 9.239-.16 4.3-1.115 4.141-4.142 4.46-3.026.318-8.92 5.416-7.486 12.743 1.433 7.327 6.212 9.398 9.08 9.876 0 0 .477 6.53 4.778 6.212 4.3-.318 6.212.797 6.849 3.664.637 2.867-1.433 1.115-3.345 1.593-1.911.478-1.433 3.982 1.275 3.982 2.707 0 2.707 3.664.955 11.469-1.752 7.805-4.62 40.618.796 52.565.638 1.912-7.486 1.115-6.53 6.85.478 1.274 4.46-1.752 6.053.477 1.593 2.23-1.274 3.823-2.071 5.098-.644 1.03 1.523 3.83 2.293 6.381-6.77 1.437-11.85 7.447-11.85 14.645 0 7.222 5.113 13.249 11.917 14.66-.697 1.115-1.863 1.517-1.816 2.862.066 1.911 3.12 2.707 1.527 5.575-1.593 2.867-6.213 0-6.213 0-1.433 5.416 5.894 7.964 5.894 7.964-.16 8.442 3.664 9.717 3.664 9.717s3.823-1.275 3.663-9.717c0 0 7.328-2.548 5.894-7.964 0 0-4.62 2.867-6.212 0-1.593-2.868 1.46-3.664 1.526-5.575.047-1.345-1.118-1.747-1.815-2.862 6.803-1.411 11.917-7.438 11.917-14.66 0-7.198-5.08-13.208-11.85-14.645.77-2.55 2.937-5.35 2.293-6.381-.797-1.275-3.664-2.868-2.071-5.098s5.575.797 6.053-.478c.956-5.734-7.168-4.937-6.531-6.849 5.416-11.947 2.549-44.76.796-52.565-1.752-7.805-1.752-11.47.956-11.47s3.186-3.503 1.274-3.981c-1.911-.478-3.982 1.274-3.345-1.593.638-2.867 2.55-3.982 6.85-3.664 4.3.319 4.779-6.212 4.779-6.212 2.867-.478 7.645-2.549 9.079-9.876 1.434-7.327-4.46-12.425-7.487-12.743" style="fill:#393536;fill-opacity:1;fill-rule:nonzero;stroke:none;stroke-width:.0352778" transform="translate(-23.065 -5.58)"/></svg>