<svg xmlns="http://www.w3.org/2000/svg" width="23.007" height="150.414" viewBox="0 0 6.087 39.797"><path fill="#ccc" stroke="#63737c" stroke-linecap="square" stroke-linejoin="round" stroke-width=".318" d="M.159 36.747c.029 1.48 1.265 2.978 2.946 2.887 1.917-.101 2.851-1.55 2.823-2.925-.024-1.15-.541-1.978-1.515-2.428-.053.952 1.993-8.109-1.398-34.122-2.861 26.115-.967 34.008-.967 34.008-.878.541-1.701 1.042-1.89 2.58z" color="#000"/><path fill="#fff" fill-rule="evenodd" stroke="#54a458" stroke-width=".074" d="M4.326 31.912c-.027 1.56-1.996 1.783-2.053 0-.82-7.702-.153-19.202.836-21.143 1.118 2.023 1.89 13.158 1.217 21.143z"/></svg>