<svg width="1000" height="1000" viewBox="0 0 1000 1000" fill="none" xmlns="http://www.w3.org/2000/svg">
<path d="M509.814 87.5H489.578V112.843H509.814V87.5Z" fill="#5AA469"/>
<path d="M696.093 139.382L684.443 159.518L701.96 169.652L713.609 149.517L696.093 139.382Z" fill="#5AA469"/>
<path d="M851.841 284.867L829.904 297.559L840.038 315.075L861.975 302.384L851.841 284.867Z" fill="#5AA469"/>
<path d="M911.89 489.577H886.548V509.813H911.89V489.577Z" fill="#5AA469"/>
<path d="M839.905 683.967L829.771 701.483L851.708 714.175L861.842 696.659L839.905 683.967Z" fill="#5AA469"/>
<path d="M702.031 829.556L684.515 839.69L697.206 861.627L714.723 851.493L702.031 829.556Z" fill="#5AA469"/>
<path d="M509.814 886.547H489.578V911.89H509.814V886.547Z" fill="#5AA469"/>
<path d="M297.761 829.665L285.069 851.602L302.586 861.736L315.277 839.8L297.761 829.665Z" fill="#5AA469"/>
<path d="M159.791 684.323L137.854 697.015L147.989 714.531L169.925 701.84L159.791 684.323Z" fill="#5AA469"/>
<path d="M112.842 489.577H87.5V509.813H112.842V489.577Z" fill="#5AA469"/>
<path d="M147.886 284.567L137.752 302.083L159.689 314.775L169.823 297.258L147.886 284.567Z" fill="#5AA469"/>
<path d="M302.348 137.944L284.831 148.076L297.52 170.013L315.037 159.881L302.348 137.944Z" fill="#5AA469"/>
</svg>
