<svg width="1000" height="1000" viewBox="0 0 1000 1000" fill="none" xmlns="http://www.w3.org/2000/svg">
<circle cx="500" cy="30" r="10" fill="black"/>
<circle cx="549.337" cy="32.5857" r="10" transform="rotate(6 549.337 32.5857)" fill="black"/>
<circle cx="598.134" cy="40.3143" r="10" transform="rotate(12 598.134 40.3143)" fill="black"/>
<circle cx="645.856" cy="53.1013" r="10" transform="rotate(18 645.856 53.1013)" fill="black"/>
<circle cx="691.98" cy="70.8066" r="10" transform="rotate(24 691.98 70.8066)" fill="black"/>
<circle cx="736" cy="93.2361" r="10" transform="rotate(30 736 93.2361)" fill="black"/>
<circle cx="777.435" cy="120.144" r="10" transform="rotate(36 777.435 120.144)" fill="black"/>
<circle cx="815.83" cy="151.236" r="10" transform="rotate(42 815.83 151.236)" fill="black"/>
<circle cx="850.764" cy="186.17" r="10" transform="rotate(48 850.764 186.17)" fill="black"/>
<circle cx="881.856" cy="224.565" r="10" transform="rotate(54 881.856 224.565)" fill="black"/>
<circle cx="908.764" cy="266" r="10" transform="rotate(60 908.764 266)" fill="black"/>
<circle cx="931.193" cy="310.02" r="10" transform="rotate(66 931.193 310.02)" fill="black"/>
<circle cx="948.899" cy="356.144" r="10" transform="rotate(72 948.899 356.144)" fill="black"/>
<circle cx="961.686" cy="403.866" r="10" transform="rotate(78 961.686 403.866)" fill="black"/>
<circle cx="969.414" cy="452.663" r="10" transform="rotate(84 969.414 452.663)" fill="black"/>
<circle cx="972" cy="502" r="10" transform="rotate(90 972 502)" fill="black"/>
<circle cx="969.414" cy="551.337" r="10" transform="rotate(96 969.414 551.337)" fill="black"/>
<circle cx="961.686" cy="600.134" r="10" transform="rotate(102 961.686 600.134)" fill="black"/>
<circle cx="948.899" cy="647.856" r="10" transform="rotate(108 948.899 647.856)" fill="black"/>
<circle cx="931.193" cy="693.98" r="10" transform="rotate(114 931.193 693.98)" fill="black"/>
<circle cx="908.764" cy="738" r="10" transform="rotate(120 908.764 738)" fill="black"/>
<circle cx="881.856" cy="779.435" r="10" transform="rotate(126 881.856 779.435)" fill="black"/>
<circle cx="850.764" cy="817.83" r="10" transform="rotate(132 850.764 817.83)" fill="black"/>
<circle cx="815.83" cy="852.764" r="10" transform="rotate(138 815.83 852.764)" fill="black"/>
<circle cx="777.435" cy="883.856" r="10" transform="rotate(144 777.435 883.856)" fill="black"/>
<circle cx="736" cy="910.764" r="10" transform="rotate(150 736 910.764)" fill="black"/>
<circle cx="691.98" cy="933.193" r="10" transform="rotate(156 691.98 933.193)" fill="black"/>
<circle cx="645.856" cy="950.899" r="10" transform="rotate(162 645.856 950.899)" fill="black"/>
<circle cx="598.134" cy="963.686" r="10" transform="rotate(168 598.134 963.686)" fill="black"/>
<circle cx="549.338" cy="971.414" r="10" transform="rotate(174 549.338 971.414)" fill="black"/>
<circle cx="500" cy="974" r="10" transform="rotate(180 500 974)" fill="black"/>
<circle cx="450.663" cy="971.414" r="10" transform="rotate(-174 450.663 971.414)" fill="black"/>
<circle cx="401.866" cy="963.686" r="10" transform="rotate(-168 401.866 963.686)" fill="black"/>
<circle cx="354.144" cy="950.899" r="10" transform="rotate(-162 354.144 950.899)" fill="black"/>
<circle cx="308.02" cy="933.193" r="10" transform="rotate(-156 308.02 933.193)" fill="black"/>
<circle cx="264" cy="910.764" r="10" transform="rotate(-150 264 910.764)" fill="black"/>
<circle cx="222.565" cy="883.856" r="10" transform="rotate(-144 222.565 883.856)" fill="black"/>
<circle cx="184.17" cy="852.764" r="10" transform="rotate(-138 184.17 852.764)" fill="black"/>
<circle cx="149.236" cy="817.83" r="10" transform="rotate(-132 149.236 817.83)" fill="black"/>
<circle cx="118.144" cy="779.435" r="10" transform="rotate(-126 118.144 779.435)" fill="black"/>
<circle cx="91.236" cy="738" r="10" transform="rotate(-120 91.236 738)" fill="black"/>
<circle cx="68.8065" cy="693.98" r="10" transform="rotate(-114 68.8065 693.98)" fill="black"/>
<circle cx="51.1013" cy="647.856" r="10" transform="rotate(-108 51.1013 647.856)" fill="black"/>
<circle cx="38.3143" cy="600.134" r="10" transform="rotate(-102 38.3143 600.134)" fill="black"/>
<circle cx="30.5857" cy="551.337" r="10" transform="rotate(-96 30.5857 551.337)" fill="black"/>
<circle cx="28" cy="502" r="10" transform="rotate(-90 28 502)" fill="black"/>
<circle cx="30.5857" cy="452.663" r="10" transform="rotate(-84 30.5857 452.663)" fill="black"/>
<circle cx="38.3144" cy="403.866" r="10" transform="rotate(-78 38.3144 403.866)" fill="black"/>
<circle cx="51.1013" cy="356.144" r="10" transform="rotate(-72 51.1013 356.144)" fill="black"/>
<circle cx="68.8066" cy="310.02" r="10" transform="rotate(-66 68.8066 310.02)" fill="black"/>
<circle cx="91.236" cy="266" r="10" transform="rotate(-60 91.236 266)" fill="black"/>
<circle cx="118.144" cy="224.565" r="10" transform="rotate(-54 118.144 224.565)" fill="black"/>
<circle cx="149.236" cy="186.17" r="10" transform="rotate(-48 149.236 186.17)" fill="black"/>
<circle cx="184.17" cy="151.236" r="10" transform="rotate(-42 184.17 151.236)" fill="black"/>
<circle cx="222.565" cy="120.144" r="10" transform="rotate(-36 222.565 120.144)" fill="black"/>
<circle cx="264" cy="93.2361" r="10" transform="rotate(-30 264 93.2361)" fill="black"/>
<circle cx="308.02" cy="70.8065" r="10" transform="rotate(-24 308.02 70.8065)" fill="black"/>
<circle cx="354.144" cy="53.1013" r="10" transform="rotate(-18 354.144 53.1013)" fill="black"/>
<circle cx="401.866" cy="40.3143" r="10" transform="rotate(-12 401.866 40.3143)" fill="black"/>
<circle cx="450.663" cy="32.5857" r="10" transform="rotate(-6 450.663 32.5857)" fill="black"/>
</svg>
