<svg width="1000" height="1000" viewBox="0 0 1000 1000" fill="none" xmlns="http://www.w3.org/2000/svg">
<rect x="498" width="4" height="30" fill="black"/>
<rect x="550.275" y="2.53" width="4" height="30" transform="rotate(6 550.275 2.53)" fill="black"/>
<rect x="602" y="9.51038" width="4" height="30" transform="rotate(12 602 9.51038)" fill="black"/>
<rect x="652.606" y="23.8537" width="4" height="30" transform="rotate(18 652.606 23.8537)" fill="black"/>
<rect x="701.541" y="42.4138" width="4" height="30" transform="rotate(24 701.541 42.4138)" fill="black"/>
<rect x="748.268" y="65.9873" width="4" height="30" transform="rotate(30 748.268 65.9873)" fill="black"/>
<rect x="792.275" y="94.3159" width="4" height="30" transform="rotate(36 792.275 94.3159)" fill="black"/>
<rect x="833.079" y="127.089" width="4" height="30" transform="rotate(42 833.079 127.089)" fill="black"/>
<rect x="870.234" y="163.948" width="4" height="30" transform="rotate(48 870.234 163.948)" fill="black"/>
<rect x="903.333" y="204.489" width="4" height="30" transform="rotate(54 903.333 204.489)" fill="black"/>
<rect x="932.013" y="248.268" width="4" height="30" transform="rotate(60 932.013 248.268)" fill="black"/>
<rect x="955.959" y="294.805" width="4" height="30" transform="rotate(66 955.959 294.805)" fill="black"/>
<rect x="974.91" y="343.589" width="4" height="30" transform="rotate(72 974.91 343.589)" fill="black"/>
<rect x="988.658" y="394.088" width="4" height="30" transform="rotate(78 988.658 394.088)" fill="black"/>
<rect x="997.052" y="445.747" width="4" height="30" transform="rotate(84 997.052 445.747)" fill="black"/>
<rect x="1000" y="498" width="4" height="30" transform="rotate(90 1000 498)" fill="black"/>
<rect x="997.47" y="550.275" width="4" height="30" transform="rotate(96 997.47 550.275)" fill="black"/>
<rect x="989.49" y="602" width="4" height="30" transform="rotate(102 989.49 602)" fill="black"/>
<rect x="976.146" y="652.606" width="4" height="30" transform="rotate(108 976.146 652.606)" fill="black"/>
<rect x="957.586" y="701.541" width="4" height="30" transform="rotate(114 957.586 701.541)" fill="black"/>
<rect x="934.013" y="748.268" width="4" height="30" transform="rotate(120 934.013 748.268)" fill="black"/>
<rect x="905.684" y="792.275" width="4" height="30" transform="rotate(126 905.684 792.275)" fill="black"/>
<rect x="872.911" y="833.079" width="4" height="30" transform="rotate(132 872.911 833.079)" fill="black"/>
<rect x="836.052" y="870.234" width="4" height="30" transform="rotate(138 836.052 870.234)" fill="black"/>
<rect x="795.511" y="903.333" width="4" height="30" transform="rotate(144 795.511 903.333)" fill="black"/>
<rect x="751.732" y="932.013" width="4" height="30" transform="rotate(150 751.732 932.013)" fill="black"/>
<rect x="705.195" y="955.959" width="4" height="30" transform="rotate(156 705.195 955.959)" fill="black"/>
<rect x="656.411" y="974.91" width="4" height="30" transform="rotate(162 656.411 974.91)" fill="black"/>
<rect x="605.912" y="988.658" width="4" height="30" transform="rotate(168 605.912 988.658)" fill="black"/>
<rect x="554.253" y="997.052" width="4" height="30" transform="rotate(174 554.253 997.052)" fill="black"/>
<rect x="502" y="1000" width="4" height="30" transform="rotate(180 502 1000)" fill="black"/>
<rect x="449.725" y="997.47" width="4" height="30" transform="rotate(-174 449.725 997.47)" fill="black"/>
<rect x="398" y="989.49" width="4" height="30" transform="rotate(-168 398 989.49)" fill="black"/>
<rect x="347.394" y="976.146" width="4" height="30" transform="rotate(-162 347.394 976.146)" fill="black"/>
<rect x="298.459" y="957.586" width="4" height="30" transform="rotate(-156 298.459 957.586)" fill="black"/>
<rect x="251.732" y="934.013" width="4" height="30" transform="rotate(-150 251.732 934.013)" fill="black"/>
<rect x="207.725" y="905.684" width="4" height="30" transform="rotate(-144 207.725 905.684)" fill="black"/>
<rect x="166.921" y="872.911" width="4" height="30" transform="rotate(-138 166.921 872.911)" fill="black"/>
<rect x="129.766" y="836.052" width="4" height="30" transform="rotate(-132 129.766 836.052)" fill="black"/>
<rect x="96.6671" y="795.511" width="4" height="30" transform="rotate(-126 96.6671 795.511)" fill="black"/>
<rect x="67.9873" y="751.732" width="4" height="30" transform="rotate(-120 67.9873 751.732)" fill="black"/>
<rect x="44.0407" y="705.195" width="4" height="30" transform="rotate(-114 44.0407 705.195)" fill="black"/>
<rect x="25.0898" y="656.411" width="4" height="30" transform="rotate(-108 25.0898 656.411)" fill="black"/>
<rect x="11.342" y="605.912" width="4" height="30" transform="rotate(-102 11.342 605.912)" fill="black"/>
<rect x="2.94812" y="554.253" width="4" height="30" transform="rotate(-96 2.94812 554.253)" fill="black"/>
<rect x="500" y="0" width="4" height="30" transform="rotate(-90 500 500)" fill="black"/>
<rect x="2.53003" y="449.725" width="4" height="30" transform="rotate(-84 2.53003 449.725)" fill="black"/>
<rect x="10.5104" y="398" width="4" height="30" transform="rotate(-78 10.5104 398)" fill="black"/>
<rect x="23.8538" y="347.394" width="4" height="30" transform="rotate(-72 23.8538 347.394)" fill="black"/>
<rect x="42.4138" y="298.459" width="4" height="30" transform="rotate(-66 42.4138 298.459)" fill="black"/>
<rect x="65.9873" y="251.732" width="4" height="30" transform="rotate(-60 65.9873 251.732)" fill="black"/>
<rect x="94.3159" y="207.725" width="4" height="30" transform="rotate(-54 94.3159 207.725)" fill="black"/>
<rect x="127.089" y="166.921" width="4" height="30" transform="rotate(-48 127.089 166.921)" fill="black"/>
<rect x="163.948" y="129.766" width="4" height="30" transform="rotate(-42 163.948 129.766)" fill="black"/>
<rect x="204.489" y="96.6671" width="4" height="30" transform="rotate(-36 204.489 96.6671)" fill="black"/>
<rect x="248.268" y="67.9873" width="4" height="30" transform="rotate(-30 248.268 67.9873)" fill="black"/>
<rect x="294.805" y="44.0407" width="4" height="30" transform="rotate(-24 294.805 44.0407)" fill="black"/>
<rect x="343.589" y="25.0898" width="4" height="30" transform="rotate(-18 343.589 25.0898)" fill="black"/>
<rect x="394.088" y="11.342" width="4" height="30" transform="rotate(-12 394.088 11.342)" fill="black"/>
<rect x="445.747" y="2.9481" width="4" height="30" transform="rotate(-6 445.747 2.9481)" fill="black"/>
</svg>
