<svg width="1000" height="1000" viewBox="0 0 1000 1000" fill="none" xmlns="http://www.w3.org/2000/svg">
<path d="M546.697 34.6468L542.577 74.2369L547.102 74.7077L551.222 35.1176L546.697 34.6468Z" fill="black"/>
<path d="M595.171 42.0537L586.93 80.995L591.381 81.9367L599.622 42.9954L595.171 42.0537Z" fill="black"/>
<path d="M642.494 54.3061L630.208 92.1686L634.536 93.5725L646.821 55.7099L642.494 54.3061Z" fill="black"/>
<path d="M688.336 71.7065L672.121 108.06L676.276 109.913L692.491 73.5593L688.336 71.7065Z" fill="black"/>
<path d="M773.226 120.184L749.8 152.371L753.48 155.047L776.905 122.861L773.226 120.184Z" fill="black"/>
<path d="M811.394 150.907L784.748 180.482L788.129 183.526L814.774 153.951L811.394 150.907Z" fill="black"/>
<path d="M846.148 185.336L816.568 211.978L819.613 215.358L849.193 188.716L846.148 185.336Z" fill="black"/>
<path d="M877.072 223.24L844.884 246.661L847.562 250.339L879.749 226.918L877.072 223.24Z" fill="black"/>
<path d="M926.592 307.663L890.232 323.871L892.084 328.026L928.444 311.818L926.592 307.663Z" fill="black"/>
<path d="M944.315 353.289L906.451 365.58L907.856 369.907L945.72 357.615L944.315 353.289Z" fill="black"/>
<path d="M957.422 400.595L918.47 408.83L919.412 413.281L958.363 405.045L957.422 400.595Z" fill="black"/>
<path d="M964.929 448.848L925.332 452.96L925.802 457.485L965.399 453.373L964.929 448.848Z" fill="black"/>
<path d="M925.873 542.577L925.403 547.101L965 551.213L965.47 546.689L925.873 542.577Z" fill="black"/>
<path d="M919.358 586.715L918.416 591.165L957.367 599.405L958.309 594.954L919.358 586.715Z" fill="black"/>
<path d="M907.865 630.043L906.46 634.37L944.324 646.662L945.729 642.335L907.865 630.043Z" fill="black"/>
<path d="M891.971 672.014L890.118 676.169L926.478 692.378L928.33 688.223L891.971 672.014Z" fill="black"/>
<path d="M847.649 749.683L844.972 753.361L877.16 776.782L879.837 773.104L847.649 749.683Z" fill="black"/>
<path d="M819.725 784.71L816.679 788.09L846.255 814.735L849.301 811.356L819.725 784.71Z" fill="black"/>
<path d="M788.079 816.287L784.699 819.332L811.349 848.903L814.729 845.858L788.079 816.287Z" fill="black"/>
<path d="M753.397 844.878L749.718 847.554L773.143 879.737L776.822 877.06L753.397 844.878Z" fill="black"/>
<path d="M676.238 890.193L672.083 892.046L688.294 928.4L692.45 926.547L676.238 890.193Z" fill="black"/>
<path d="M634.401 906.461L630.074 907.865L642.367 945.724L646.695 944.319L634.401 906.461Z" fill="black"/>
<path d="M591.446 918.34L586.994 919.281L595.231 958.226L599.683 957.285L591.446 918.34Z" fill="black"/>
<path d="M547.047 925.311L542.521 925.781L546.634 965.371L551.159 964.901L547.047 925.311Z" fill="black"/>
<path d="M453.004 925.325L448.883 964.915L453.409 965.386L457.529 925.796L453.004 925.325Z" fill="black"/>
<path d="M408.779 918.172L400.538 957.113L404.989 958.055L413.23 919.114L408.779 918.172Z" fill="black"/>
<path d="M365.691 906.372L353.405 944.234L357.733 945.638L370.019 907.776L365.691 906.372Z" fill="black"/>
<path d="M323.907 890.02L307.692 926.374L311.847 928.227L328.062 891.873L323.907 890.02Z" fill="black"/>
<path d="M246.823 844.941L223.398 877.128L227.077 879.805L250.502 847.618L246.823 844.941Z" fill="black"/>
<path d="M212.091 816.461L185.445 846.036L188.825 849.08L215.471 819.505L212.091 816.461Z" fill="black"/>
<path d="M180.579 784.588L150.999 811.23L154.044 814.61L183.624 787.968L180.579 784.588Z" fill="black"/>
<path d="M152.326 749.57L120.139 772.991L122.816 776.669L155.004 753.248L152.326 749.57Z" fill="black"/>
<path d="M107.977 672.077L71.6171 688.285L73.4698 692.44L109.83 676.231L107.977 672.077Z" fill="black"/>
<path d="M92.1864 630.033L54.3217 642.325L55.7267 646.652L93.5914 634.36L92.1864 630.033Z" fill="black"/>
<path d="M80.8862 586.909L41.9346 595.144L42.876 599.595L81.8276 591.36L80.8862 586.909Z" fill="black"/>
<path d="M74.1653 542.573L34.5688 546.685L35.0388 551.21L74.6353 547.098L74.1653 542.573Z" fill="black"/>
<path d="M35.0379 448.872L34.5679 453.397L74.1644 457.509L74.6344 452.984L35.0379 448.872Z" fill="black"/>
<path d="M42.9425 400.407L42.0011 404.857L80.9527 413.093L81.8941 408.642L42.9425 400.407Z" fill="black"/>
<path d="M55.7353 353.324L54.3303 357.65L92.195 369.942L93.6 365.616L55.7353 353.324Z" fill="black"/>
<path d="M73.5613 307.63L71.7086 311.785L108.068 327.993L109.921 323.838L73.5613 307.63Z" fill="black"/>
<path d="M122.878 223.333L120.201 227.011L152.388 250.433L155.066 246.755L122.878 223.333Z" fill="black"/>
<path d="M154.038 185.427L150.992 188.806L180.568 215.452L183.614 212.072L154.038 185.427Z" fill="black"/>
<path d="M188.752 150.906L185.372 153.951L212.022 183.522L215.402 180.477L188.752 150.906Z" fill="black"/>
<path d="M226.848 120.331L223.169 123.008L246.594 155.191L250.273 152.514L226.848 120.331Z" fill="black"/>
<path d="M311.77 71.7133L307.615 73.5657L323.826 109.92L327.981 108.067L311.77 71.7133Z" fill="black"/>
<path d="M357.551 54.4193L353.224 55.8241L365.518 93.6827L369.845 92.2779L357.551 54.4193Z" fill="black"/>
<path d="M405.057 41.9088L400.605 42.85L408.842 81.7952L413.294 80.854L405.057 41.9088Z" fill="black"/>
<path d="M453.315 34.4922L448.79 34.9621L452.902 74.5522L457.428 74.0823L453.315 34.4922Z" fill="black"/>
<path d="M92.6227 292.77L93.5977 293.42L96.3601 288.871L95.5476 288.221C93.7601 286.921 92.6227 285.459 92.1352 283.834C91.8102 282.21 91.9727 280.747 92.9477 279.123C93.7602 277.66 95.0602 276.686 96.5226 276.361C98.1476 275.873 99.4475 276.198 100.747 276.848C101.885 277.498 102.697 278.31 103.347 279.61C103.997 280.91 104.81 283.184 105.947 286.759L111.797 306.905L125.122 284.647L120.41 281.885L113.422 293.582L110.822 284.647C109.685 280.91 108.71 278.31 107.735 276.523C106.76 274.736 105.297 273.274 103.51 272.299C101.072 270.837 98.3101 270.349 95.3851 270.999C92.4602 271.649 90.1853 273.436 88.3978 276.198C86.6104 279.123 86.1228 282.047 86.9353 285.134C87.7478 288.383 89.6978 290.983 92.6227 292.77Z" fill="black"/>
<path d="M106.76 268.075L107.735 268.725L110.497 264.176L109.685 263.526C107.897 262.226 106.76 260.764 106.272 259.139C105.947 257.514 106.11 256.052 107.085 254.427C107.897 252.965 109.197 252.153 110.66 251.665C112.285 251.178 113.585 251.503 114.885 252.153C116.022 252.803 116.835 253.777 117.485 254.915C118.135 256.214 118.947 258.489 120.085 262.063L125.934 282.21L139.259 259.951L134.547 257.189L127.559 268.887L124.959 259.951C123.822 256.214 122.847 253.615 121.872 251.828C120.897 250.041 119.435 248.578 117.647 247.604C115.21 246.141 112.447 245.654 109.522 246.304C106.597 246.954 104.322 248.741 102.535 251.503C100.748 254.427 100.26 257.352 101.072 260.439C101.885 263.688 103.835 266.125 106.76 268.075Z" fill="black"/>
<path d="M46.4739 522.665H47.6113V517.303H46.6364C44.3614 517.141 42.7364 516.491 41.4365 515.191C40.299 514.054 39.649 512.591 39.649 510.804C39.649 509.18 40.1365 507.717 41.274 506.58C42.4115 505.443 43.7114 504.793 45.1739 504.793C46.4738 504.793 47.6113 505.118 48.7488 505.768C50.0487 506.418 51.9988 508.042 54.5987 510.642L70.0358 524.939V498.944H64.6734V512.591L57.8486 506.255C54.9237 503.656 52.8112 501.868 51.0238 500.894C49.2363 499.919 47.2864 499.431 45.3364 499.431C42.4115 499.431 39.8115 500.406 37.6991 502.518C35.5866 504.63 34.4492 507.392 34.4492 510.642C34.4492 514.054 35.5866 516.816 37.8615 519.09C39.974 521.365 42.899 522.502 46.4739 522.665Z" fill="black"/>
<path d="M40.624 493.907V487.896H70.0358V482.372H35.0992V490.658L40.624 493.907Z" fill="black"/>
<path d="M121.384 744.76L118.622 740.211L117.647 740.699C115.697 741.674 113.747 741.998 112.122 741.511C110.497 741.024 109.36 740.211 108.385 738.587C107.572 737.124 107.247 735.662 107.735 734.037C108.06 732.413 108.872 731.275 110.172 730.626C111.31 729.976 112.447 729.651 113.747 729.651C115.21 729.651 117.647 729.976 121.222 730.788L141.696 735.175L128.534 712.916L123.822 715.678L130.809 727.376L121.709 725.427C117.972 724.614 115.047 724.289 113.097 724.289C111.147 724.289 109.197 724.939 107.41 725.914C104.81 727.376 103.185 729.651 102.372 732.413C101.56 735.337 102.047 738.262 103.672 741.024C105.297 743.948 107.897 745.735 110.985 746.548C111.96 746.873 112.935 746.873 113.91 746.873C116.022 746.873 118.135 746.223 120.247 745.085L121.384 744.76Z" fill="black"/>
<path d="M113.097 721.04C116.997 718.765 119.597 716.653 121.222 714.379C122.847 712.267 123.822 709.992 124.147 707.717C124.309 705.443 123.822 703.331 122.684 701.219C121.547 699.269 119.76 697.644 117.647 696.669C115.535 695.695 112.935 695.532 110.172 695.857C107.41 696.345 104.16 697.644 100.585 699.756C97.0101 701.869 94.2477 704.143 92.6227 706.418C90.8353 708.692 89.8603 710.967 89.6978 713.241C89.5353 715.516 90.0228 717.791 91.1603 719.74C92.2978 721.69 94.0852 723.152 96.1976 724.127C97.6601 724.777 99.2851 725.102 100.91 725.102C101.723 725.102 102.535 725.102 103.51 724.939C106.11 724.777 109.197 723.314 113.097 721.04ZM118.785 707.555C118.622 708.855 117.972 710.317 116.835 711.617C115.697 713.079 113.422 714.704 110.497 716.491C107.41 718.278 104.972 719.415 103.185 719.74C101.397 720.065 99.935 720.065 98.6351 719.415C97.3351 718.928 96.5226 718.115 95.8726 717.141C95.2226 716.166 95.0602 715.029 95.2227 713.566C95.3852 712.267 96.0352 710.804 97.3351 709.18C98.6351 707.555 100.748 705.93 103.51 704.306C106.272 702.681 108.71 701.706 110.985 701.219C111.635 701.056 112.447 701.056 113.097 701.056C114.072 701.056 114.885 701.219 115.535 701.544C116.835 702.031 117.647 702.843 118.297 703.818C118.785 704.955 118.947 706.093 118.785 707.555Z" fill="black"/>
<path d="M294.768 878.635L278.518 909.667L285.83 913.404L291.355 910.154L285.993 907.392L299.643 881.235L294.768 878.635Z" fill="black"/>
<path d="M269.906 881.235C269.581 881.072 269.418 880.91 269.093 880.91L281.768 873.924L279.006 869.212L262.431 878.31C260.156 879.61 258.369 880.747 257.231 881.885C255.931 883.022 254.956 884.322 254.306 885.621C253.331 887.409 253.006 889.196 253.006 891.308C253.006 893.257 253.656 895.207 254.631 896.832C255.769 898.457 257.069 899.756 258.856 900.731C260.481 901.544 262.269 902.031 264.218 902.031C264.381 902.031 264.543 902.031 264.543 902.031C266.656 902.031 268.443 901.381 270.068 900.406C271.693 899.431 272.993 897.969 273.968 896.02C275.431 893.258 275.593 890.496 274.781 887.734C274.293 884.647 272.506 882.535 269.906 881.235ZM269.418 893.095C268.606 894.557 267.631 895.37 266.006 895.857C264.543 896.344 263.081 896.182 261.618 895.532C260.156 894.72 259.181 893.745 258.856 892.12C258.369 890.658 258.531 889.196 259.181 887.734C259.994 886.271 260.969 885.459 262.594 884.972C263.243 884.809 263.731 884.647 264.381 884.647C265.193 884.647 266.168 884.809 266.981 885.297C268.443 886.109 269.256 887.084 269.743 888.708C270.231 890.333 270.068 891.795 269.418 893.095Z" fill="black"/>
<path d="M739.682 891.633L724.244 866.45L719.532 869.375L737.732 899.107L744.881 894.882V888.383L739.682 891.633Z" fill="black"/>
<path d="M712.545 908.205L710.432 876.361L705.07 876.686L707.832 917.465L728.144 905.118L725.382 900.406L712.545 908.205Z" fill="black"/>
<path d="M516.737 927.214L511.212 927.376L512.025 962.307L520.15 962.145L523.4 956.621H517.387L516.737 927.214Z" fill="black"/>
<path d="M500.325 943.298C501.462 941.673 501.95 939.724 501.787 937.774C501.787 935.012 500.65 932.413 498.538 930.3C496.425 928.026 493.338 926.889 489.438 927.051C485.375 927.214 482.125 928.513 480.013 931.113C478.226 933.225 477.413 935.825 477.413 938.586C477.413 940.536 478.063 942.486 479.201 943.948C480.013 945.085 481.151 946.06 482.776 947.035C481.801 947.685 481.15 948.497 480.663 949.309C479.851 950.609 479.363 952.234 479.363 953.859C479.363 955.483 479.85 957.108 480.825 958.733C481.8 960.195 483.1 961.495 484.725 962.307C486.35 963.119 487.975 963.444 489.763 963.444C489.925 963.444 489.925 963.444 490.088 963.444C492.038 963.444 493.825 962.957 495.45 961.982C497.075 961.007 498.375 959.87 499.35 958.245C500.325 956.621 500.813 955.158 500.65 953.371C500.65 951.746 500.163 950.284 499.188 948.822C498.538 948.01 497.725 947.197 496.75 946.385C498.375 945.735 499.512 944.598 500.325 943.298ZM489.6 944.11C487.813 944.11 486.188 943.623 484.888 942.323C483.588 941.186 482.938 939.886 482.938 938.262C482.938 936.637 483.425 935.337 484.563 934.037C485.7 932.738 487.325 932.25 489.438 932.088H489.6C490.9 932.088 492.038 932.25 493.013 932.738C493.988 933.225 494.8 933.875 495.288 934.687C495.775 935.5 496.1 936.474 496.1 937.449C496.1 939.074 495.613 940.536 494.313 941.836C493.175 943.461 491.55 943.948 489.6 944.11ZM485.538 951.746C486.025 950.934 486.513 950.447 487.325 949.959C488.138 949.472 488.95 949.309 489.763 949.309H489.925C491.225 949.309 492.525 949.797 493.5 950.772C494.638 951.747 495.125 952.721 495.125 953.859C495.125 954.996 494.638 955.971 493.825 956.783C492.85 957.595 491.713 958.083 490.088 958.083C488.3 958.083 487.163 957.758 486.188 956.783C485.375 955.971 484.888 954.996 484.888 954.021C484.888 953.371 485.05 952.559 485.538 951.746Z" fill="black"/>
<path d="M905.915 722.015L880.566 707.068L877.803 711.942L907.865 729.488L912.09 722.502L909.002 716.816L905.915 722.015Z" fill="black"/>
<path d="M884.465 729.813C883.328 728.514 882.191 727.539 880.891 726.726C879.103 725.752 877.316 725.264 875.366 725.102C873.416 725.102 871.466 725.589 869.841 726.564C868.216 727.539 866.753 728.838 865.778 730.626C864.803 732.413 864.153 734.362 864.153 736.312C864.153 738.424 864.641 740.211 865.616 741.998C866.591 743.623 868.053 745.085 869.841 746.06C872.441 747.522 875.203 748.01 877.966 747.36C880.728 746.71 883.003 745.085 884.465 742.486C884.628 742.323 884.791 741.998 884.791 741.674L891.128 754.509L896.003 752.072L887.715 735.012C886.74 732.9 885.603 731.113 884.465 729.813ZM880.403 739.399C879.591 740.861 878.453 741.674 876.828 741.998C875.203 742.486 873.903 742.161 872.441 741.349C871.141 740.536 870.166 739.399 869.841 737.937C869.516 736.312 869.678 735.012 870.491 733.55C871.303 732.25 872.441 731.275 874.066 730.951C874.553 730.788 875.041 730.788 875.528 730.788C876.503 730.788 877.478 731.113 878.291 731.6C879.753 732.413 880.566 733.55 880.891 735.175C881.378 736.475 881.216 737.937 880.403 739.399Z" fill="black"/>
<path d="M960.351 482.372V488.384H930.939V493.907H965.876V485.622L960.351 482.372Z" fill="black"/>
<path d="M947.351 508.692C948.489 511.292 948.976 513.404 948.976 515.191C948.976 517.303 948.489 518.765 947.189 519.903C946.051 521.04 944.589 521.69 942.639 521.69C940.527 521.69 938.739 521.04 937.277 519.74C935.814 518.44 935.164 516.816 935.164 515.029C935.164 514.054 935.327 513.241 935.814 512.429C936.139 511.617 936.789 510.967 937.439 510.479C938.089 509.992 938.902 509.667 940.039 509.342L941.014 509.18V503.656L939.714 503.818C936.952 504.143 934.514 505.443 932.727 507.392C930.939 509.342 929.964 511.942 929.964 514.866C929.964 517.303 930.452 519.415 931.589 521.365C932.727 523.314 934.189 524.777 936.139 525.914C938.089 527.051 940.202 527.539 942.639 527.539C946.051 527.539 948.814 526.401 951.089 524.289C953.364 522.177 954.501 519.415 954.501 516.166C954.501 515.353 954.339 514.541 954.339 513.729L960.514 514.866V526.726H965.876V510.479L946.701 506.905L947.351 508.692Z" fill="black"/>
<path d="M864.803 273.761L867.566 278.473L897.79 261.089L893.728 253.94L887.39 253.777L890.315 258.976L864.803 273.761Z" fill="black"/>
<path d="M887.39 278.148C883.49 280.422 880.891 282.535 879.103 284.647C877.316 286.759 876.341 289.033 876.178 291.308C876.016 293.583 876.341 295.695 877.641 297.807C878.778 299.919 880.565 301.381 882.678 302.356C884.14 303.006 885.928 303.331 887.878 303.331C888.69 303.331 889.34 303.331 890.153 303.168C892.915 302.843 896.165 301.544 899.74 299.431C903.477 297.319 906.077 295.207 907.865 292.933C909.652 290.658 910.627 288.383 910.79 286.109C910.952 283.834 910.465 281.56 909.327 279.61C908.19 277.661 906.565 276.036 904.452 275.061C902.34 274.086 899.902 273.761 897.303 274.249C894.54 274.574 891.29 275.873 887.39 278.148ZM881.541 291.633C881.703 290.333 882.353 288.871 883.49 287.571C884.79 286.109 886.903 284.484 889.99 282.86C893.078 281.072 895.515 279.935 897.465 279.61C899.252 279.285 900.715 279.448 902.015 279.935C903.315 280.422 904.127 281.235 904.777 282.21C905.427 283.184 905.59 284.322 905.427 285.784C905.265 287.084 904.452 288.546 903.152 290.008C901.852 291.633 899.74 293.095 896.978 294.72C894.215 296.344 891.778 297.319 889.503 297.644C887.715 297.969 886.253 297.969 884.953 297.319C883.653 296.832 882.84 296.02 882.19 295.045C881.703 294.232 881.378 292.933 881.541 291.633Z" fill="black"/>
<path d="M711.732 127.214C713.682 128.513 715.795 129.326 717.907 129.488C718.232 129.488 718.557 129.488 718.882 129.488C720.67 129.488 722.457 129.001 724.082 128.188C726.032 127.214 727.819 125.751 729.119 123.802C731.069 121.04 731.719 118.115 731.232 115.028C730.744 111.942 729.12 109.505 726.357 107.717C725.707 107.23 725.057 106.905 724.245 106.58L728.795 102.031L738.544 108.692L741.632 104.305L728.307 95.2072L714.495 108.855L716.607 109.342C719.37 109.829 721.482 110.642 722.945 111.617C724.569 112.754 725.545 114.054 725.87 115.678C726.195 117.303 725.87 118.928 724.732 120.39C723.432 122.177 721.97 123.314 720.02 123.639C718.07 124.127 716.445 123.802 714.982 122.665C714.17 122.177 713.682 121.527 713.195 120.715C712.707 119.903 712.545 119.09 712.382 118.278C712.382 117.466 712.545 116.491 713.032 115.516L713.357 114.704L708.807 111.617L708.157 112.754C706.857 115.353 706.533 117.953 707.182 120.552C707.832 123.314 709.458 125.427 711.732 127.214Z" fill="black"/>
<path d="M256.581 115.028C255.606 112.916 255.281 111.129 255.769 109.505C256.256 107.88 257.231 106.743 258.694 105.768C260.156 104.955 261.618 104.63 263.243 105.118C264.868 105.443 265.843 106.418 266.656 107.717C267.306 108.855 267.631 109.992 267.631 111.292C267.631 112.754 267.143 115.191 266.331 118.765L261.618 139.236L284.043 126.239L281.281 121.527L269.418 128.351L271.531 119.253C272.343 115.516 272.831 112.591 272.668 110.642C272.668 108.53 272.018 106.743 271.043 104.955C269.581 102.356 267.468 100.731 264.543 99.9188C261.618 99.1065 258.694 99.4314 255.931 101.219C253.006 102.843 251.219 105.28 250.244 108.367C249.431 111.454 249.756 114.541 251.544 117.628L252.031 118.603L256.744 116.003L256.581 115.028Z" fill="black"/>
<path d="M295.255 99.9188C294.118 99.5939 293.143 99.2689 292.005 99.2689C292.98 96.6694 292.818 94.2324 291.518 92.1203C290.705 90.658 289.568 89.5208 287.943 88.7084C286.48 87.8961 284.693 87.4087 282.743 87.5711C280.956 87.5711 279.168 88.221 277.543 89.0333C275.268 90.3331 273.643 92.1203 272.831 94.5573C272.018 96.8319 272.018 99.5939 272.831 102.356L273.318 103.656L278.193 100.894L278.031 100.081C277.706 98.2941 277.868 96.8319 278.193 95.8571C278.518 94.8823 279.331 94.0699 280.306 93.5825C281.605 92.9326 282.743 92.6077 284.043 92.9326C285.18 93.2576 285.993 93.745 286.643 94.7198C286.968 95.3697 287.13 96.0195 287.13 96.8319C287.13 97.6442 286.643 98.4566 285.993 99.2689C285.343 100.244 284.368 101.056 283.23 101.706L282.255 102.193L284.855 106.743L285.83 106.255C287.943 105.118 289.568 104.63 290.868 104.468C292.005 104.305 292.98 104.63 293.955 105.118C294.93 105.605 295.743 106.255 296.23 107.23C297.043 108.692 297.205 110.154 296.718 111.779C296.23 113.404 295.093 114.704 293.305 115.841C291.68 116.816 290.218 116.978 288.755 116.653C287.618 116.328 286.318 115.516 284.855 114.216L284.205 113.566L279.493 116.328L280.306 117.303C282.58 119.903 285.018 121.527 287.78 122.015C288.43 122.177 289.08 122.177 289.893 122.177C292.005 122.177 293.955 121.527 295.905 120.39C297.855 119.253 299.48 117.79 300.455 116.003C301.593 114.216 302.08 112.266 302.08 109.992C302.08 107.88 301.592 105.93 300.618 104.143C299.318 102.356 297.53 100.731 295.255 99.9188Z" fill="black"/>
<path d="M487.813 53.615L473.513 69.0496H499.513V63.6881H485.863L492.2 56.8644C494.8 53.9399 496.588 51.8278 497.563 50.0407C498.538 48.2535 499.025 46.3039 499.025 44.3542C499.025 41.4298 498.05 38.8303 495.938 36.7182C493.825 34.6061 491.063 33.4688 487.813 33.4688C484.4 33.4688 481.638 34.6061 479.363 36.8806C477.088 39.1552 475.951 42.0797 475.788 45.654V46.7913H481.151V45.8165C481.313 43.5419 481.963 41.9172 483.263 40.6174C484.4 39.4801 485.863 38.8303 487.65 38.8303C489.275 38.8303 490.738 39.3177 491.875 40.455C493.013 41.5922 493.663 42.892 493.663 44.3542C493.663 45.654 493.338 46.7913 492.688 47.9286C491.875 48.9034 490.25 50.853 487.813 53.615Z" fill="black"/>
<path d="M521.125 33.1438H518.687L498.863 61.2511H515.6V68.8871H521.125V61.2511H525.024V55.8896H521.125V33.1438ZM509.262 56.052L515.6 47.1162V56.052H509.262Z" fill="black"/>
<path d="M540.671 115.195L539.349 115.006L541.994 89.8837H543.316L540.671 115.195Z" fill="black"/>
<path d="M584.869 96.2717L579.618 121.034L580.912 121.308L586.162 96.5459L584.869 96.2717Z" fill="black"/>
<path d="M626.416 107.529L618.588 131.6L619.846 132.009L627.673 107.938L626.416 107.529Z" fill="black"/>
<path d="M657.425 146.556L656.292 145.989L666.682 122.945L667.816 123.322L657.425 146.556Z" fill="black"/>
<path d="M727.327 187.168L726.382 186.413L741.307 165.824L742.252 166.579L727.327 187.168Z" fill="black"/>
<path d="M774.625 193.192L757.691 212.006L758.674 212.891L775.608 194.076L774.625 193.192Z" fill="black"/>
<path d="M805.007 223.574L786.19 240.505L787.074 241.488L805.891 224.557L805.007 223.574Z" fill="black"/>
<path d="M812.72 272.925L811.964 271.792L832.557 256.869L833.313 258.003L812.72 272.925Z" fill="black"/>
<path d="M853.15 342.815L852.583 341.682L875.82 331.293L876.198 332.615L853.15 342.815Z" fill="black"/>
<path d="M891.272 371.579L867.197 379.405L867.606 380.663L891.681 372.836L891.272 371.579Z" fill="black"/>
<path d="M902.751 413.297L877.985 418.547L878.26 419.84L903.026 414.591L902.751 413.297Z" fill="black"/>
<path d="M884.133 459.739L883.944 458.417L909.26 455.772L909.449 457.095L884.133 459.739Z" fill="black"/>
<path d="M909.26 543.229L883.944 540.584L884.133 539.262L909.449 541.907L909.26 543.229Z" fill="black"/>
<path d="M878.399 578.981L878.126 580.275L902.895 585.514L903.168 584.22L878.399 578.981Z" fill="black"/>
<path d="M867.302 618.55L866.893 619.808L890.971 627.622L891.379 626.364L867.302 618.55Z" fill="black"/>
<path d="M875.82 667.707L852.583 657.318L853.15 656.184L876.198 666.573L875.82 667.707Z" fill="black"/>
<path d="M832.557 742.133L811.964 727.21L812.72 726.266L833.313 741.189L832.557 742.133Z" fill="black"/>
<path d="M787.539 757.952L786.654 758.934L805.461 775.878L806.346 774.896L787.539 757.952Z" fill="black"/>
<path d="M758.579 785.993L757.596 786.878L774.542 805.682L775.525 804.797L758.579 785.993Z" fill="black"/>
<path d="M741.307 833.178L726.382 812.588L727.327 811.833L742.252 832.422L741.307 833.178Z" fill="black"/>
<path d="M666.682 876.055L656.292 853.01L657.425 852.443L667.816 875.677L666.682 876.055Z" fill="black"/>
<path d="M619.67 867.088L618.412 867.496L626.23 891.57L627.487 891.162L619.67 867.088Z" fill="black"/>
<path d="M581.166 877.302L579.872 877.576L585.112 902.341L586.406 902.067L581.166 877.302Z" fill="black"/>
<path d="M541.994 909.301L539.349 883.99L540.671 883.801L543.316 909.113L541.994 909.301Z" fill="black"/>
<path d="M457.167 909.301L455.845 909.113L458.49 883.801L459.812 883.99L457.167 909.301Z" fill="black"/>
<path d="M418.809 877.341L413.559 902.103L414.853 902.377L420.103 877.615L418.809 877.341Z" fill="black"/>
<path d="M379.844 867.333L372.016 891.404L373.274 891.813L381.102 867.742L379.844 867.333Z" fill="black"/>
<path d="M332.667 876.055L331.533 875.677L341.735 852.443L342.868 853.01L332.667 876.055Z" fill="black"/>
<path d="M271.945 812.287L257.027 832.736L258.095 833.515L273.014 813.066L271.945 812.287Z" fill="black"/>
<path d="M240.523 786.247L223.587 805.061L224.57 805.946L241.506 787.132L240.523 786.247Z" fill="black"/>
<path d="M212.066 757.732L193.249 774.666L194.133 775.649L212.951 758.715L212.066 757.732Z" fill="black"/>
<path d="M166.793 742.133L166.037 741.189L186.441 726.266L187.197 727.21L166.793 742.133Z" fill="black"/>
<path d="M123.529 667.707L122.963 666.573L146.2 656.184L146.578 657.318L123.529 667.707Z" fill="black"/>
<path d="M131.59 618.296L107.514 626.122L107.923 627.379L131.999 619.553L131.59 618.296Z" fill="black"/>
<path d="M121.52 579.35L96.7541 584.6L97.0284 585.894L121.795 580.644L121.52 579.35Z" fill="black"/>
<path d="M89.901 543.229V541.907L115.027 539.262L115.216 540.584L89.901 543.229Z" fill="black"/>
<path d="M115.027 459.739L89.901 457.095V455.772L115.216 458.417L115.027 459.739Z" fill="black"/>
<path d="M96.6874 412.824L96.4137 414.118L121.182 419.355L121.456 418.061L96.6874 412.824Z" fill="black"/>
<path d="M107.949 371.74L107.54 372.998L131.618 380.814L132.026 379.557L107.949 371.74Z" fill="black"/>
<path d="M146.2 342.815L122.963 332.615L123.529 331.293L146.578 341.682L146.2 342.815Z" fill="black"/>
<path d="M166.842 257.132L166.064 258.201L186.532 273.097L187.31 272.028L166.842 257.132Z" fill="black"/>
<path d="M193.884 223.296L192.999 224.278L211.806 241.221L212.691 240.239L193.884 223.296Z" fill="black"/>
<path d="M224.315 192.74L223.332 193.625L240.279 212.428L241.261 211.543L224.315 192.74Z" fill="black"/>
<path d="M271.833 187.168L256.909 166.579L258.042 165.824L272.967 186.413L271.833 187.168Z" fill="black"/>
<path d="M341.735 146.556L331.533 123.322L332.667 122.945L342.868 145.989L341.735 146.556Z" fill="black"/>
<path d="M372.939 107.175L371.681 107.583L379.501 131.657L380.759 131.248L372.939 107.175Z" fill="black"/>
<path d="M414.895 96.8278L413.602 97.1013L418.839 121.866L420.133 121.593L414.895 96.8278Z" fill="black"/>
<path d="M458.49 115.195L455.845 89.8837H457.167L459.812 115.006L458.49 115.195Z" fill="black"/>
<path d="M499.675 913.079C271.645 913.079 86.1228 727.587 86.1228 499.594C86.1228 271.601 271.645 86.1089 499.675 86.1089C727.705 86.1089 913.227 271.601 913.227 499.594C913.227 727.587 727.705 913.079 499.675 913.079ZM499.675 88.5645C272.967 88.5645 88.5785 272.923 88.5785 499.594C88.5785 726.264 272.967 910.623 499.675 910.623C726.382 910.623 910.771 726.264 910.771 499.594C910.771 272.923 726.193 88.5645 499.675 88.5645Z" fill="black"/>
<path d="M499.675 886.633C286.192 886.633 112.572 713.041 112.572 499.593C112.572 286.145 286.192 112.364 499.675 112.364C713.158 112.364 886.777 285.956 886.777 499.404C886.777 712.852 713.158 886.633 499.675 886.633ZM499.675 115.008C287.514 115.008 115.028 287.467 115.028 499.593C115.028 711.719 287.514 884.178 499.675 884.178C711.835 884.178 884.322 711.719 884.322 499.593C884.322 287.467 711.646 115.008 499.675 115.008Z" fill="black"/>
</svg>
