<svg width="20" height="220" viewBox="0 0 20 220" fill="none" xmlns="http://www.w3.org/2000/svg">
<path fill-rule="evenodd" clip-rule="evenodd" d="M10 0C11.1046 0 12 0.895431 12 2V56.2002C16.5645 57.1267 20 61.1621 20 66C20 70.8378 16.5644 74.8722 12 75.7988V179.342C14.3303 180.166 16 182.388 16 185C16 187.612 14.3302 189.833 12 190.657V218C12 219.105 11.1046 220 10 220C8.89543 220 8 219.105 8 218V190.657C5.66984 189.833 4 187.612 4 185C4 182.388 5.66968 180.166 8 179.342V75.7988C3.43563 74.8722 0 70.8378 0 66C0 61.1621 3.43553 57.1267 8 56.2002V2C8 0.895431 8.89543 0 10 0ZM10 60C6.68629 60 4 62.6863 4 66C4 69.3137 6.68629 72 10 72C13.3137 72 16 69.3137 16 66C16 62.6863 13.3137 60 10 60Z" fill="#D9D9D9"/>
</svg>
