<svg width="12" height="224" viewBox="0 0 12 224" fill="none" xmlns="http://www.w3.org/2000/svg">
<path d="M6 0C7.10457 0 8 0.895431 8 2V164.391C9.76577 165.114 11 166.765 11 168.687C10.9999 170.608 9.76543 172.257 8 172.98V188.727C10.3303 189.55 11.9999 191.772 12 194.385V218C12 221.314 9.31371 224 6 224C2.68629 224 2.02066e-06 221.314 0 218V194.385C6.8994e-05 191.772 1.6697 189.55 4 188.727V172.98C2.23457 172.257 1.00014 170.608 1 168.687C1 166.765 2.23423 165.114 4 164.391V2C4 0.895433 4.89543 0 6 0Z" fill="#D9D9D9"/>
</svg>
