<svg width="20" height="220" viewBox="0 0 20 220" fill="none" xmlns="http://www.w3.org/2000/svg">
<path fill-rule="evenodd" clip-rule="evenodd" d="M10 0C11.1046 0 12 0.895431 12 2V170.416C13.7659 171.188 15 172.95 15 175C15 177.05 13.7657 178.811 12 179.583V189.2C16.5645 190.127 20 194.162 20 199C20 203.838 16.5644 207.872 12 208.799V218C12 219.105 11.1046 220 10 220C8.89543 220 8 219.105 8 218V208.799C3.43563 207.872 0 203.838 0 199C0 194.162 3.43553 190.127 8 189.2V179.583C6.23428 178.811 5 177.05 5 175C5 172.95 6.23409 171.188 8 170.416V2C8 0.895431 8.89543 0 10 0ZM10 193C6.68629 193 4 195.686 4 199C4 202.314 6.68629 205 10 205C13.3137 205 16 202.314 16 199C16 195.686 13.3137 193 10 193Z" fill="#D9D9D9"/>
</svg>
