<svg width="12" height="221" viewBox="0 0 12 221" fill="none" xmlns="http://www.w3.org/2000/svg">
<path d="M6.00781 0.944824C6.11813 0.316805 7.05176 0.349172 7.05176 0.986816L8.50879 165.549C10.5692 166.499 11.9998 168.582 12 171C12 173.38 10.6138 175.437 8.60449 176.407L8.97363 218.007C8.98818 219.656 7.65539 221 6.00684 221C4.35285 220.999 3.01846 219.647 3.04102 217.993L3.60645 176.502C1.48412 175.578 0 173.462 0 171C0.000175621 168.479 1.55461 166.322 3.75684 165.434L5.99902 1.02881C5.99941 1.00074 6.00296 0.972472 6.00781 0.944824Z" fill="#D9D9D9"/>
</svg>
