<svg xmlns="http://www.w3.org/2000/svg" width="70.001" height="348.389" viewBox="0 0 18.521 92.178"><path fill="#333" d="M6.057 91.6c-1.892-.799-2.904-1.524-3.928-2.817C.127 86.255-.42 83.367.517 80.28c.52-1.71.791-2.136 2.362-3.707 1.236-1.236 2.113-1.876 2.888-2.108l1.112-.333v-1.546c0-.85-.11-1.546-.244-1.546-.135 0-.61-.308-1.058-.685-1.088-.915-1.154-2.449-.14-3.247.371-.291.788-.568.926-.614.151-.05.093-.913-.145-2.158-.767-4.009-.374-10.517.806-13.343.322-.77.307-.956-.143-1.72-.863-1.464-.922-2.794-.185-4.233.355-.694.55-1.32.435-1.392-.116-.072-.476-.933-.8-1.913-1.025-3.104-1.773-4.364-4.082-6.881C1.012 33.505 0 32.328 0 32.237c0-.09.63-.952 1.398-1.914 2.398-2.999 3.404-4.498 3.904-5.812 1.02-2.687 2.09-9.857 2.856-19.164L8.6-.001h.66c.764 0 .8.186 1.313 6.747.391 5.005 1.208 11.401 1.857 14.54.66 3.194 1.605 5.087 4.094 8.2 1.099 1.374 1.998 2.606 1.998 2.736 0 .13-.841 1.148-1.87 2.263-2.524 2.737-3.156 3.755-4.188 6.747-.484 1.406-.99 2.555-1.123 2.555-.134 0 .028.368.36.816.852 1.153.853 3.565 0 4.718-.549.743-.569.879-.23 1.543 1.193 2.336 1.66 10.022.841 13.825-.28 1.297-.294 1.747-.06 1.83.656.23 1.772 1.595 1.772 2.166 0 .367-.459 1.024-1.19 1.706-1.02.949-1.19 1.257-1.187 2.135.005 1.322.142 1.503 1.635 2.159 1.652.725 3.531 2.648 4.401 4.504.948 2.023 1 5.577.108 7.53-.808 1.768-2.73 3.72-4.508 4.576-2.179 1.05-5.16 1.176-7.225.304z"/></svg>