<svg xmlns="http://www.w3.org/2000/svg" width="127.117" height="354.399" viewBox="0 0 33.633 93.768"><path d="M84.111 126.256c-.296 2.392-1.594 3.982-3.771 2.867-2.177-1.115-3.877-.318-3.771 1.752.106 2.07 2.25 3.186 2.25 3.186s-2.79 2.602-2.254 4.46c.537 1.859-4.402-2.07-1.852-6.584 0 0-2.374-2.601-.737-6.584 1.637-3.982 10.506-2.124 10.135.903zM70.41 184.027a4.623 4.623 0 1 1 .003-9.245 4.623 4.623 0 0 1-.003 9.245zm-6.152-45.506c.536-1.858-2.254-4.46-2.254-4.46s2.141-1.115 2.247-3.186c.11-2.07-1.591-2.867-3.768-1.752-2.176 1.115-3.475-.475-3.771-2.867-.37-3.027 8.495-4.885 10.135-.903 1.637 3.983-.737 6.584-.737 6.584 2.55 4.513-2.388 8.443-1.852 6.584zm6.152-25.135c1.468 2.46 3.715 5.603 5.948 6.233 0 0-3.715 2.606-5.948 5.39-2.233-2.784-5.944-5.39-5.944-5.39 2.233-.63 4.48-3.773 5.944-6.233zm16.814 12.392c-.13-3.823-7.095-5.097-7.095-5.097.212-2.337-1.7-4.248-4.886-6.16-3.185-1.911-2.547-14.23-2.547-17.415 0-3.186-2.286-3.823-2.286-3.823s-2.282.637-2.282 3.823.638 15.504-2.547 17.416c-3.186 1.911-5.098 3.822-4.886 6.159 0 0-6.968 1.274-7.095 5.097-.127 3.823 2.209 7.964 5.821 7.487 0 0-.211 2.708 1.486 3.557 1.7.85-1.203 3.398 1.097 4.46 2.303 1.062 4-.212 4.639 2.336.635 2.549-1.274 2.761-2.763 2.549-1.485-.212-.211 4.035 2.124 4.46 2.336.425-.212 4.248-.85 8.07-.487 2.92.515 10.792 1.012 14.35a7.645 7.645 0 0 0 4.244 14.005 7.648 7.648 0 0 0 7.649-7.647 7.633 7.633 0 0 0-3.405-6.358c.501-3.558 1.5-11.43 1.013-14.35-.635-3.822-3.186-7.645-.847-8.07 2.335-.425 3.609-4.672 2.124-4.46-1.489.212-3.401 0-2.762-2.549.638-2.548 2.335-1.274 4.639-2.336 2.3-1.062-.604-3.61 1.097-4.46 1.697-.85 1.485-3.557 1.485-3.557 3.609.477 5.948-3.664 5.82-7.487" style="fill:#393536;fill-opacity:1;fill-rule:nonzero;stroke:none;stroke-width:.0352778" transform="translate(-53.595 -93.283)"/></svg>