<svg xmlns="http://www.w3.org/2000/svg" width="50.061" height="186.481" viewBox="0 0 52.981 197.359"><path d="M73.21 61.554c-2.868 7.486-10.195 8.76-15.292 5.415 0 0 3.026-5.575-2.39-6.85 0 0-1.178-4.03-4.46-4.45-3.281.42-4.46 4.45-4.46 4.45-5.415 1.275-2.389 6.85-2.389 6.85-5.097 3.345-12.425 2.071-15.292-5.415-2.867-7.487 3.567-12.425 3.567-12.425 1.973 6.212 7.265 2.39 7.265 2.39s2.549 3.822 5.575 2.07c3.026-1.752-.16-6.372-.16-6.372s2.39-1.114 1.435-3.822c-.956-2.708-4.939-2.868-4.939-2.868 1.396-5.472 6.325-6.531 9.398-6.642 3.074.111 8.004 1.17 9.398 6.642 0 0-3.982.16-4.937 2.868-.956 2.708 1.433 3.822 1.433 3.822s-3.186 4.62-.16 6.372c3.027 1.752 5.576-2.07 5.576-2.07s5.292 3.822 7.266-2.39c0 0 6.433 4.938 3.566 12.425zM51.068 78.429c-2.767-3.931-7.327-7.477-7.327-7.477 2.012-1.007 5.228-3.79 7.327-5.705 2.1 1.916 5.316 4.698 7.328 5.705 0 0-4.56 3.546-7.328 7.477zm6.599 61.176a6.598 6.598 0 1 1-13.197 0 6.598 6.598 0 0 1 13.197 0zM67.953 44.19c-4.46 0-2.548-2.708-2.867-5.256-.319-2.55-3.186-7.251-9.398-8.405-4.62-.993 1.752-12.144 1.115-22.975-.637-10.832-3.504-24.372-5.735-24.53-2.23.158-5.097 13.698-5.734 24.53-.637 10.831 5.734 21.982 1.115 22.975-6.212 1.154-9.08 5.856-9.398 8.405-.318 2.548 1.593 5.256-2.867 5.256S23.99 51.2 24.627 60.279c.637 9.08 11.468 11.628 11.468 11.628-.478 1.912-1.115 5.257 2.867 6.85 3.983 1.593 5.894-2.868 7.173-.478 1.279 2.39 0 7.327 0 7.327h-3.03v4.779h3.03c-4.933 4.46.155 17.84.155 17.84-3.186 0-6.053 3.505-4.779 5.416 1.275 1.912 2.23-.319 4.779.637s0 7.009 0 7.009c1.36.453 1.86 2.05 2.009 3.605-6.946 1.3-12.204 7.39-12.204 14.713 0 7.222 5.114 13.25 11.918 14.66-.697 1.115-1.863 1.518-1.816 2.862.066 1.911 3.12 2.708 1.526 5.575-1.592 2.867-6.212 0-6.212 0-1.433 5.416 5.894 7.964 5.894 7.964-.16 8.443 3.663 9.717 3.663 9.717s3.823-1.274 3.664-9.717c0 0 7.328-2.548 5.894-7.964 0 0-4.62 2.867-6.213 0-1.592-2.867 1.461-3.664 1.527-5.575.047-1.344-1.118-1.747-1.816-2.862 6.804-1.41 11.918-7.438 11.918-14.66 0-7.323-5.258-13.413-12.204-14.713.15-1.554.65-3.152 2.01-3.605 0 0-2.55-6.053 0-7.009 2.548-.956 3.504 1.275 4.778-.637 1.274-1.912-1.593-5.416-4.779-5.416 0 0 5.089-13.38.155-17.84h3.031v-4.779h-3.031s-1.279-4.938 0-7.327c1.279-2.39 3.19 2.07 7.172.478 3.983-1.593 3.345-4.938 2.868-6.85 0 0 10.831-2.548 11.469-11.628.637-9.08-5.098-16.088-9.558-16.088" style="fill:#393536;fill-opacity:1;fill-rule:nonzero;stroke:none;stroke-width:.0352778" transform="translate(-24.578 16.976)"/></svg>