<svg xmlns="http://www.w3.org/2000/svg" width="76.033" height="343.873" viewBox="0 0 20.117 90.983"><path fill="#333" d="M8.2 90.771C2.242 89.33-.047 82.058 3.962 77.309c.794-.94 3.165-2.425 3.879-2.43.239 0 .507-.19.595-.42.089-.23.16-6.125.16-13.1 0-9.81-.087-13.262-.388-15.257-1.046-6.932-3.156-11.871-6.47-15.146l-1.74-1.72 1.587-1.603c1.83-1.848 3.1-4.213 4.482-8.354C7.449 15.14 8.766 8.117 9.273 2.182 9.446.15 9.5 0 10.055 0c.565 0 .612.156.918 3.109 1.311 12.618 4.339 22.019 8.112 25.186l1.03.864-1.724 1.774c-.949.976-2.131 2.46-2.628 3.3-1.32 2.225-2.649 5.951-3.361 9.423-.61 2.972-.625 3.367-.627 17.132-.003 13.242.025 14.089.46 14.092.762.004 3.088 1.473 4.027 2.543 1.338 1.524 1.884 2.997 1.89 5.102.008 2.262-.365 3.548-1.467 5.065-1.915 2.637-5.373 3.934-8.485 3.18z"/></svg>