<svg xmlns="http://www.w3.org/2000/svg" width="120.211" height="397.147" viewBox="0 0 31.806 105.078"><path d="M84.05 145.68c-2.907-.318-2.233-2.23-2.233-2.23s-2.484 3.824-.067 5.894c2.416 2.071 1.203 4.938-1.058 4.78-2.258-.16-5.603-2.709-4.488-10.036 1.115-7.328 5.68-7.805 7.063-7.805 1.38 0 3.99 1.55 4.089 3.397.116 2.226-.4 6.32-3.306 6zm-4.501 45.186a5.682 5.682 0 1 1-11.363 0 5.682 5.682 0 0 1 11.363 0zm-12.506-36.743c-2.262.16-3.475-2.708-1.059-4.779 2.42-2.07-.067-5.894-.067-5.894s.678 1.912-2.233 2.23c-2.907.32-3.422-3.774-3.302-6 .095-1.846 2.706-3.397 4.089-3.397 1.38 0 5.944.477 7.059 7.805 1.115 7.327-2.23 9.876-4.487 10.035zm22.7-13.54c-.479-6.69-8.656-9.238-12.265-4.778-1.754.796-2.071-3.664-.476-6.213 1.59-2.548.793-4.46-.639-5.575-1.432-1.115.423-28.99-2.494-28.831-2.921-.16-1.062 27.716-2.498 28.831-1.432 1.116-2.23 3.027-.635 5.575 1.591 2.55 1.274 7.01-.48 6.213-3.608-4.46-11.786-1.912-12.266 4.778-.476 6.69 5.737 7.328 4.94 8.124-.798.796-1.913 5.257 1.54 6.69 3.451 1.434 5.945-1.911 6.425-.637.476 1.274-1.436 7.009-.977 12.265.455 5.257 3.207 8.602 2.303 8.443-1.647 0-3.238 3.982-1.647 5.256.395.316.663.688.843 1.068-4 1.079-6.946 4.731-6.946 9.074a9.396 9.396 0 0 0 9.398 9.398 9.399 9.399 0 0 0 2.448-18.472c.18-.38.448-.752.843-1.068 1.591-1.274 0-5.256-1.647-5.256-.903.159 1.848-3.186 2.303-8.443.46-5.256-1.453-10.99-.977-12.265.48-1.274 2.974 2.071 6.428.637 3.45-1.433 2.335-5.894 1.538-6.69-.797-.796 5.415-1.433 4.939-8.124" style="fill:#393536;fill-opacity:1;fill-rule:nonzero;stroke:none;stroke-width:.0352778" transform="translate(-57.964 -95.185)"/></svg>