<svg xmlns="http://www.w3.org/2000/svg" width="58.987" height="477.921" viewBox="0 0 15.607 126.45"><path fill="#333" d="M4.3 125.686c-4.743-2.398-5.759-8.108-2.092-11.756.745-.74 1.562-1.466 1.816-1.612.438-.25.435-.351-.056-1.908-1.137-3.608-1.454-6.08-1.436-11.188.018-5.235.351-8.296 1.704-15.648 1.498-8.14 1.88-11.141 2.013-15.838.073-2.547.034-5.276-.087-6.064-.212-1.385-.257-1.446-1.324-1.801-1.632-.544-3.393-2.213-3.897-3.693-.783-2.295-.532-4.096 1.422-10.247 2.57-8.089 3.705-19.245 3.71-36.47L6.076.003h2.837l.151 9.062c.275 16.4 1.85 29.018 4.713 37.75 1.284 3.913 1.338 4.198 1.252 6.531-.081 2.21-.164 2.545-.883 3.563-.437.618-1.39 1.517-2.117 2s-1.528 1.027-1.778 1.213c-.71.528-1.1 4.396-.913 9.07.166 4.134.551 6.917 2.126 15.346 1.43 7.66 1.756 10.536 1.746 15.42-.01 4.707-.352 7.354-1.33 10.293l-.59 1.774.628.411c2.557 1.674 3.683 3.679 3.683 6.56 0 2.238-.527 3.551-2.079 5.185-1.514 1.593-2.741 2.106-5.33 2.229-2.102.1-2.356.052-3.892-.724z"/></svg>