<svg xmlns="http://www.w3.org/2000/svg" width="22.684" height="111.046" viewBox="0 0 6.002 29.381"><path fill="#ccc" stroke="#63737c" stroke-linecap="square" stroke-linejoin="round" stroke-width=".318" d="M.16 26.325c.001 1.69 1.325 2.834 2.896 2.892 1.57.058 2.736-1.388 2.786-2.763.037-1.012-.568-2.274-1.542-2.701 0 0 1.133-7.308-1.349-23.597-2.182 16.62-.973 23.512-.973 23.512C.972 24.023.22 25.11.16 26.325z" color="#000"/><path fill="#fff" fill-rule="evenodd" stroke="#54a458" stroke-width=".074" d="M4.146 20.494c.004 1.562-1.991 1.875-2.082.093-.183-6.618-.042-9.454.918-14.786 1.112 5.201 1.248 7.86 1.164 14.692z"/></svg>