<svg xmlns="http://www.w3.org/2000/svg" width="61.243" height="490.696" viewBox="0 0 16.204 129.83"><g fill="#333" stroke-width=".265"><path d="M9.29 109.165c.884-.37 1.729-1.55 1.729-2.415 0-.806-.814-2.16-1.48-2.464-1.971-.898-4.076.31-4.076 2.337 0 1.451 1.233 2.834 2.588 2.901.186.01.744-.152 1.24-.359z"/><path d="M.51 129.735c-.52-.108-.569-.25-.465-1.36.063-.683.236-3.92.384-7.194.147-3.274.33-7.024.404-8.334.18-3.184 1.133-23.651 1.317-28.31.08-2.037.204-4.657.276-5.821.124-2.01 2.458-55.272 3.037-69.321.15-3.638.338-7.24.417-8.004L6.024.002h2.23c2.165 0 2.23.018 2.23.623 0 .342.118 2.992.264 5.887.145 2.895.86 18.956 1.59 35.691 1.585 36.386 2.104 47.758 3.2 70.192.458 9.356.748 17.095.645 17.198-.204.205-14.733.337-15.674.142z"/></g></svg>