<svg xmlns="http://www.w3.org/2000/svg" width="47.705" height="116.7mm" viewBox="0 0 12.622 116.7"><g fill="#333" stroke-width=".265"><path d="M7.501 100.181c.357-.357.65-.898.65-1.203 0-.714-1.139-1.852-1.853-1.852s-1.852 1.138-1.852 1.852c0 .714 1.138 1.852 1.852 1.852.305 0 .846-.292 1.203-.649z"/><path d="M4.979 115.581c-2.355-2.355-3.657-4.975-4.382-8.82-.636-3.367-.396-9.346.699-17.447 1.1-8.146 1.187-14.55.273-20.373C.03 59.124-.103 57.611.046 51.611c.13-5.218.668-10.574 1.727-17.198.452-2.825 2.999-25.192 3.6-31.618.23-2.45.34-2.778.931-2.778.635 0 .473-1.11 2.378 16.332.877 8.037 1.828 16.133 2.111 17.992 1.08 7.067 1.627 12.273 1.777 16.883.172 5.313-.043 7.999-1.264 15.81-1.379 8.82-1.337 12.431.284 24.398.724 5.353.961 11.577.548 14.404-.362 2.473-1.336 5.407-2.33 7.019-.665 1.077-3.21 3.845-3.535 3.845-.097 0-.68-.503-1.294-1.118z"/></g></svg>