<svg xmlns="http://www.w3.org/2000/svg" width="86.032" height="344.164" viewBox="0 0 22.763 91.06"><path d="M85.344 196.778a3.416 3.416 0 1 1 0-6.832 3.416 3.416 0 0 1 0 6.832zm7.752-64.212c-3.398.213-3.61 6.797-4.865 9.345-1.255 2.55-1.932-2.336-1.067-4.247.865-1.912 1.897-7.01-.015-8.071-1.911-1.062.213-14.017 0-15.929-.212-1.911-1.805-3.61-1.805-3.61s-1.593 1.699-1.805 3.61c-.213 1.912 1.91 14.867 0 15.929-1.912 1.062-.88 6.16-.016 8.07.865 1.912.19 6.797-1.066 4.248-1.255-2.548-1.467-9.132-4.865-9.345-3.399-.212-4.46 7.646-2.973 8.496 1.486.85 3.398-.637 2.973-2.973-.425-2.337 2.636 2.123 2.061 3.61-.575 1.487-1.849 1.062-2.061 2.761-.213 1.7 3.273 2.336 2.061 4.566-1.212 2.23-4.822 6.478-2.061 7.115 2.761.637 3.823-8.495 4.672-8.495.85 0 .85 2.973.425 4.46-.425 1.486-1.062 3.186.212 4.672 1.275 1.487.425 8.283-.849 9.77s-.743 7.965 1.274 10.354c0 0-4.16.478-3.673 2.177.41 1.427 3.028 3.58 3.348 6.893a7.752 7.752 0 1 0 4.687 0c.319-3.313 2.938-5.466 3.346-6.893.488-1.7-3.672-2.177-3.672-2.177 2.017-2.39 2.548-8.867 1.274-10.354-1.274-1.487-2.124-8.283-.85-9.77 1.275-1.486.637-3.186.213-4.672-.425-1.487-.425-4.46.424-4.46.85 0 1.912 9.132 4.673 8.495 2.76-.637-.85-4.885-2.062-7.115-1.211-2.23 2.274-2.867 2.062-4.566-.212-1.7-1.487-1.274-2.062-2.761-.574-1.487 2.487-5.947 2.062-3.61-.425 2.336 1.487 3.822 2.973 2.973 1.487-.85.425-8.708-2.973-8.496" style="fill:#393536;fill-opacity:1;fill-rule:nonzero;stroke:none;stroke-width:.0352778" transform="translate(-73.963 -110.054)"/></svg>