<svg xmlns="http://www.w3.org/2000/svg" width="108.288" height="533.605" viewBox="0 0 28.651 141.183"><path d="M54.759 115.764s-1.354.637-.956 2.868c.339 1.898.55 7.476-2.39 8.752-2.94-1.276-2.728-6.854-2.389-8.752.399-2.23-.955-2.868-.955-2.868-4.62 1.753-8.124-1.911-8.443-5.336-.318-3.425 3.664-5.575 6.85-4.62 1.911.574 3.76 2.635 4.938 4.195 1.177-1.56 3.026-3.62 4.937-4.194 3.186-.956 7.169 1.194 6.85 4.62-.319 3.424-3.823 7.088-8.442 5.335zm2.036 71.176a5.382 5.382 0 1 1-10.763 0 5.382 5.382 0 0 1 10.763 0zm-5.381-89.044c1.415 1.647 3.281 3.44 4.937 3.771 0 0-2.767 2.231-4.937 4.661-2.171-2.43-4.939-4.66-4.939-4.66 1.656-.332 3.523-2.125 4.939-3.772zm14.176 13.806c1.275-7.008-6.053-9.398-6.053-9.398 3.345-1.752 1.434-5.893 0-5.893-1.433 0-2.867.637-5.256-.956-2.39-1.593-1.115-22.3-1.115-29.628 0-7.327-1.752-7.858-1.752-7.858s-1.753.531-1.753 7.858c0 7.328 1.275 28.035-1.115 29.628-2.39 1.593-3.822.956-5.256.956-1.434 0-3.345 4.141 0 5.893 0 0-7.327 2.39-6.053 9.398 1.274 7.01 6.53 8.284 9.716 7.169 0 0-3.026 7.327 2.39 10.194 1.752 1.911.16 14.495-2.39 20.07-2.253 4.93 2.462 19.48 1.715 25.907-5.422 1.246-9.467 6.098-9.467 11.898 0 6.744 5.468 12.212 12.213 12.212 6.744 0 12.212-5.468 12.212-12.212 0-5.8-4.045-10.652-9.467-11.898-.747-6.428 3.968-20.978 1.715-25.907-2.55-5.575-4.142-18.159-2.39-20.07 5.416-2.867 2.39-10.194 2.39-10.194 3.185 1.115 8.442-.16 9.716-7.169" style="fill:#393536;fill-opacity:1;fill-rule:nonzero;stroke:none;stroke-width:.0352778" transform="translate(-37.088 -57.97)"/></svg>