<svg xmlns="http://www.w3.org/2000/svg" width="167.192" height="485.844" viewBox="0 0 44.236 128.546"><path d="M84.393 149.817c-3.982-.638-5.439-4.304-3.277-6.851 0 0-5.643-.636-8.351 4.462-.431.81-.86 1.416-1.274 1.867v-8.49c.839-1.193 1.847-2.274 3.026-2.935 3.982-2.23 10.513-3.026 13.22 1.434 2.709 4.46.638 11.15-3.344 10.513zm-8.602 24.849c2.36 3.332.482 11.5-5.734 13.121-6.216-1.622-8.095-9.79-5.734-13.121 2.708-3.823 2.867-13.062 3.345-17.681.246-2.382 1.364-3.7 2.39-4.423 1.025.723 2.142 2.041 2.388 4.423.478 4.62.638 13.858 3.345 17.68zm-5.734 33.77a4.142 4.142 0 1 1 0-8.284 4.142 4.142 0 0 1 0 8.283zm-11.06-65.47c2.163 2.547.706 6.213-3.276 6.85-3.982.638-6.053-6.052-3.345-10.512 2.708-4.46 9.239-3.664 13.22-1.434 1.18.66 2.188 1.742 3.027 2.935v8.49c-.414-.45-.843-1.056-1.274-1.867-2.708-5.098-8.351-4.462-8.351-4.462zm7.396-18.157c.295-4.13 2.227-7.284 3.664-9.096 1.437 1.812 3.369 4.966 3.664 9.096.31 4.354-2.006 9.168-3.664 12.007-1.658-2.84-3.975-7.653-3.664-12.007zm21.08 10.035c-2.124-.85 0-4.248 0-4.248s-7.646-1.062-11.044 2.548c0 0 .637-5.734 5.097-9.132 0 0-2.124-1.805-4.46-1.115 0 0-5.735-12.053-5.522-21.823.212-9.77.637-15.716-1.487-15.929-2.124.213-1.699 6.16-1.487 15.93.213 9.77-5.522 21.822-5.522 21.822-2.336-.69-4.46 1.115-4.46 1.115 4.46 3.398 5.098 9.132 5.098 9.132-3.399-3.61-11.045-2.548-11.045-2.548s2.124 3.398 0 4.248c-4.035 1.699-4.884 6.159-4.672 9.981.212 3.824 2.548 8.071 8.495 8.496 5.947.425 7.434-7.433 7.859-2.761 2.336 11.681-2.55 17.416-3.664 25.699-1.115 8.283 2.644 11.469 2.644 11.469-2.294 2.76.595 4.46.595 4.46-1.12 2.016-.468 3.618.399 4.682a9.398 9.398 0 0 0 5.76 16.821 9.398 9.398 0 0 0 5.76-16.82c.867-1.065 1.52-2.667.4-4.683 0 0 2.887-1.7.594-4.46 0 0 3.76-3.186 2.644-11.47-1.115-8.282-6-14.017-3.664-25.698.425-4.672 1.912 3.186 7.859 2.761 5.946-.425 8.283-4.672 8.495-8.496.213-3.822-.637-8.282-4.672-9.981" style="fill:#393536;fill-opacity:1;fill-rule:nonzero;stroke:none;stroke-width:.0352778" transform="translate(-47.939 -85.145)"/></svg>