<svg xmlns="http://www.w3.org/2000/svg" width="59.709" height="350.94" viewBox="0 0 15.798 92.853"><path fill="#333" d="M5.827 92.499c-3.916-1.222-5.961-5.18-4.756-9.204.4-1.335 2.601-3.77 3.8-4.203l.91-.33V46.59h-.62c-.981 0-3.812-1.546-4.437-2.424-1.223-1.717-.964-3.5 1.219-8.424C4.668 29.593 5.746 22.39 5.972 8.809l.146-8.81 2.97.157-.085 2.778c-.048 1.528.045 4.861.205 7.408.72 11.477 2.333 20.028 4.782 25.363 2.296 5.004 2.374 6.771.383 8.682-.713.684-1.76 1.327-2.755 1.69l-1.604.584v32.102l.871.315c1.093.395 2.91 2.174 3.527 3.45.676 1.402.785 3.938.24 5.578-.594 1.79-2.33 3.52-4.254 4.24-1.668.624-2.93.666-4.571.154z"/></svg>